<mxfile host="app.diagrams.net" modified="2022-04-08T08:59:41.570Z" agent="5.0 (Windows NT 10.0; Win64; x64) AppleWebKit/537.36 (KHTML, like Gecko) Chrome/100.0.4896.75 Safari/537.36" etag="5o5dyqzCSjbVl8ZXjCn2" version="17.4.0" type="github">
  <diagram name="启动阶段" id="b5b7bab2-c9e2-2cf4-8b2a-24fd1a2a6d21">
    <mxGraphModel dx="5403" dy="1991" grid="1" gridSize="10" guides="1" tooltips="1" connect="1" arrows="1" fold="1" page="1" pageScale="1" pageWidth="827" pageHeight="1169" background="none" math="0" shadow="0">
      <root>
        <mxCell id="0" />
        <mxCell id="1" parent="0" />
        <mxCell id="MnmM2nSsMipLqbGMfpA4-4" value="" style="edgeStyle=orthogonalEdgeStyle;rounded=0;orthogonalLoop=1;jettySize=auto;html=1;" edge="1" parent="1" source="MnmM2nSsMipLqbGMfpA4-2" target="MnmM2nSsMipLqbGMfpA4-3">
          <mxGeometry relative="1" as="geometry" />
        </mxCell>
        <mxCell id="MnmM2nSsMipLqbGMfpA4-2" value="客户端" style="ellipse;whiteSpace=wrap;html=1;aspect=fixed;fillColor=#dae8fc;strokeColor=#6c8ebf;" vertex="1" parent="1">
          <mxGeometry x="-980" y="106" width="80" height="80" as="geometry" />
        </mxCell>
        <mxCell id="MnmM2nSsMipLqbGMfpA4-6" style="edgeStyle=orthogonalEdgeStyle;rounded=0;orthogonalLoop=1;jettySize=auto;html=1;entryX=0.005;entryY=0.444;entryDx=0;entryDy=0;entryPerimeter=0;" edge="1" parent="1" source="MnmM2nSsMipLqbGMfpA4-3" target="MnmM2nSsMipLqbGMfpA4-5">
          <mxGeometry relative="1" as="geometry">
            <Array as="points">
              <mxPoint x="-940" y="350" />
              <mxPoint x="-349" y="350" />
            </Array>
          </mxGeometry>
        </mxCell>
        <mxCell id="MnmM2nSsMipLqbGMfpA4-46" value="" style="edgeStyle=orthogonalEdgeStyle;rounded=0;orthogonalLoop=1;jettySize=auto;html=1;" edge="1" parent="1" source="MnmM2nSsMipLqbGMfpA4-3" target="MnmM2nSsMipLqbGMfpA4-45">
          <mxGeometry relative="1" as="geometry">
            <Array as="points">
              <mxPoint x="-940" y="350" />
              <mxPoint x="-745" y="350" />
            </Array>
          </mxGeometry>
        </mxCell>
        <mxCell id="MnmM2nSsMipLqbGMfpA4-57" value="" style="edgeStyle=orthogonalEdgeStyle;rounded=0;orthogonalLoop=1;jettySize=auto;html=1;" edge="1" parent="1" source="MnmM2nSsMipLqbGMfpA4-3" target="MnmM2nSsMipLqbGMfpA4-56">
          <mxGeometry relative="1" as="geometry">
            <Array as="points">
              <mxPoint x="-940" y="350" />
              <mxPoint x="-1505" y="350" />
            </Array>
          </mxGeometry>
        </mxCell>
        <mxCell id="MnmM2nSsMipLqbGMfpA4-61" value="" style="edgeStyle=orthogonalEdgeStyle;rounded=0;orthogonalLoop=1;jettySize=auto;html=1;" edge="1" parent="1" target="MnmM2nSsMipLqbGMfpA4-60">
          <mxGeometry relative="1" as="geometry">
            <mxPoint x="-981.9473684210525" y="290" as="sourcePoint" />
            <Array as="points">
              <mxPoint x="-940" y="290" />
              <mxPoint x="-940" y="350" />
              <mxPoint x="-1089" y="350" />
            </Array>
          </mxGeometry>
        </mxCell>
        <mxCell id="MnmM2nSsMipLqbGMfpA4-3" value="读取seata-spring-boot-starter-1.4.2.jar\META-INF\spring.factories" style="whiteSpace=wrap;html=1;" vertex="1" parent="1">
          <mxGeometry x="-1060" y="220" width="240" height="70" as="geometry" />
        </mxCell>
        <mxCell id="MnmM2nSsMipLqbGMfpA4-8" value="" style="edgeStyle=orthogonalEdgeStyle;rounded=0;orthogonalLoop=1;jettySize=auto;html=1;" edge="1" parent="1" target="MnmM2nSsMipLqbGMfpA4-7">
          <mxGeometry relative="1" as="geometry">
            <mxPoint x="-240" y="440" as="sourcePoint" />
            <Array as="points">
              <mxPoint x="-52" y="440" />
              <mxPoint x="-52" y="300" />
            </Array>
          </mxGeometry>
        </mxCell>
        <mxCell id="MnmM2nSsMipLqbGMfpA4-10" value="" style="edgeStyle=orthogonalEdgeStyle;rounded=0;orthogonalLoop=1;jettySize=auto;html=1;exitX=1;exitY=0.5;exitDx=0;exitDy=0;" edge="1" parent="1" source="MnmM2nSsMipLqbGMfpA4-5" target="MnmM2nSsMipLqbGMfpA4-9">
          <mxGeometry relative="1" as="geometry">
            <mxPoint x="-220" y="494" as="sourcePoint" />
            <Array as="points">
              <mxPoint x="-52" y="440" />
              <mxPoint x="-52" y="530" />
            </Array>
          </mxGeometry>
        </mxCell>
        <mxCell id="MnmM2nSsMipLqbGMfpA4-5" value="&lt;b&gt;SeataAutoConfiguration&lt;/b&gt;" style="rounded=1;whiteSpace=wrap;html=1;" vertex="1" parent="1">
          <mxGeometry x="-413" y="410" width="170" height="60" as="geometry" />
        </mxCell>
        <mxCell id="MnmM2nSsMipLqbGMfpA4-13" style="edgeStyle=orthogonalEdgeStyle;rounded=0;orthogonalLoop=1;jettySize=auto;html=1;entryX=-0.003;entryY=0.43;entryDx=0;entryDy=0;entryPerimeter=0;" edge="1" parent="1" source="MnmM2nSsMipLqbGMfpA4-7" target="MnmM2nSsMipLqbGMfpA4-12">
          <mxGeometry relative="1" as="geometry" />
        </mxCell>
        <mxCell id="MnmM2nSsMipLqbGMfpA4-7" value="io.seata.tm.api.FailureHandler" style="whiteSpace=wrap;html=1;rounded=1;" vertex="1" parent="1">
          <mxGeometry x="28" y="270" width="180" height="60" as="geometry" />
        </mxCell>
        <mxCell id="MnmM2nSsMipLqbGMfpA4-15" value="" style="edgeStyle=orthogonalEdgeStyle;rounded=0;orthogonalLoop=1;jettySize=auto;html=1;" edge="1" parent="1" source="MnmM2nSsMipLqbGMfpA4-9" target="MnmM2nSsMipLqbGMfpA4-14">
          <mxGeometry relative="1" as="geometry" />
        </mxCell>
        <mxCell id="MnmM2nSsMipLqbGMfpA4-9" value="io.seata.spring.annotation.GlobalTransactionScanner" style="whiteSpace=wrap;html=1;rounded=1;" vertex="1" parent="1">
          <mxGeometry x="18" y="500" width="310" height="60" as="geometry" />
        </mxCell>
        <mxCell id="MnmM2nSsMipLqbGMfpA4-12" value="" style="shape=image;verticalLabelPosition=bottom;labelBackgroundColor=default;verticalAlign=top;aspect=fixed;imageAspect=0;image=data:image/png,iVBORw0KGgoAAAANSUhEUgAAAggAAAGNCAYAAAB0aYmVAAAAAXNSR0IArs4c6QAAIABJREFUeF7snXWcVFX/gJ87tTPb3c3usruwdIeAgDQSBkqXgeirP1+7u18LERFQEBEERJEGQbq7lg22u7smfp+ZWTZggQUBiXP/4cPsnRPPOfee537POXekZs2aGRCHICAICAKCgCAgCAgCdQhIQhBEfxAEBAFBQBAQBASB8wkIQRB9QhAQBAQBQUAQEAQuICAEQXQKQUAQEAQEAUFAEBCCIPqAICAICAKCgCAgCFyegIggXJ6ROEMQEAQEAUFAELjjCAhBuOOaXFRYEBAEBAFBQBC4PAEhCJdnJM4QBAQBQUAQEATuOAJCEO64JhcVFgQEAUFAEBAELk9ACMLlGYkzBAFBQBAQBASBO46AEIQ7rslFhQUBQUAQEAQEgcsTEIJweUbiDEFAEBAEBAFB4I4jIAThjmtyUWFBQBAQBAQBQeDyBIQgXJ6ROEMQEAQEAUFAELjjCAhBuOOaXFRYEBAEBAFBQBC4PAEhCJdnJM4QBAQBQUAQEATuOAJCEO64JhcVFgQEAUFAEBAELk9ACMLlGYkzBAFBQBAQBASBO46AEIQ7rslFhQUBQUAQEAQEgcsTEIJweUbiDEFAEBAEBAFB4I4jIAThjmtyUWFBQBAQBAQBQeDyBIQgXJ6ROEMQEAQEAUFAELjjCFw3QRg0aBClpaV3HFBRYUFAEBAEBAFB4EYRkMvlbNq06bpkd90EoVevXhw5cuS6FFokKggIAoKAICAICAKgVCrJzMy8LiiEIFwXrCJRQUAQEAQEAUHg+hMQgnD9GYscBAFBQBAQBASBW46AEIRbrslEgQUBQUAQEAQEgetPQAjC9WcschAEBAFBQBAQBG45AkIQbrkmEwUWBAQBQUAQEASuPwEhCNefschBEBAEBAFBQBC45QgIQbjlmkwUWBAQBAQBQUAQuP4EhCBcf8Yih1uBgAQyBSCrLqweDDow6G+FwosyCgKCgCBw7QkIQbj2TEWKtxgBlauEXYQcSQHSOUEwmAWh6IyOskTDLVYjUVxBQBAQBP45ASEI/5yhSOEWJSBTgn1bOUoH6ZI10BYayD+oQ1d+i1ZUFFsQEAQEgasgIAThKqCJr9z6BCQ5OLSTo3S8tBycq6m22EDubh0G7a1fdyxcaNe5LVknt5KQVXZehRQ07T4ED+vqjw06jm9fSU7JbVDva1wFG/dQ2jb3ZfvG9egkYz+yoPXdA7GzMGdk0Feye9NqKnXXOGORnCBwgwgIQbhBoEU2NxcB62AZVkHn5hMaV7aKDAP5hy6821u4Sjh0kCNXS1RkGcjdq0V/DaINNi5BBPi6Nli4/KTDJGaeP7g3rh524f0ZO/xu0o8uY9mqfed9SU5w10F4WIHB1p+WIa6smvUq8bmNS/v6nqUisGVbyIvhbGJWnayUBLRoh5QXxdmknOtbhDqpu4b14b57Ipj55efVn6po2aO/SRDU7uEEe6r44bO3Ka26YUUSGQkC15SAEIRrilMkdisQMK4zcOmtMK05qHvkRBZRlFiGAQNqeyUeHRzr/d24YDFrk9a0NqHu4TZAQeFxHeUpxnTllMTrKYn556sb/do8yJB7IshIT78Aa/KeheyOzL9K3Aq8moaSH3OcEt3FIyiGgMFMf6gTq28SQTAY7Bj5zMtUHfmRP/8+XVN3g8Gae59+DcPB2fy5I/YqmVz51y4UhNo0nDtO5MFePkIQrhyr+MZNREAIwk3UGKIoN4aA2lPCrqW8wczyz5ZQkV+FWxv7Bv9eHKWnJLb+4O91n5KUZebHRKduCiqz9RRFXhtBGNDFlVkzvr4xYM7LRQjCpbELQfhXuqXI9AYSEIJwA2GLrG4OAjZhMiz9G55euJwgVOYayNtbP4TgeZ+S1GVVpqiE0l4CPejPW6uQ/ueVx5mNEYTGCoKFgx9devbBy8MVfXkep3et5HBkav0IiNSScU8NRVX96dE/3uVA/MV3aFxKEGzD+3Nf3yDWffU1qYbaKETrgVMItUrjl6Wra/LuO+YZbLK389umSFr2GEx4iD+UZrJrzTISsgrrlFHCp2VvOrRriZVKT+Lx7Wzdvh+DaX4frjSCoHYKpEvP3ni5OaEty+PUzt85GpVRm5/ansmPPsnZjd/wd7yK7v2H4udqRfyBNWw/cOaCzmoX0IXed3fBUlFB1O41xFcFcN89LZj55f8uOLcxEQSX4E506doJeysFGdEH2Ljhb+r1LLUzYx59jOxtX7DulCVd7xlEgI8rZdlxbP79V/Iqb47rSZTi9iUgBOH2bVtRs4sQMEYPjFGEho7LCYKuFLK31h/9LdwkjOsT3AcqkFs1nG7K0usnCDL7CMZMHEbGqb3Exicjs3SlQ6/elJ9ey/K1u6hVAFu8AtyQWQUw8N4+HFvyArtjrk4Q7FsMY+yQpvz+/ock1RGEDsOforlNCvMWLK/BO3jqa1jlnaHKLQzLolhOnIzBxrcdzb0LmT9jAaUGkJTW9B0zHV9lFju37qBYb0XLHgNxMSTx49wfMSBdkSDIHFsxbvxgUk/s4WxiKnJrDzr2upvio7+zYuN+MxO1A08++xJxe/7GIbw5Scf3U6LyokPbZiRtncXKXQnVdZAT1m8yvVp5cWL7GtIKJcI798JWVoGNmqsShM4jp9PcHfZt3UxOqYzQrkNo4lDK4jnfUFBa3b80rjzyzLOk7lyJQ9v+FMcfIjYxC4/QLvhbnGDO3DX1hUJc8YLANSYgBOEaAxXJ3fwErJvKsAq8ugiCcRFi/oGGl6VfD0EYOqDtBUCP/Pk/th+rvy5BrbGkvKy05lyldx8mj+vKum/eIr6gfhIGuwgeeWIMJ3598aoFwaHlMMYMbrwg+DlbEb9/OWs37TcGWEyHu4st6dURBJcW9/NAP08WfDmDoupl/3KNJw88OZ305W+yJbayRhBsCiOJS8mrUyklgS3bk7Pru3prENRqNeXltatFVb4DmDSmPau/fpukolpBMFSm88fc70jKNW7VUNBs5HP0Ci5i3iczKNWB2qMVE8YPY/eCTzmaWmzKV1I50H/CMwRo8q9YEJTe/Zg8uiV/fPslaYUV5vTkVgx/6hXKd3zHmv3VYlItCAq9noOrZ7HveIJJbCSlBi/bKpJzboctNTf//eJOLqEQhDu59e/QuquczLsOzj+0ZTryooupKtHhEmGH0vrCcwqO6ihPbfip+3oIwoCu7sydPateUfVVFejOX+Igt8DJzQMba2uUCmO5vek1rAc7f3qVk0n1Y9H/hiD4qNP4+ZvvKdQ3FGFR0WPqW4RW7WXL/vg6dZUTevcDeKYtZtaywzWCYFscTWJa3QWaKvybtyJrZ31BQKHGydUDW2srFCYmvtw9vDt///AqZ1IrayII6bu+ZemWuJp8bUIfYPyICBb87zUKy8G/3f307+jCrG9m1muH4Lsm0be1XZ1dDLV/vvgUg5w249+mk8UpNu08WSc9Gf7dRtKk5G9mLdxojnBUC4KUtZMf5qykUryv6w69Y/171RaC8O+xFzn/iwSce8iRW9YfrPJiiinLMQ+mcpUMt9b1Fyrqq8y7GC52XBdBaMQiRbVjEP3vH4WzqoriklJ0euNIosLF053tP7/O8YT6ey6vhSA4thrO6EEhjZ5isE7bwOJVey+CzpHhL76AW2kaOYUX8jWkbWfZ+qOXmGKwZ8T/vYR2f+0uBrVTUwY+8AAOikpKaphY4OLpxub5rxOZUl4jCNF/fsy6Y9m1ghA8kvH3t+Wnz1+moAya9pxMt2ADc7+fV6/8/u0eZmBXtysUBDUDnnsT/6ocsvMb2Kaac4Rlf+6oJwip695m1SHxIop/8XZxx2YtBOGObfo7u+IabwnbiIZ3MlyMTGncpXcnuPZToDhPOs6llbri+qxBMBgkhk97C2XSJpau2lZTdAN+jH/hCQ4vvj6CYN/iXsYOCWflx++TUFUrWl0feJam6vgL1iBoktexdO3+i6C1ZfCzr+Ae8zNz/jh20Y558UWK9QXByOSBJ99GF72a39bvqWViCGDiS4+z56crE4QmnUbTt609s775pl7ZmnQZT7/2jlcoCCrufvptQjLWMeuXvy99EZoiCP9Hwp9vs/547fTRnX3litrfSAJCEG4kbZHXzUNAApumMiwDGveypIrM6pck3cAwb2N2MRgMwUx6eSpHf/uEQ2dqXx5k2/JBxg5uy7aF10cQZD49eGxsf/YteoMD8eaoi8GgYuSTb2JfePAKBUEiZPDz9A2X8cMXH1Fa2fAW0cYLQlOmvDyZvUs+5MTZ2jc82bUdy5j+Efz145UJgl1QV8bd348t377OieqZDYNBQa+JrxFuV3DFaxCcezzDqC62LJ/5HmkFl1hHIATh5rlf3KElEYJwhza8qLb5h5k0vjKM2x4vdRgjB8XR+gtekHS9GTZGEIxTCcOnvYpV4XFWL/+N/EoFTTsNpmuXtmiUCrZepykGg2TFgCnP4SVLZcNvS8jS2tJt4IP4edhiyDx6hYIASls/xk2fRlXqCbZvXEtCegEuTdrQtUdXDv30P+LLL7XN8fwpBgseePI1FFkHWfP7Sgq0KsK6DKZrpzaolXI2XqEgILem57hnCbcvZffGlaTk62naoS8hvo5YGEqvWBCQ2XD/9OexLk8yvYo5Oj4dW+9wuvcbRNyaWRxPqbYQIQjX+xIT6V+GgBAE0UXueAJyK7D0lqF0lsxTBBLoygxU5RgoTTGgLbiBYYM6rdE4QQBrj2b0uKc/Pu5OaCvLyE0+zaHtcfSc+CAHF9VGEAy+Q3hiTFdkSEiScdugsV469sx6mwO559YpODL8hefxkpunDWrPg8Lkv1mwYG1NCTVOTUyDWoCPO/qyXE7tXo/BpxfhNunMmf9rzXnGbY6XnmIwn6pyDKLr3b0J9PNGrZRRUpBB1IGt7N5/1DQn39gIgjEtG68W9OzbD283e6oqy8hJPMXB7Qn0mfwguxZcWQTBmJ7Syo1O/YYRFuSPpC0m7uhW4vIcuOeuEL75/FMjKAyGQMa+9Aj2sgvZndm8gI17ahclKmx96NijN8FBgVipFZQX5XD26E527d5HhbY6giIE4Y6/N/3bAIQg/NstIPIXBAQBQUAQEARuQgJCEG7CRhFFEgQEAUFAEBAE/m0CQhD+7RYQ+QsCgoAgIAgIAjchASEIN2GjiCIJAoKAICAICAL/NgEhCP92C4j8BQFBQBAQBASBm5CAEISbsFFEkQQBQUAQEAQEgX+bgBCEf7sFRP6CgCAgCAgCgsBNSEAIwk3YKKJIgoAgIAgIAoLAv01ACMK/3QIif0FAEBAEBAFB4CYkcMsKgrW19U2IUxRJEBAEBAFBQBC4PQjs3buXzMzM61IZqVmzZtflHbW9evXiyPG6v6V+XcovEhUEBAFBQBAQBO5YAkoZQhDu2NYXFRcEBAFBQBAQBC5CQAiC6BqCgCAgCAgCgoAgcAEBIQiiUwgCgoAgIAgIAoLAnScItkoLOrh64mVli1ImJ7u8hH2ZqaSWFonuIAgIAoKAICAICAJ32hSDXJLxUFBzHNUaJMy/z173KK6q5O/UeGILc0XnEAQEAUFAEBAEBIHzCNyWUwwaSyu05eVMa9b+kg2+LzOF/TlpaLVa0TEEAUFAEBAEBAFBoA6B204QrG3taN6qLQd3bG2UIJyV6VEolaQkxl/YMSSw9AaZWqKqwEDF9dkOKjqkICAICAKCgCBw0xG47QShbefuWKjV7N+6uVGCEKcwENG2A5v+XIHBUP+1DXbNQe0loSsBpSPkHzRQlnLTteENKJBEUz8NhVllpJVel1dbXLQOFmoFzTyUHI4ro27OTm6WBNnJTN/LyywlKl9/Azg0MgtJgZNvKC66s0QmlzbqS5bOfrjYqkznlmYnkVVY3qjvGU9ycPdDUZFLVt5VrKuRZHj7NUEuAwN6cpJiKalqdNa3+YkK3Hy8Kc5MoqRCdwvXVcLeuwmq4mQy8xvfr25EhTX2njhYVpGamtVgdnI7H7yd1Ka/VRRlk56Vd9XFCmnWnIy4aApKK646jZv9i3YaLfbISCgz3xsvdmjUOrwkiZjLnHdbCYKllTW9BgwhLyeb/Vv/YkJwS+QyGTq9HoVMjkIuo0KrxegBFgoFB7PTMAqCUSr2bN1MTlZGPZ4eQ2VkbtKjKwX7NhIGPRQcubEDpKlAEjg4W/La/R4E28uJicnj0z+zSSm7MWUxWFix5BU/Tm+K561tFw547Tq40YN8PttX/8KbODmMCQEydHWKmZuUx32zUxt9nUW0cuere+0Y9s4ZCuo4QEgLJwb6KQht7kTu32d5efdNcuOT5IT3epiuIVb89ccvnE0rqKmr0sqFDn2GEhrggbYwla2rfiMhK9/UH51DuxPmbYdraHtKd3/P2oPJjWbU9YGnsEzcxMY9pxr9nZoT5Uo6de+DQqEmpGUzdvzwDlG55jU7BoMP45+dgrVcQpIkZBLo9ObGjNn0IxsOn73y/G6ib8gsrLmrz1AObF5KcdmFVmSwaM7EJ+8nasMcdh1LuolKXr8oBoMDw/7zNF4WxnaTkMsl9Dq9Sahz43ayeNkmOk16HcdD37LmSPpNVY/AzqPp7JfOz4v/arBcSt9OdApxwt47DHXWbpau3nnV5e8w9FHa+Fuw7qfviM+7PSXh4RaFtNKreOmEmkspbaBvMSN0aj5NUVyS520lCH6BwTRv084kCLu3bMS+rAqZJKE3GEz/WijklFdpTReOWiHHw92TVLXCJAjZGens3b6lHizPERLpqwzoK8G+tfmmmX/4xgzKdQviFejIggkuPP15NNEl0LyNKx/0UPPwh3FkSRcuwLzqK+gSX7RQydBr9VQ18KD+9LRwlH+f5JNT9ctiFISmJ6N461AtM2OUpryq8QyNA5NGKVFa2VCEQGLK46EEHom7aQTBq+P9DGiuYNGPiymta0bWwYyZMoqUHUvYeSweydKHUeNHc+iPmRyPz64mL6PDuFdwOvnDjROE6pwNBnsefHo6R36qFQTjYKNUKU1neDQdwN3tDPz88zrT//VarUm8b+XDws6dqY8+xo9fvklxg+OFZJp+1Gsrqfaim7S65nKabwXNmfR0G5Z+voAiCQx6PVqt4ZYVhHPAQ3qPp6U65h8JgrE/e7YZzL1dffjlm2/I19+Ye+eN7DRymQE5Eg3eLusU5I4UhKbNWxIUGl5PEEa0bI+lSsWR5ATic7MZGtHGtKdh05mTpGvLUXt5mgShqqKSDX8ur9eWXiNlpP2px7GzhIVzw82csrxxg53xKbFnZxcGhVlSnl/GD+syiSszp9m+gyt9bCr55kgFT/Z3xbqqnM9XZpBpfCiWKfjw+SBO/BjFwvRzN2SJUH81SYlllOiNT3rQq4sLA0MtKatOO77M/PkL43w4dbiQu9rasmZtCjYt3enpIWP2HykU29vweDs1e0uV3GWn5aO1eYzp745NQTHvrM3BeMe5Z6AP9/oYBwkDy1ecZXNm7UXVrqMbE1tZ4eOloSq7lPQKibOHUvhsv/luaxSEoKORvHKgYUYGpYKxfVxp46mkKL+cJRsyOFUdJTcY5Px3gi+BaomK0gqeW5hSLxJhJtewIFiobfh4vCVvfpfBuYDksOEBeJw6y7dnJAwGC95+zJXlC1Lw6ehC7yANWamFfLcpl9xKc8ruvrY82sMBK4OOTTsz2BB3+bi7wWDDqKee4ujyL4hMLanXYdoOfQyX3F2s23Gs5nNLeyeqinKpqhGJiwuCsS1DOvQjNNCTirxE9m79i4LqQc0cQdjM6VJX2oT5UZJxhu3bd1N5Ll1JiX+r7jQP9kemLyZq/99EJtRfUNOwINRWwTNsMH07Gpj/4+p69XL07kKXthpWbzhJ1149cbKWE390G0fPmJ+4DQo72vfojbeLHWX5KRzctonsUnM/DuxyL96VkRxM1NOlW2cU5els3rCRCm1tf3Fs0oGObZqhooKUM/s4dCyGc1eBMe0OPXrj5WJHaXXaOdVpmzKQa2jaoSdNfd3RluVxZOsaUguMDaym84ixeNuqcXd3JiPF3Lf2rZlNkmlTk4xmgyYS6iAHg459q+eSlF//+lfYeNKhW3dcbVWkxxxg36HT1RJhTff77iNt009om/SmRZAH6ae2su94A2ucrsvI0YJHnm/PLx/PpXbCSV4jCLvzPOjYLoKq3Bg2b96JofoBI7D9IHwVieyJKqVr9y7YKKo4uWsd0anmiksKDa26D8DP3Y78lNPs3b0HY9DFOqgP9/gk89uWyHq10QT2oadLJGv3JoPckvCOPQnycUdfkcfRbWtIyjV33nMRhNX7S+naJhRtYSJ7tv1NQVn9599LCYJnaFdaRwSjL8/jyLa1pJna+GKHgoh+k4mwiWHRsoajFtelWS6TqKNzGaNt5HwTp6rp3xbKKqb46vku1gLjMnqFQk9f73ICLQ2k5KlYm66kovpSsbLQMjnYzDQ104JlmfUjAwZJTw/vCsKt9STnqTilqmCkTs0nd1IEISQ8guDw5jWC4FSpZXTbbiZocTmZnEhLZkjzNqb/b4s5zZnCXGz9/UyCUF5Wxl+rf2+wGZ17/HNBeGJsE1pLJfxyqARnLxsmt7fkmU9jOFkOffv5MK2ZitSCcv7YV0TT9m7cLctnzJwsdG42rJzkRv8Pam+M5xfyqfFNiNCXsPhwCS7eNkxsq+HpT2M5VQ7fvxJOxqE0dharefFua5auTqMyzI2wzCy+SVIw5wEnPlmUQoeBvrSxqGDmH1kMGubN1h9OsyxTwt3TEh9LGY896Mv6BSf5NalWEJyc1QQ7WjD1YU8iVyayvViiKKeUkznmW/jlBGHgMF98cwo5nqnF0l7D433sePb9aOIM5lBpWIAlAV5WPN3dloEfxlBn3KhG0LAgaKwcWP2KDaNeSSSz+gJ6fFoz/Ped4IUDRkGwZMkHPmSdqaI4p4D18VV06OTK4fXxbEzS0ryNG293VzFjfS4lkpxx/d049Fcic49dOiypCRvJw22KmP/zBtMFXfe4d+qrnFn1EZFplxKNiwiCTEHPB57EqewMRyPjsfWOoF2oI8u+m0muVsIoCCEOOmKP7SO1QEdYt8E4FB1g6ZI1lOnBxjOCXi1cOBmTjE6yoEX3vmTvX8qu47Vh86sVBPfgwdw7yI9ynQUnd2yhQKuhebgXq5YspQoZ4YMnYpN+mIy8YlR2fnTpEszvxqc3g0TE4Edp7SKjoDCd06di8Wg7AP/yHfy8bKeJn0vYPdzbw4fN6zdTJWlo2rEvhti1/LUvyjj6Ez5kEtZpB8nMK8bC3p/OnZrw+8yZprRRONF/9EQ0Occ4diYJhY0H3Xp0ZMOCL0nKqcDFNxBHh2D69gtl/W9/UqGHnORoSkxji4SdZyC2Kgt63Psg+xa9TlRWbb9XuURw3/33kHRoK6n5OoI798cuZxu//bmTSr29KdyvSI4lL/0MiQUSnXvfw+l1szkQVX8K8/oMRBcXhICSOIqK0zlzNoOgTv2wzVjHr2uOmCKqEX0n0drXAr1Mz5Fdu6hUONE60MCyFVvB0pWBD01Ad3YnZ5Lz8WjenSY2Ofz281J09u2ZeJ8L3323Buvwe+jukc+ff+3DvtNkupQuYs2xMrza9CfUppCzydmgsqV7/77sWjiDmKwikyD0be9MwrH9xKQV4dfmbvwtc1g+fyH5dS6iiwlC897jCLXL4eCRSFA70avf3fw1/2sScusLel3WKqcQJoy7l1/+9zFFNygCe7m2Nsi0vNO2lHlHbYivNPc1f69iBmg1fJshR2WhZVpYKRnZKk6UyGjmUYG/TsmMKDXFBlDI9DSx0RPqWYpvsYavk8yRP+NhjNpOalEERSr258txt6ukg4OWqiyrO0sQvHz9adWh81UJQmpiAof37bougiDzcGLDZBsmfBJPsmmMkRjwQBMekTIYuaSI3v18+G9zGaO/SCBbBwa5mj/e8OHVD6LJ9rBn7nAHBn0W12DZFJ5OrJ9ow7hP40mpTnvwg02YbMhgxJIivns5lJ+/O80ptQ2Lp3gy+P0ogrr58qxzEe+clPisrxXDvkqi94gQHqpMY8qqIv7zaCjav0/zzZlzc9ESX74Yxq5F9QXBXCAVs98NZMVbp1lbdeEUw8MeOmqEvqyEaV8lk3mRi3LS1DC8dpzindO16Xj72zHvIZcrEwRrB1a/fBlB+DCQrL0pPPl7dYxBkpBjQKdQ8e1z/vz0xRl2lZrL4dPSlc/bybhv7qXmbyXChz1LQOpvrN5Xf27eYFAw6qnn2Tv/PeILJeRKO3z9PU1pF2Ukkl147mbWsCCofPowZZgvC2b9QLFpekZBi2H/oWXlKhauOUOXB57C0ygEa8391yBzZNJ/nmbHkk+JTi28oN+4t7mX3gFl/Lx8Q52bSENTDLVfvVgEwSgI9w1rzYa5HxKVa5YfmVyOXtfQDKhEpzGvo9n5JlvizILQySWXhfOXmkRGUgUx9T+DWfrlF+RVQsBdE+nll8vixSspNdZbYYuVspgS48kXHBJdxr6OcvubbI2XCOg1nm5OqSxatrFmLtbRP5iixOiaaTIb17sYNyGYOZ/MrXkSq5uswaDmwSdf4siS+oLQa8yzKKNXs2Gv+alZUjoy8cn/sOmnj0nIVDLsP//FcHQ+K7dGm/4eMXAqTSqP8Pum/Q1ew9f2w4sLQrPyHfy0eKMp/Gzv04kHh7Vg7jez0erNgnBXuA2/z/2alGIzX+NaBp3OgH/nh+gRUMj8ReeiR2r6jn8G7fH5bD9TwaPTJ/Lj/z4lqO8UOntXMm/2AnwHPYvV9i85WnjhFvLgwc8RnrOUP3bHmwShZ7ieeXN/MWOQbBj6yP9RuHc2fx9Jq0HTkCAYLAIZP/UeVn/3LTnV9x63Xk9wFxtZusUokRc7LLln2vMULnuDPXUiote2Ha48tbERhRSnW7IiSwEyPU+1LmL5YVtS9BK9mxQTqlfyTZyF+Ro36HmmTRGHztqwraB2QWKnoEIiDDO7AAAgAElEQVTaV9QXBDTlfBRi4O2jGkx3GknPpDaFOKVb31mCoLJQ03vQvRTk5ZrWIDiUVTG2Q3cT0IYiCJGFudiZIgjd2LZhLUWFtQvK6jbvP40gtB8WwmuaTIb+UhundPRwZsXjGoa+nkSHfj6MdipnwiLzSl6DQcaSN0L49KtIEuzt+Ol+J/p/0vCCsI7Dm/KyRTr3Lq4tu4uXC8sftWDQa8l89nIIc786Q6ytDb9MdmPIB7EEd68VhI/vVjPym1R6DQ9hSH4y/7el1CQIur9PM6MxgqDUsPANH7555Qy7zxv4LxdB8PWxZmofJwIdVWiUMiw0Ck6tOslzde6jVyUINg6sfunyEYS5H0WysaC+1Mg9bNk83Zvc4voDXEVWEaPmXGpxpUTHMc9jeXARW07XX9BmbM8Hn3yVg7+8TWwOWFgFM2DoXVg7e5O+7Wc2HY2p7m4NC0LAoBfoyWp+WH2iplva+/bn4RF2fP/FEjo88BTWiX+xfk/tL5ze+8jLZPy9gD1Ryais3WjVvS9NvJyxUKmQKdXoMg4xf/GqmvT+SQRhcB8n5s2af+E8vSTh4BlGp27dcLK3RqlQoFDbkLT+ddadMJgEIaTiEMs3Vje4zIbJzzzFylnvkVUCCmt3+o8chZeLLRkxRzl6aB/JyWnmAV6S4eBlTLsrTnbmtJVqG+LXvc6GkwZ6j30W3bHf+fto7EXv1LY+/Rh7nz2zP19CQ3GdiwnCQ9Pf4vAfnxGZdE6+FAx44kXyVs9hd1w5w/7zFImL3+Jw9eATcNdY2tuc5dd/sMCu8cPNJaYYjn7LmoNmybVyC2bsqMHMnfE5VTqzIIRp4vh1Zf11WMZzuzz8Ko6x81i1t7b/h/UcTzPrGJatP8r4Z15k1bdv02Hog8i0diT8NRu7Qc9z+uf3ydXqsXLyp133Xni52GOhUiJTWVN4dAFLN8eYBKFLQAYLF22qqWLbwdPwqdzH7xsOXFIQZCGDmDa0LSVl9SN75fGb+WX1pWWs3UNv4XriTdYcb9wUceP5X/2ZTk5lPOtp4K3jGqytK3kmUMebxyxN0bQpLQtJS7ZmdU6tDNwbVohNnoaF6bXRgoYEwdWriKkqC96LM++SMh49QgtoX2R1Zy1SNFY8vFVb7B0cr2ibY3jLtmxZu/KCbY7nYP5TQWg9JJgPHHMYMD+3Zqueo6czKx6xYMibKXTs58NDDuVMWnyhIByQLFn/pBdj34ki0xR6r3+0HRrMu/bZDFyQV5O2i48LyyerGPhGCv+73oJgoWHJqz589OoZDl2BICgtLVn1ojcvfB7NkTzzRTrkoab0iInkv/v/YQTByoFVr9gz+tU4zMs2JJ59KhzXXXWnGDz59JVoDpzHVO5hw+ZJrvR5N4aqKwo/SkSM/C++ictZvf9CmRs06WUyd81hf2Tt3H/4oOl4Jq+7rCD49f8v/Sy3MPu3g7WC4D+Qh4da8f1XS6sFYTPr99QKxNBHXiZt84/sP1vK0Gn/oWTbLP46Zg5x24ffw70tVNdMEAb2UvHD7N/qbUM15qOya87kqQNZPusLMovN88Ithr+IZ/RHNYIQVH6QFZuqB4LzBOFcZQ2SkrBOA+nSuS1p+5exdvsxLBxaMHlKf36d+TnZ1fsyW414EdczH5kEoeeY/0MVtZYN+05f9I5tFzCIMYMtmP31b1csCMdWfcHJ+HPRJwWDpr1I5qrv2RdfYRKE+EVvcTTb3I9NgmB7ll9XXf0K/MYPO5deg3BuF0NDghAkO8WK9XsuyKrzqJdxT/mFFdtro5jhvSYQZhnF8tX76Db1DfJ/n09QRy8OpTvS2i4TqXlXVs34hCrJgzHTJ3Js+QyOJ5kfYtx7TKO7fEOtIPhnsvCXjTX5thn8OF5lu/nzryM1nzUUQZCMgtDNgpnzlmNo4G25F2cmo+uEN1Fte40tZ2+ehYrGqMD/tS1mb5Q1Fp4lWKdZ86dxpSkwuUUh2WlW/JElr6nWsLAiLPPULLqMINh7FPOcjYpXo1Q112jvsEJaF1nyafIdtIvBSE6pUtG6QxcO79reqPcgxMp0lBYXU1x0YSj2XEvIjOJ1kX6kb8xuGRtb1j/vzn8/i+Z4vnEwlBg3OYR+6YmMWV1Gn0sJQj5MmNSUAWXpPPxLQU24tHNzG3afKEKytWP9c24882k0JwvMaU+YEkKflATGrCln9vUWBKWan9/yZ+kHp/m9ujOf43apCIJdZx9Wtijl7u9yzHVSq/jhxWByVp/4x4JgjCStei2Qpz45RWQByGzULHuxCdErLi8IyFTMeCWIhBVn+OSEOYpgnMOTjOLegKDVvQlZtn6Y0aGZfP9L7dPQub83uWs0Pf3L+HH+cnTV4tFYQVA6dmHK5O78OvNTckqMZVLScfTz+CfNY8m2NNMaBN/yo/yycqu5vDIXJj89nU3z3yNJ0ZQnRvVi1hdfoq3Ot83gR4mwTrnugmDTcTLjgqKY+fN2841J7cFDTzxB3vrXGiUIzgHhZMfVbt306ngf/ZpUMG/Rn9h1nsKYgEhmLtphTlvjyUPTppGz7jWTILh2GMV9HaxYNGsO+VrzxWthbUVFce3ctK1vf8aN8mXOp7Mpb2DW4mIRhG6jnsEzfxe/rttrSlemdGbSU0+xZt57pORqbjtB8Gk9gn7tbZkz+8fq60HD4Eefo2DH1+w4lYfTXdPp6lhAfsx2duXYMWbY3UiyAhbMnIc+aCBP9LTm29lLzP1epmTwoy+iOfNLjSDc3VzJnO+r05bsGDntGZLWfcL+2Nq2anCKQeHHuP+MY//PHxGZbhZQ42Ley3q9hTtjnpzElk/fI+WKxKLxmna1Z/YMLKaVWsJBBW8dsapZsNg9oJjuFnLej9RU11PPC+0K2Rply96iS08xGORVfNSunK8P2pBiDEfIdbzcroiqFGs+udMEwUhPoVAg6Q2NEoS9WSnob8B2rUGD/XismZJ9USVYu1gRYVvF+C8SyNKaFyleNIKQDxpbNV9ND0SVXcyh1CqC/K1RZuXx1JJsjJfF4CH+PBqmYG90CTauVjSzqmT8l4lka+H7fygIHTs4EGYlp393NxKPpnMkU8ui3XWnYiTGjgtmtIeOvYmVBPtp+GJONPuyDZdcpCi3VPPH8/4cPpxLTKlE92Y2qFQqMrecrBYEOcN62uProGFYCysWbs8m4Uw+f6WYB+2WLZ1o7SjRqoMrjmm5bE6qIiWpmI0xFaY9+089EkJ3VTlbYysI81NTYWFF5Y5GCALgF+TAd+PcOHmqgNM5Opo3tSXlUCqf7Lr0S4+MA/PY6VPZvfgzYjPPM0eFFV2HTiDESU9CfBIyGxf8/Dw5sGI2R+OzcA/rhreDEq9WPbDMOER0WgH5qWeIiU83hdOb9ZtKR38lifFJaFz8cVFmsejHRaaBzSgI3poyDFUV5BXr8AwMIXP/L2zYGYlOZkWvsU/iWRnLqbMZeARG4GBnjSL/pEkQJLmSlu27IJc0RHTpRNrhLeSUaYnatYPCOnfaS61BuFgEQWETwORHxxB/dA85FSqCQoKQqxzI2fbWZQUhs9SSHg89ToCmmMT4BAxqR/yb+HNywzz2R6ajtGvC5KkPc/bIbnKr1AQFNzGlnbX1LZMgIFPT6d5JRHiqSE1JRdI44umqZNmcmeSaJAuU1p5MeWIaOYlnKMMKdWk0S/8wrmyXE9ixKw4yJRGdepB2/C/SMrM4dswsK3JLD4aMGY+6KJn0vHK8g8LJ2LOQvw6eRWdapHj1EYQw7xIme+lYGWldb2658QPOtY8gSEpruox4hGCrQuKTs3D2DUXK3Mfvf27BuDTEYN+Txx/tw4b573M2Q8HgJ57HJXsDPy7ehl7hyH1TH0OfepyErDL8QiJQqazRx9QKQs9QORV6JZk5xTj7BqFN3lWTtm2TLoS4KXEKbIOHPIcT0QlUlqRwrHpazrf9MO7pHERS9GnySiUCwlpw+PcZRKVf/IHPrVk/BndxYe73CxuP9QadaWFVyVsRpcQkWzEnuXbqQC7XMyasGE+DnKgSiUBHLXlZauYnqUzRL41SSzdXHd6O5XhrlewplHM6w4Jk0xIQA4NDi+mghphiOY4aHTlaPe5FVnemIJisXpLo4eFPM0cXjD/cdP6RUJTP9vREcsob96a7a9E/QgJsCHNVUlVWxZ7TRVSv6cLXz5oQCx2boqr3PRoXMXa059CRPDKqxxlJIadbuA3OGons7DL2nS2vt7DqXNqVZVXsPVVEbvXaoN7t7Tl5JJ8ClZL+zSxZub8ABy8bWmsq2Zcj0c1bzupjJXg3sSegopjtyVpaRThgSM7jaB60ae1AE8tafpXlVfxxsP7FZ3zb4V3NbbCWGYiNLzbtSjA+1YU3c8Q+O5ddF1m8bXwbYmc/NTKdjqiEEqqcbfDMy2O76XwF/brYYVsncpMWl8+OVPPN3Zh2M/v6YZ301GK2x1UDk8no0twWFwuIjC1C4WmHa14+W1KMj4oKBnSx5tDufDIuMgVp66imc6AGKzmkZ5ayL67igp0JDfWJsL4TaeuQwdKlay5c+CZT4eEXhKO9LYaqYtLjo8mt3oDvFtIBd9v64b6ijBjOJtVOSbj6heHqZIu2NI+E6CjO7QTzDG5JaeoplM7BuDvZUJqXTFx8Ss2aALmFLQEhIVgqJApzkskqVeHrKON0VJxJEJq1bIfc+BakmqOKuAP7qdvKVo4B+LobOH2q/nY9S/sAArzlnDxxbh1FXSoSlq4B+Hu5IGnLyEg+i+QchmXufhJywCkgAnttBrHn6iipaNa6JWeP7zdtoZPkFrj7NcHJzhYMleSmxJKadU5OJaxcA/A7l3ZSLDKXcDTVaZtKIalw9w/G2cEafUUxSTGRFNV7I6KEtUcwAR6OVJXmkRQfS0m56RELv9btsTe+XrL6qCrJ4dTpMzX/l6vt8AtsgrWFnMLsRBKSMqrDtxYEtmpJ4Zl9ZFdfzrZeobipComOu/wLwoyr1Z9qXsLpeON8c204ufH3H2eat3Uj6uBJ08OD+ZBwb9YRdeYx4rPM9zulpT2hIQGcPHrY1E+cfJthL+UQm9DwQlxJrsK7SRgO1mrKCtKJj0uo804Ua5q1bcrZowcp04JLUDscKqKJqp5SsLB1wz/AD5WkJTc9ngKlLx7EEZ1UgJ1HU6zKz1Ks8cfX3ZHKokziz8ZRWb0EyDagPQFOtQOlsexVZWmcOlk73WHnFoCnhwsKdOSlxZKSkX/BdNc5Ekr7AIY/dD9nVs3kaFJx47HesDMNtHCtIjNHRfp563zlMj1N7bU4qaCgTM6pAnnNPUmt0NHBpc6CUINETLaK1JqPDDR11OKsNJBWqCBPqSXYoGBfnehDQ1W8rV6U1FAFNXIlAbb2OFpokEsSRVUVnC3MJ7/yJnnz3g3reCKjG0JAbsvdD07GofAI69ZvEa8tviHQb6NM5FqeDK3g19OWZNyGL/L5N1vKxi2Y3kPupfjkWjbtrl3Q+2+W6WbP+7YXhJu9AUT5bkMCClu6DR2NW/lelq85dBtWUFTpehHoFFCCNlvDgcs82V2v/G/XdI1rE4ZPfJr0g7+z54a9tOrWpykE4dZvQ1EDQUAQEAQEAUHgmhMQgnDNkYoEBQFBQBAQBASBW5+AEIRbvw1FDQQBQUAQEAQEgWtOQAjCNUcqEhQEBAFBQBAQBG59AkIQbv02FDUQBAQBQUAQEASuOQEhCNccqUhQEBAEBAFBQBC49QkIQbj121DUQBAQBAQBQUAQuOYEhCBcc6QiQUFAEBAEBAFB4NYncNsLgqVCSYidI85qK9ObFAsryzlTkEtuxbnXGt/6jShqIAgIAoKAICAIXGsCt60gGH+Loa93E0LsnEy/y3D+kVJSyPa0RDLKbsb3cV/rZhbpCQKCgCAgCAgCV0bgthQE408+o9XdVL/meGXNIs4WBAQBQUAQEAT+XQK3nSBYqNW0bN+Jwzu3N0oQYmU6KsrLKcjLvbAlJFBYGn9VDvSVoBO/7/Tv9laRuyAgCAgCgsANI3DbCULzNu2xtbNn/9bNjRKEOIWB5q3b8dfqPzAYf9GjzmEdBHYta6cnsrcbqKj99d0b1kgio5uPgMIxAE1JHEXVvy5985VQlEgQuLMIyKw8oTS15mfO76zaX5/a3laCYIwe9B40jPzcnCsShLadu7N94zoKC/LqUfYYLCNrux5tATi0k9BXQcHR+hJxfZqlNlW1ixXfjfYwf6A3UFpSxebdmSw9dQ3DGZLE6/8XQveSfAbMyqj5jfHL1S2whQtv3G13wWmfL4zlSHbjOBksrPj1VT+Orovn/Z3m36o3HmpvO96+2xaNlYogWx2DP45H17gkL1fsf/Z3SU7boVNo7a5j7dJFpOTWlhmVI51734O3iy35KafZsXkbZQazYLbrcz9u9pa4+vlzYtGb7E+7cF1MgwVT2DHq2f/j2MwPOFV05W0udwigf++uyOSW+Prb89PnH1NYac7Jxq01QwZ3byDbKo78OpNTRY0s4z8jet2+rbTzomWIJwf2728wDxuv3owfcxeLZ35A9lWwvW4FbyDh0N6jaOPv2sBfCtj403wMPt0Z1ieEOd/NvZHFumxeBus2TH2sIys+nUkOF/Ynma0XA+7phSSp8Q1wYvHXH5F7levHHSKG8WDvUHb/Ppuj8Q1EhC9b2lv/hFEtCmmjU/HSSTW6S1Qn0LeY+/RqPk5WXLLSt5UgePsFmKYX8nKy2b1lI/ZlVViqVJRVVWKtUmOv0ZBWWIDeYMDVxgYrOweSLWQYBSE9OYmDe3bUg+U5QiJ9lcE0vWDf2ty58w/f2FFK42HD6skePLMwGeP1pbG2YOoAN05tTeCzvVd5JTXQJZzdLXHTVXAy61Ldqv4Xwzp68lE7OW+urX8xxiaXUFA9CDXmkgsNsCI/vYT0BqoT0MSRmffZ3iSCIMO/xzh6++fx6+LVFFVoa6ontw9n9PhhxO1dT0JGIQ5+rWjf1I6Fs76nvGaRrBUDn/gvWb9duSAcmfEBkSVXLgjnCqiyDmLKtBEs/KJWEBQW9nh4OJlOCe0xDMvUgxyKTgIM5Cefpai2eo1pxpvuHJcW/RnUXM2Pi35vsGwyhSU+vu4kx8eh09/Y6/pKYdm4eGNvZWHUOro9MIS4JYtIMd2StGQkJmAbYBSEYOZ8N+9Kk76u55sFoQO/ffItuQ0sFj+XuUzhxZRnxrBsxtULgvEGae/TmuHD72Hv799zKjHnutbtZkzcVqPFARkJZbJLFs8oCCN0aj5NuYMEISS8BcHhzeoJwsDwlthpLNkTF0N6UQGDm7dGJsGGyBMUSnoUHu4mQagoK2fT6hX1oHqNlJH2px7HzhIWzg3zTlne+BtLaJANLT0sqCqrZPuxQrKqB9HAQFvCNVr+StDSt4UNaq2WdYcLKKwCoyCsmuBG7w9iagrQuZsn04P1jP4hveaz0CY2tPS0oLK0kt0nCkmvE/q2sbOgVzNrrNCz7VA+nkF22JWVsSm2AmsbC0a0szWlkxmfz7q4qpo0JUnBqB62rN2dT1ioHf42EsdP5XMiV286xygI7zTTc9+82nLUoyRJBAVY09rLAoVBT2RMIYfTa0ediFZOtHYwd+T9B7M4XXgh44YFQc6QXvac/DuHs9X43byt6e4Cyw6bd6V07+KELqaAWElJ1yBLlDode47lk1D9wK+wUNCtmQ1e1jIyM0r5O7qMKnO1LnpYODRhwqT7Wf7NJ2SX1xEpmZreU16gYtssdkRmVH9fgVfTpqScOVknvYsLgqRQ4xfSHCdbDSW5ycTGxJnLUx1BODLjI0q8Q3Gx15CfFsvZxDrMZRZ4B4Xh6mCLrrKIxMij5JXVr0xDglC3oh0eeBK72A1sPHimXv09Q9thVZpEUoGcoOAAVJKWxMjDZBeZO6/SypnA4GBsNApK8tKJjY6h0hTqUeDfriv66B0UWAbg7+NOeW4iZ2IS66Xv4heOl7szkraMjMTTpGbV7ipSWTsTGBSMtSntNGKjY6vTrk5CriEgtBkONhoqinKIizpFqan7amjRqSMu3mH4O2g5djIag17H0f3bqTI1m4rgdl2wV4HBoOPYvu1UnufFClsvQoL9Ucu0pMdHkppVUJ2pDS07RRB7+AAOAc1xsbUgI+YIKVf72HvpLtfAXx0Z8dzjHP/4XaLrDLjOTaoF4fvFhES0wFJRRVzkMQpKzl3P7rTu4k3k/lO4BoXhZKehODuR6NhEzs2s2nkEm9pJqiohLvIoBWU60LjQJtybQwcP1y+L2plW4d4cOXTE9LmteyB+3p4oZTpyU88Sn2y+Ds4JwsoZi3EMDcNSpSM58giZ58JY1aleShAUVq4EhTRBozCQkxJDYmr2Jam5tR7GkHZWLPlhIUXaWyMKZmVTSRe1jE1ZCs6NKEq5jh5OBjZnKjBezTKZgeaOVbiqDOSVKjhWIKeq+mQLhY4e7uZ7a16hkv2F5wuCgaaOVXipDeSWKCi0K2OkTs0nd5IgNG3WkqCw8BpBcKqsYnRbcwg1LieTE2nJDGnexvT/bTGniSzMxc7fzyQIlRUVbPzztwY7nnOPfy4Igwb5MTFExs4zpTh6WNHOSc+kz+NJq4K+/XyYFCAjSyEnOb4UnxB77JLSmbI0H3ldQZDAxlrJ+Ht98MrK4qX1RabyDhzoxyg/A1tOlmDjasU9gXLGfhpHnh409pZ8MdmLhNP55FuoGd7SmhOR+Ww7nseKk+VYWVswrI01Ya1dsT+VyPSNJTUMZDI1q9/243hsOYaSKorVFtzlI2Pke7EYx/LLCYKnnz3/G2zHjqgSSmUKerW0Zd0fcfx8xnzTCo9wMAnCkJ5uLJt3kmXJF17MDQqCZMG89/xZ8mok6/Xm77Tq7MFrzWHk92kYnyRef7EpmsgifAPVnIotQWmvoY0hj+EL8kGj4t2JvsizijmUpqVdK0ekqDRe3FBErR5d2BV8Ok/kbvfjLFhxoOYiNp6lsHHnscce4Yev3qWk4lKW0bAgyFR23DVyEu5kkJiah0dwC6T0PaxcvZVKuXGK4VmKolIwVKVRijWBwUHEb53P5kMJpkIG93yIlq56klMykFm60rylHyu+/YKsmsEBrlYQOoycjg95WLi4kh0fjVblQoB1AvMXbUYrt6P3w+NRZMeQk1+Co08E9hXHWfHHVqpQ03vay6hO7MLK24WsnFJ8m4aT9Pds/j5mHjwCuz1M9xA1J4+fQmbtQVjLFuxY8DGxuWUY5Hb0fXg88nNp+7bAvuwIK1ZuN7WRXOPKvRMfQ559hpTMAuw9g3BT57Jg3iK0BqMgdMAjoAVelsUcP33WLAgHdhg3Nxm1hsDWnXC2daBDx1b88MXblNSJeFm6RTB69GCSIo9RarChSZAfx9f9wIHoTAwGLyY9N46MsynIdcWUyuxpGuDMwhmfUXi+ZVzx4N+YL1xcEEYMaENqKVSkxKJyDcKNBBb+tAJj1QyG1jz6YjfS43Wo9Llk5FfgE9yUdd9/Qm6VDt92Q+nT3o+46ChkNt6E+Fnzx4/fkVLowKjHR7BqxgxKZApGjn2QDYsWUezYkgkDwvhh/mIMSh9Gje5PemIcpVVyfEIiKDz8C5sOpZgF4fGeZJ3Np6gwHaWDL0187Vn1w1ck5tROz11MEGTWfjw8dgTpUcfILZURFNGK9J0L2HbynIhfyMxgkDNw0osUHZjLjuMXeXhpDOobeI5BUcX7bcqZedCaFJ35nubuXsJouQWfpSiQy3WMDivBSSsnukRGiHMVZblq5iaoTO2rUujo5qLFx7kc23xLvk5S1iv9vaFFNJXJOFkox922CkvJgDrf8s4SBN/AICLatK8jCFpGt+12UUE4U5iLbbUgZKWnsW/H39dHEKxtWf+cK09+HEOUafyVmDAlhL7pSYxZVUqffj683FbBhI/PkqCVMCitWPWGJ8+/E028ow0bnvSjrPrxViGXSIvJ5rH56RQZ57flata86smjH5wlqfomN3xsU9oei+LVowaGDfWjY3keL20wDukS06aHolsby3ex9ecARoxpyt0ZyQ0IQhA/zo9iSXQlyBR8/loIR78+yY+5kkkQvhvqQEWdxQH/mxnF2jpRgrpAW3Z054UwAw//WHtxGwwSX78Yxrafr0wQfnjPn8WXEYTeFlqe+F8MJ4weZZQrhYGiKol7h/vTvSyP/64zPxUan6CWvh7Ku19Hciz/YncFOd0nvIZh8xvsSKwvMhonPyZOGM68L77AGFiQqzSoVebQXUVxUZ01HQ0LQmDnB+kWWMGCn82hcINkw4jH/o/kzV+yP9bAqGf/S9HaL1h9zBwydQnpxX33RDBrxlf1RMVcconmD7yJb9QM1hzJqqnMPxGEDv4a1sz9H2fzzY/ZSqVE1blHlzq4DAYF909/iSOL3iYmT0PvJ14lqHg78xasNz3p+LQeRq8IWLDAXM9BE1+k6OhydhyONi8sswpAWRFPlfbCqJwx7QeefIlDP79NbJ6c8BHP075yDT+tOmZ6ugIZvuHNSTx1rKZEYb3G0cwyjmWrtzfYqGp7f6Y8Mq6+ICjsGT79GTKXv8/OJHMYzrlpT0b0CmHOrNnoDF5Mfu5xTq7+lr2nU0CyZOB/XiTv1w/ZbRydr/txcUEYNbw7y796j7RKCYPkzqhnJnFkznucKZTMgvDSfSRtXcja3afNpZSrzVuzNCGMf3wY2+d9ytl8I02JpkOeopNiL/N/20OP8S+Qs/JDThY3Zer/jWfjgg/J1EQwpI0Vi5dvvKDG1h7hjB7ZkznfzERr1YapTwxmx7z3icwyPuHKaP/w8zQr3cL83/fW9N+GBUFFz8deo3ztZ+xJMF+Ylu5hjL2vN99/M+OSixFDeoyhpU0iS1dtu+4tcq0yeLRlAXFJVmzIVYBkYHLrQrYesSVGL9HVv5jOSgWfRqvN9wiDnhfbFbI1ypY9RbXRgk5BhbSv0NQTBIOygo9aaPnwkBX5xktL0vNU+/ffGkYAACAASURBVEIsUqzvLEHQaKy4e9DQGkFwKKtibIfGRRB2bdlEXk7tDbVuo//TCEKrIcG8a5vF4J9rRx9HbxdWTLVgyBvJdOznwxincsYvMudvMMhY8kYIn34VyUmNDasmutHvw1hzkWQS/50YiHtGNk+vzEfe1octI22rn4zMp0gyiaLDcQxdVsLI4X50KM3jhfVmQXjyKbMgzDQO+HWOiwuCH099cIboarF5cnoYVhtO8mGUWRDeaa5nVJ0BX6cz1A5akkSvu1wZ39YOb3ujBUvkJuYz8ruUmpyvShBkFvzw7uUFwXJ7Ii/WWfh4LtN3pzelu4cCXZ2HfYVC4rWZkWxNutjEuw0Dn/wP8bPf4VTF+YIQwMQJI5n35aeUa6FJ5wcYcFcLoJItn73FyZowZ8OC0GPMK1hE/sCGA6k1XFoPfATv8oP8uS3GtEjxxDcfcqK4epGGtS9THx/N6o/fJ1WSMMisaNtnKM2D/bG2VCPJFKTvnMHyHcZoivn4J4LgU7Sf5Rv2Nngf1DgF0vOefnh7uKCUy5HJFWxe8CqnUi3oPe0VDOvfZXNs9UAb3J2h3f2YN2+hKS274D48OLwHhpIsju/+iz0HT0CdsLnGuQk9+xrTdq5J+6/5r3A624nRzzzBns/fI9Y8Z9Dg0aLfZAL0x/lj474G/96QIKhdg5g8eiSzvvy4dl2CwovRz4xl+8cfkIA3k54bz/pZ75Nqmg2R0X7sW9gf/IiNp27ES9cuMcXQN5Q5s76vvodIDHn0TZJXv86RlGpBeLEff3z9IRnneYxT+wcZ2bSE2QtX1V6XmvY8Mq0lv342B7feUwkq/J2/qvrT3ccBReoqjlQF08Elg5V/macY3Jv1oGvHNjg72CGXyTBUFvL9159SZWmMIHTij0++Iat6kaLBZwBPjHBmwZc/cY5Yg4KgduCJ/zwLej21dxUJSVtSv30aaF3XVoMYECZj/i9/XrR/3Gx/8HYv5XFHiVdOqrG1quKl0EpeP2xtkuvJLQrJSLVmVXatDAwPK0STp2FRem20oCFBcPIs4nG1Be+eVdVUuWdoPu2KrO+sNQjG2rfu2AWNpRX7tv7FKP9wnKysTVAqtFrKqypN6xGMR3FFOQeyU8nQqIho04FNq1ZcsM3xHM1/Kggdh4XwunUmgxbWEQQ3J1Y8YcnQ15Po0M+HhxzKmbT4IoJw3hoEpastfzzizIR3Yinp4sefLcp4aHFevZurvkJLVpkBtYMVsx/3ITO2gDwLNb08dYz+PJGM87bnXVwQfHnivSjOmsYmCaMg2Gw8yftnqgXhYmsQJBnPPhaEf3wan+wtp0IHbiGOvNlGzojvagfCqxIE0xRDAMvfOM3qqupdAl09eSncUG+KoWBFHF+euXAf4odPNSVhbxK/VU91nGvn/KIqUzkbPtT0fewF8pa+yYGc+oKgsDVOMTzGj1+9Q3HN2gQlPSa/RM78tzhxGUHoNe41VKfnsn5/LZeW/afgpz3Cyr+jTYJwdMYHnD63SFHjxYTp41hvFASZCw9Mm0ri1iVEJuWaBjXXblNpXfTzNRMEp9StrN19/AIs7s36MqCLH2t+W0FpldYUien70NOcWfV2tSC8TNXq99iWUEcQ7vJj3lyzIBgP1f+zd5bxUR1tH77WPe5CPLh7seIuxa1AsXqhrrTwlLZPoUadFitQ3L1AcfdigUAgSlw3vtk97293oxAg0PK8FPZ8S/acOTP/sWvu+545ajsc3Xyp17w9IV5a/vhtlsXF4Fm3C12b+7B17frStLsMn0zYhv8QlurMyMkvcmLWdC7dvsJo2H0CPgUn2LjrJv958bsrAwSVewhjh/evOAFJPBn6+miOzPiM64IZEEay9cfPSbBMtFZAcDz1Odsv/D8DQrkgRXO/6vXsNOI2TykHCM1YMWO2dRVZ7nJtPpz+IXpmLy6bTAVZIyZObsLKmb+grNmFjrUMXNG05fKGNfTt7ceJa3a46new92w6DQdPokb+CbbvP0eh0YjcsRqD+3UtA4TnWrB25g+kFsOf4N6B54d4s+jbRZQ4NCsDBJHKiZcmvcba32aRUd4HJJjI1lvdq7e7PBv1pmOwkcUrtjxsHHDb/AgiI283zmHHBR1yzxyCMtUsSbUCwYT6mcTH6thU/Lf5f71r6rFPV7L4LoDg4pXNK2o5H14tDwhZNNGrHz9A0Gh1mM9COHVgb5XOQbgmNiESiUi4EXvbilO6g9hq2bnlyrW6ge94STyd+WOiA89+EUFE8Uq826AgJooSGbhCT8d7BAStjwNrn3Fi1H8iiHdwZPtrLrw4M4Ir2daeb6ZtUTGty501zOjtwLqT2UhMJs6E60mtxNH+TwOC2FXLn8970ndaOFnFA0O3br5M9DP+fUBAwufvVSd59UW+KI6pGzEogP4O+VUChGeGB9IsP4Pn15TffWGxvd2xHmv2eZ066ctZuf+mtmIJUnwH9bnFbDp8tdiCUnVAqPHkGJp6prKodLWjoMe418k4ModDlwssLobkNV/w5xWrS8TOrynDe7dg9vffQWgfXmgrZfacNVZXhlhB5wnvYXfh5wcOCE2fmoR76h9s2nfJqpsmgFHPjuPEsilVAgRPFzviU4ojU0USmo74iMDYOSzfE02z/pNxSdrKlgPFFawJZPSzYzm2dAph8RIaDXuLugW7+X3tYUo8ElKFnKKCMstY/W4TCBJfZM2Wg5XWa6UuBoUrw198kWurZnAk2rrU1vk1Y3jPJsz98UcMlhiERwsQRI6NGDemPTvnzyIyw9yKRHi1HUs3jwgWrNiDwrM2w5/qRJFCz7JZ8+g29lXEOXou/TGHsBx7np/8Jutnf8qNDKteLjU6MahrgzJAeLEru2d/TkSx+yKox0u0lh5j4Ya7uBjEKvq88j45O7/nz/PlYglEgtkPd8e+agFswxk2/HnibsPzQ/V7txA9foIUZ62Rr89oKdnY1Tkom7oiKV9dLXMxvNpIz8lrOvZn3sXFoCxgZh0DM09rsWxSE5t4pXEWingtMx+nbY4lNa1UqTAWFFYJEI6lxmMserD7ucwHML04KpjWqgKWndBj76FlRAMlr3wVQXi+NUjxThaELRM8mb7O3EFEKJQSuj/hgiEimdc2Ws9tePHpINpoClh2JIsMQUyHZk4s/e0aYYXgU9eNH7po2HhKT44RTEVGrkVlcyLOYJnIVCoZjfwUtHjSh3oZKfxyJo+r13MsFgZrkOJ9WhDkMma8EoT4QiKrIwxUC7DjqUb2yNMySwEhKFCDh1zMhIHVuLA7in0JRo5GWLuE1kFJfQ8p7p46nm+l5uPViRhNRZy4nI95PdqsjTeftpLz9ZYUlO5autfV4ajXVwkQ1K5avn/Gm8TLqey4WoDCTsnwWiJemJeE/g6bUhz82jC0dw3m/jQHw02HMkjsQxg6eigpFw8QeSMdtUs1GjSszp/fzyDaKMLDLxSlVEXjnv3JOrSEKxmQFnONrAIDUp0XPYc8jfjGCS5GpeFZqxXekkjWrthErtieoa+9jjElkejzJ8gV2VG3aTOSjq9g59ErCOogRk8YRMTBbcRmGPCp0ZygAD9yTlsBQap2xMfLDZnSk849nmDPhtXkGvKJi4iqEJB5u10M5iDF21kQ/Jo9Raf6Tuzfc4AiqY6GrVrh6uDCviUf3hUQBLEbI54fQ3LYMaLjU5Fq3WnetiWHFn/BpcQ8/JsPoENdew7sPWhJu1Hr1rjYu7D3dzMgCEh1/gwZO5bcyGNcjUpC4xZEsKeRxb+tKB3w3ev14Kn2NTh56CAiez/sE3ex45w5Al6BZ5A/Oq07Xbp1YOf6paQnxZGYZrUAOIZ2ZEifJpzauwt9kYp6zVuQcHwVe09eKw5SvH9AaB6gp7+TiM/OaMgoDka7txnqLrsYirc53osFwfz+Oh1H0SRAxsljJxHUnjzRojY7l8zmWpIezBarV55HOLuQ37aG06DXs7QKgt9n/UyGWMmTo9/ANfkoJ8JiULsE0LBpA3SSojJAGN+B5BtxXA+/gswpgGYNAtn22w9cT81GorTD18cTkdiZrn3bc3DTKvSFBdyIiLQE3ym8WzBy8JNcObaXuOQs7DyrE6SNYvXmk5XE31iVFCSODHr2OS6tn8X5uP9FXMi91eCd7razL2BKzXwiE5T8EGne1mq9FIoinquZS06GnDPZYqq7FeBZJOOncKXFCiOTmAjVGanulUeIQc6mZCnxWVLMG87M8Qqj62bjViTlUJoEL3sD3ioj8jTN4wkIZkHNX24cEFgLD5XWYiG4+coozGfvjUgi9beNSvvnat0SVyDQrrkbnUJU5GXm8fvOZKKLt7U3bOzKk9pCvt5bEjQn4t0RPqzZEEOUXMX0PiUHpAjk5xk5ezGdVedySzuI2bTbuqkznaqrkRQWcfBUCn9EWM0E/qFOTHpCxV8xhcglIFfI6NjQjh/mXWFnrBE3Nzve7OFYrqwCqzZEczTNDAhypo105cdlccQXL8z69K6G6nQ0y2PBt4YTo6oJfLK94gFTJYmZDzka29UNXzWEX81kT4qY4SFSpm+1BtsN7O9DcztJ6bvz9Pl8uNoawOhTw5lJLazuodLLmMdni5KwrPtFIlo1d6F7sJKoq+nsy5AxNEjCtM3mCUDE8ME+5BxKYH1s5fsSFFo5Q9o4U9NVRmZqLr/9mUL83Y4ZkNnRd8Jksvb+yp4L8bcOUHInmjzRCjcnHblpsZw7fojUHCt8tuo5EmdNWVnN/7uwfTURGdZJSSzXUr9lB7xddKTHXeTE8dNWd4dEQ9u+vTi8YQO1W3XBy0lB9PlDnL9SZsXQetWmWZN6KIR8oi4dI9n+CULz/uTghTTUnjXp1KZZBRkFUyp7V22y7EQpuaq37YP6xilOX61oHQlt3Ru71HOcCIuspD9I8WvYjtqBnhTqEzlzeC/BrQdz4+hiotPkNOg1BOOxZZxLstaBnXdtWtRxZ/sfuyx/SzTu1G/SFA8XB4ry0gk/9ieRKSWVIMW/UTtqBXhSmJXI6cN7qN52CDFHFhNTbPgRpA40adMOD0cN+uTrnDpymOwK1S0luHlnqvs4khl/laNHjxeDnSNtB/bBodxOsJSwXRw6Zz4DwnopPWrRokk91OICrv51kPAo6xGqguBMl4EdOLFpJekWz4mY0A4j0Uas4FTU3RoQ+Ljk8XpIITNP6rhReOe96pUIbjkH4YmBPYlauZS4cuOanWcdnmjgxbat20sfa9b9aVKOLeJaqjnfQfQYXJ19q7aQcxsI9qjRkno1AhEVpHF6/w6SsksWTkqa9BlIzv5FhKWL0Aa0oF2IjM3brcGfgqCkccdueDqoSI+/woXwOFq3foJtG1dTpAimVT0Zp6/k0rRlS9SiHM7s20pCljVtlWsgndvfdFiXKZ19qzZQMjLLHQNp2rwhDmo5GfHhHD9ygsI7WBBqd5tIfWU4S9ZVHnReua4Py38FegXncSVSxeWbtmjKpEae9CrETyUQnyVjZ4KMguK6tFMYGBZYLq5MEHHgupoLxR5WQWSivU8BAUqBsGQFcYpCWgtyliZVHJNuVuGROiipsirWyRQ0dHHHS22HVCwmNT+H0ymJJDwmX3H89o1Q1s0PZ1e5M0MmPxtCzuEYfj179wHtYek2D0s+pLoQRk98mmOrv+dCVJLtWNeHpWL+JflQyg18XK+QqSc1t52o/yVFefiyKZbh03woPRprWDtvNsm5VT+j5uErzMORo0ceEB4Omf//cjFmSKBl1X40LJPEAhH1a9jjbdAz5ocbJD1Yz8r/X6Ef8JsldiGMfGY44TsXcPhCFYJQHnB+bMn/WxQwMaJeNnsv6Ii9L/fCv6Wc/z/5rNH3XZ70iGHJb0vJKn+Q2f9Pdh6Jt9oA4ZGoxjsUQizCy0mOvUqM2aBZUGgkLqUQ8yFptuv+FZCq7BAb9BRWsmf//lO1PfmoKyCTCBhscPBAqlmiskeUn1katPpAXvKYJWoDhMeswm3FtSlgU8CmgE0BmwJVUcAGCFVRyXaPTQGbAjYFbArYFHjMFLABwmNW4bbi2hSwKWBTwKaATYGqKGADhKqoZLvHpoBNAZsCNgVsCjxmCtgA4TGrcFtxbQrYFLApYFPApkBVFLABQlVUst1jU8CmgE0BmwI2BR4zBWyA8JhVuK24NgVsCtgUsClgU6AqCjzygCAXS3BTadDK5IhFIvKKDCTl5ZJTVPFzx1URy3aPTQGbAjYFbArYFHhcFHhkAcH89YUGLp484e5rOWL55utCehKHEmLILar8rP7HpQHYymlTwKaATQGbAjYFKlPgkQQE88eZpCJxlb7meDix7AMttiZiU8CmgE0BmwI2BWwKWBV45ABBIpFSr0kzzh8/WiVAuCIY0GdlUJBv+3CRrVPYFLApYFPApoBNgRIFHjlACK1dFxc3D47v3VUlQLguFaheux57d2w1f7e0QstQeYFDYxFiORhzIfWQgMH6RWbbZVPggSogVjuhNqaRXfy51gf6MlviNgVsCtxVAUHujNyYVvzJ8Lve/kjc8EgBgkwmp2PPvmRlZtwTIDRq0Zo92zaRm5NdoVI9uotIPyVQkAhOLUQU5UDWuf/xJ0QVMsZ2cEZlDqoATEYT165nsT08n6rkROXnwPe9nZDLpXioiuj92TXyTWXFbNjOh5fqynF0UXHlz+u8vT+39EeJqys7XlYx7KNoEqvysnvoEjKZls1TPZjwn6tEVTIJuvvZM7C26pYUN+5LILpiNd32rYJUxW/v+nN80zV+OF32EnWAE9/1dEChlOIkKqTnzMgqaXkPxftbt/rU68iTT9ThzLZFnI9MK0tLoiawVj1cHbUUZCUS9tdZCgRrw6jfZRQ1vHRoXdy5suJD9kVXMQsiGX1ffpfEjbM5cj2xig+V3SbWeTFoQD9AirObmtU//JfEHOvvErkHzVs1RFzcdsueEog9uYvIzH93oLBYocPP14vrVy9XqptIWYfxLz7F9kVfE5VUxUZ7zzXwzzzgGtSI6n7utyQmCPmEHdhNgX0dxjzTk/nffE7uQxS2JahrMPbFHmz/6kviKvkIlljtwqDBgy3t08lNw8afPiNWf3+aKWr0YUQ7Lw5tWcmlmNT7S+QBP9WrVhZNjXKmXVZSbpi/5a2B1bIZgpLPoqV3zNEjBQiePtVo1KIV6akpHN69A4c8A84aLel5Obhp7PC0s+NiYjxGk5EQVw+KFAqi5SIat2xDzLUIzp46VkEs7/4i4jcJmArBoaF1lMs4/Q/PlHdrMDoVG9/yY+feNHJFoNbKaFXbjlO7o/jvwbLJ/G7J+Po5MG+k0y2AUPLcmAnVqXkp5lZAeFHB4KmxpNztBff4uxUQ3Bk3NYKYSgacWi29+aKljN9PVOzNu0+kcqPKxRbRo7UzUedTuJBxawaDQpz4rp/dQwQIIuyCnmRg1xrsXLGI6JRyk4rChV4jxqDKjiY6LgWteyBBbkaWzluIvrDk05wKOjz3PkVb7h0Q4tb+zImYpHusxXJTvuDKuDfGsfnncoAgc6Vh09qYe45bUEOcSOJSRJzlofhzB4nVP0QzzX2U3M6/CUO7NuKX2b9U/rRIReMnmnL5xAGyC+40XN/Hy//hR5z86hDk7QLIqd66DRnH9pFYaK6fQq4cP4TBAgjdmff1TPIeos/EWwGhK1tmfEOi6BYSLVVJEFwY/foEdv16/4BgTsyzTke6tW/A4TVzuBT38JmTPR0K8EfK4QzJHVuIGRD6G5V8EfcYAUJIzTqYXQzlAaFDaC1cNDr2XAkjIy+XnrXrW7Y7/hF2DoNCCu5uFkDIy8lh19YNFUT16i8mYZMJp5YiFOa+U8kVt7rqwOBoL8dFI8ZYZCLe/Mnl4jHDzk6Ok9RErN6Er7MciWAiOrmQQvPvZkB43ZfxH10u7QDB9V35saOaLl9FleaoNG2DifjUsrRLbvg7gDDi03gUTjKkgkBiWgHlx3W5QoKngwylBPLyi4hLL8JYThKRWIS3sxy1TERBgZGEdAPmsfJmQBBJxNT0VZAcn0dyAZgBYVqNIgbNv/2q1t5OjqtWjEgQSM80kJJbNgg7uypxlVsHjMTkPNIrWaxWDggi/L0VpMXlk1UsnhnKPJUQkWKd0Lw8lZgyCskSifGwlyI2CSSmFqAvHjjFEjGeTjI0MhF5uUXEZRZhqkIzEcnsGP3yaxxZ8jWXEsoPPiLqD3yNoLQdrNl1tjhXEmp17EHE3k0UlH5y+g6AIBKhdXBBJZdRVJhLVkaGtZ6KLQhxa2dzMcuIRinDkKcnI6scnIjEqO0c0SgVCEIR2Rmp5JdCiTU7QiWAUL671O40hmDRBdbvOF6hFyl1zqgkhWTmFOHg4IBEZCInK43cfKvWIokcewdHZDIJxsI8sjLSKbJUswitiyfinGTyBCV2dloEQy5p6RUHbYXWAZ1GjUgwkpedQXZumSVJJFFg7+iAXCop1cSadvElkqB1cLJoZioqICs9FYPldwlO7h64+NWnbQNPNmzYZnkgLTmOIguribFz9bT0CRBIS75R/P9ySctUONjbIzX3G3O+ckpioGQ4ubuQk5KIVOuEWikjPysFfd7/CqY09HrzLaJ/+i9ns/NKM6xxKQaEb75GpnNGIRXQV2gHSlw87MlMSkFh54hKKaeoIJvMjKzSti9T2WGn0yAWjOgzi9uQRI6riyPJiTf1c7EcFxdHUpKs/5eptOi0OiRiKMzTk1ncPksAYeuXP5Dv5IJMArmZqeQUt5+SAtwJEERSJfYO9sgkIgpys8jS33kF4tOkH90aaFk0bxEFpttDSSXTxW3/JZOZ8JBCTF7ZjjuxSMBLKRCXJ7ZYOEUiASelCZUYCorEpBaISq0EErGAl9raeAsKxSQV3povB6UJrUQg3yDGziOHAUYlMx8nQKhRtwFB1WuWAoJzoYERjdtYRLuemsT5+Fh612lk+Xvf1TAuZaVh7+9nAYQiQxF/rF9ZaQW6tPv7gFC7pTezetoRG5eHvasaWZae/t/GWCCgc1dfhnuYSHfT4ZlbiJOHiqsHInnpjxyESgBB6efIpkH2dPoi0pLfOq28+aa7HTFxeTi4qZGkZzHgu1gM5Sal+wcEFVEZSiSGIpzcVEj12fT8MsoyuQhyBXPeDMIxJ4/LyQbqhdpxdsd1PjiQZ2nQEoWMLyaHUE9h4GJ8EYE+KlKuJDN6cfItgNC3tz+jfQrp/9MNS5nuBggBoc7MH+nGxevZ5EhkNPKV8dlP4exMsBa6TXsPOrpJaFjLngW/XGBt3K0dplJAECmY/4k/Sz64xI7izt+wlRfv1zAxcG6CZWKa9l4Ncg6k0Ly9K8bMfKQ6BdqUJHr8lEoRIt6eEMwTdkUcjzbQup4du9dc5fPTdzenq4L6MbaDgdm/bqb8Ik0kVfDMy++xdcGnxKffKSjhdoAgIaTLRDrXcyHpRhKOnt6khW1nzZYDCMWAkH89AR9fDbkGKU6OGi6s/5o9l62TbeATg+jaPJj4mChMSnd83EWsmj2LpOwSy8X9A0Kt9qOp45qL4FEH+4Jk8iUO2AsRzP1pKfkSHd0mvoavKJW4+FScvIIwxOxnxYa9CEhpNf59tOd34dK0DUJuDvbOjlxe/wW7LlvhxiHkSYb2bUXspfMY1N4E+Xuwb9k3nI9OA4kd3Se+ig8pxCWk4eQdRGHUXlZu3F/sbhLRZuir1PWSk5iQgs7NB3lBFPNmL8BgVNGqV1/cnd1wd5QRFWW1ihzctpQsyzwvo3bHp/BWSwmqEcrqn6ZS3sMgoGLYS2+gKUpHX6jA1UnJ/sVfcDahAEFwZ8Rr44g7c5HqdYPRG+Q46wSW/jCD1Jwyve9l8rm3e+8ECD24GFeIv9aISemIJPMy839bbtFLEGoy9p0uXD+ZRs26vqSk6XF1d2fH/BlcSc5C69OQ4cP6kZ8Sg1HjiYM0nVVzfiIx14nBr4xm3dczKRSJaN+nD6c2biDTzp8JI3vz6w/fIcgDGPXCKEwZsaRnG/H28+Pqxi/ZHZ6NFRC6ExduwtO5AJHOA60sl/VzvyGm3KrgdoAgIKf3uNdxNiVxI7WQwNBAzq74nMPRtw9aFwQpnce+h+j0j+w488/YVgV5IZ83MPDlcQ3JxeO2vUsur2hkfBwlMzuX6V09m9Y6gZgcMX72Jk5f07A0SWrRXyUrYmC1Qpx0Bkypar6LMT9TdrUJyqaPo4nregkedkVEZIpxy1E9XoDgHxxK7QaNywFCESMat74tIFzOSsOuGBDSU5I5tGfnAwEEQaZm0xQfpn97laMpJiQyCa+/EEq1M9d4aW+BBRA+aK7g9W+vcSLDhMLBnrWvuzDp4wiuKCpaEOwdFbw+pBqOCcm8vC4D5Bo2T/Fm6jdXOZ5qTfvNF0PxPhXBy/vKJqX7BoRXXXj3m8scTTIhU8j47LVQNAfDeX6fdUWjVUnIyTNaGqlYKmXle4F8+FU4F7Kh/5BghkhTGb003RL3IJNL6NVEx/pDGUiKXQxjp0bQpX8ArWW5vLw0kZIx0AwIP3a3IyGrbFD8aUEEe1Osf4slInRSyCyw9qYn2nkx0dvAmCXJpXUoCCJ+eLcmfy66N0BY8Ik/v98FENopjXz4YwT7E4yIpGL8VSau6aFj92r0V2QzeX2aBdCkCimr3g7kra/CCb+jG1pEvcEf4hP2BVvOFTvxi0silqkY98pkVv/wGWl33GxTOSA4BT7JwJ61WDz7Z3ILTUiUrvQe+zzJu77m4OV8SwyC8tIGVu38C6MgwjWoLYP7tmT+95+TW2BCLFMgFQwUFi+v6/SZjH/yFjYdDi+n9a0uhvKd6XYWBDMgdGjqy/GV33PsegYCEswWtaws6+pVptJQlJdjnbTFavo++ypXlk/nYprMAgj1ZddZumAJ6XlG3Gv2oF9HB+b+8Dtmo0qrQa+ii9/GtgNhlrQUrvVQ54eRXmwCq5C2REO/iZO5vHw6YWki3No8S7+AWBYt4AboaQAAIABJREFU2UpekQmztaFO2w6E7dlqSdt8+dbvy5N1BRYtrmh5LC23WMe4V19n4+xygCCS03bcOzicX8rmo1eteoe0YkC3Rsz58VsMRW6MeP1lMk+v5Y+9pygSZHR//m2yd85hf3j8vc3193X37QFh7LghHFj+HX9FJSHIvBj00jNc+HU6F/QiCyCMe3c4uZf2s2bTTktbkdl5IOQkYMCNAS9MIG7jdxyNzDKbhajbfTz1FZdZvHYvLUe+S+76TziT5cHoN17i1KqZhOd5MrJPI+bNWWqBcoVCTkGBFY6VjgGMHd+fhd98iV5Wg7EvDyN83VccNAOtWEbz/i8QavyLRWv3lGuflbkYRNTp+zLVknaw7UiYxdKhcg5k7DMDWPDtTHLuwPR+jQfQpnoei5dsuS+VK3toUsNMTl/Tsi/TbHoSGFI/i0sXdPxVJKahTw7ddWK+uqQiXwCFtIi3GuSwMcyOMzlli58WwVk0LVBVAARBbOCzRgV8d1pDvFGERGrkjcZ6TLHaxwsQdHb2tO3SoxQQnPKLGNn09oBQ3oJw8tB+Em7EPhBACO4cxPc+GfScn0rJdOca7MGqIWJ6fnKDll19Ge1WwMhFVh+wIIhZ8VEoM2Zd4qRJxcZ3AshKKrCsTn3d5OzZE8d3ezJJN0Bo1yC+9Uyn54K00rQ9Qj1YMUhE90/iKZlq7hsQJqkZ9kEUJQbAkNbVmNcin85fJGGeq5xdVfRtYo+fo8xiomsSqmPKrAsczVKw8AN/Fk6/xM5KzF0lQYqnIgQaOhh4+tsokorKGroZED5tAB9sLgvSi43PJ6PELCISUb+OAx2C1bhoJOgclXjl6Rk4p2wQvS9AECtYMP3ugOB8PIaXd2TfEtz4nxdDCREZuJ5ZBjZmTab+fIlDcXdaASrp8MK7ZC39hBM3+UPEMjvGTXqR1d9bAcEtpAO9uzW3tJWTS77jTGoJeVQOCHX7vkHt3I0s21EWTFe97RgaOF1l+fqjFkBI2jCbw5HWWhapXJjwyits/+FTIrPzQSTHr24zAn09USvkKF0CkEatZ/kf5/4RQGjqmclvS9ZV2vckSifqNW2Oq5PZBCzB1a8GF9dO4Vik1YLg9NdcNh639lute21GDu3A3O+/w2AEt1qd6NO1KUmRl7gWdo6wy+YJuew1EqUz9Zs2w6U4bTe/GpxbM4UTMUr6TXqPuJXfcDy2XJDoTTkMaDqEJ4LS+H3ZjsoniUoAQaJ24rmXX2PlT9NJspobQO7CyMkvsP+rT4g0uDDitWc5sehjwlMshmXqDXoX36jFbD5W1cjTvzNn3cmC0Jf5sz4ht9A6RnUcN5W8P6dwOMoKCGPfGcjBeZ8TnlxxZtWEdmDUkz788svC0jEKu0aMH9eUVV/9jLrNeFoa17I2vgX92tag4PpODkRJ6d1Cx+IVey2FsfMMpXatGjjYaZHIFPgHBLH42w9IF9Vg7Es92DHzS2KLA3Yl1TowsZ8/i2fNRV8cl1CpBUEkZsgL7yPKjEVvLpT5ksgJDArm9x+mkaa/PSE4BbfkqXbVmTt3wd8Ru8KzNX1zGKCUMP2KErXSwAe185l6SkehAKPqZpGVoGFdcllswZDaWZhSVKxMLLMWVAYIdu7ZvKaTM/WqvPR9HWtl0DBT+3jFIJhL36JdB8RiCUf37KSdkyd1vapZRDHHHyRnZ1mCE81XdHoKf6UlkutoT70mLdixYTXCTdscS9T8uy6GJ/pX5x1FAn2WlvlHHV2dWTdJQ98Pomna1ZdhjvmMXWZd/Zo73/KPQvni20ucMFa0ILw5IQRJ2A3+e8A69bceUJ03ZQn0XVaWtou7M2teUtN7Sgwl/71vQHhJyeCPYkqDFL3reLKsD3T9NB7fei78p6OONftTico0Wgj8zWH+fPnzBY7kqljzbjVmTrnE4eKOW743WAHBj32743Gu50r22Xim7Czx+t/NxSBm+GA/uilyWXw6l8x8E07+DowPMDHg178PCPOn+7P8w0tsKwaWJm28eCe0ooshZcU1vrt6q7n/y8k1SDoXz57oipFc4dG5pBdbOyofUeS0m/g+hg2fcCih4sAklioZ+8p7bJ4/nfhSeJDQfMxUTJtncDy5JJCzckBoOvQD/ON+Y+X+skPBApsNpUVACktW7LUAwo21P3O8JEhR5sDTr73GkR8/40q2mCeHjsM+8yIXrsRQYDBiX7MLdYT9LNv2zwBCTXUEqzcfuEUWjVstnhrck0uH/iQlQ4/RJFC/43CSdn3MsesSCyBojv3C9rPWOte612TksC7M+24WJSESGpdqBIXUIDC0Dm6aAnasXMj1ZD0a99o8Nag7lw7+SUpmtiXtBp2Gk7DzY47HqBj26juELf6aMwnpt50AgloMp5l3LEtX76syIMi0Ljz74qss+bHcBCRyYMBbk7j49XQuFpgBYRyH537C9SwzMIuoO+Bd/OIWs+nI/zcglAUpmuG7w9hpFO6ZwsHrJYDQic0zviXppv7uVLc7g5s68vO8JaU6CZIaPPN6Z7bO+JZ877YM7SRnf1pd8i4cpGXrauw7lktT14us3R+Fd9On6FBLx5mTp8nKyUMk19Kz3yB+/+590jG7GLqxdcbXJJTAgFNTnh3dkBVfzSbjjoAgYdTLU7h0cA0JaWXxFuZMxsdEYKgQkFKxih2DW9L/HwYEQVLElIZ5rD6rRe6eS/MiJb/EW4FgYv1M4mJ1bE4ti1HoVVOPY4aSRfF3BgR372yeU8qZFlEGCO1qZNFUr378AMHByZmadRtwYv+eKp2DcE1iQqez5+rli7cdCHQ1QaarPBgl7djdo88UoR5sG6RgxMwobhSP/Y27+jPdK4Pe8zNofw+AoPVxZMlIB1775jpX80FZ3ZOtA2UMmxlNybzSrFsA0zzS6b0go9SXfd+AMNmOZ6ZFEGXJt4iug4N53nSDp1bl8M6zIeSdieWbo8WdSyln7TshfP7DBY4kS/jg9VCcTl3njd35pcE0ZiuDwShUiEHI87Dj5zGebFh+jYXhVtfFnWIQRC5adr7gwaBpV0grHgBat/fm1eB/ABCQ8c2HwVycH8YvxfPpwH5+DHUuqBCDcDtAeGVsMN6xyby9/d4jnAN7vkVT/WKW77PGYZReIgmdxr6N5Owqth8PL7ZaVB0Q/J4YRafQTOb/tr44YExCswEv4568mY37Iy2AkLNrPjvPWwssc/Bj4oQxLPr+E7KcW/JCn0Dm/LDA4iM2X/X6TaJW/q4HDghBHSfSUnOSxRtOWqWQ2fPUxDeI2/JhlQBBo9WQk11iQxPRdMibhGRtY8nWs4R0fpamiuMs2XSqNO3+E98gZvOHHI+U0OTptwlJ3cbKrSdLXQoSmRSjoQz8glqOoIV/Mr8v3V5lQECmY/Sktzi/6htORlq3yskc/Bk7bjhLvvkvWUWujxwgiF0aMO7pDmz7ZRYxxT5Ebc3uDH9Cx/y5KxA7eDNu3EBS8gvZ/utPNBs2CVNCKvoLizkaK2LICx9wfvNPXIiy+vsVLqFMGDeaxSWA8HI/Dv3wOZezrWOxU+NBDKxVwJxFG0rHndtZEHqMf4e8Y0vZ/df1247/lf3g16Q/rYNz+X2ZNUD1n7qeqqFHlyvD1dnA3FPaUsDpFarHt1DOT5GK4lcJPF8/i/BoLX+ml1kVKrMgoM3nixAjH5/RkGkxSpkY2zAL5yQtM2Mfo10MJZWk1dlRkJNTJUA4kZaIwXD3ALK/0wDMlokZk2rgEJ/KZ7uycPTSMWOAM1NmhnMkxxqkWFULgjkfY4cFUjc7lVc3ZiIg8MWkGujiUvnv7iycfOz4/Ckn3v88nGN5IJVLcFaJ8fSxY2Z/B8Z9H02ByURKptFi7tNopGilIgYODyLkahyfHcunsNBIep4J8zkI21924dCheOaeyCWghhNTOtox+ZPLnC0SMXpIAO2lOby7OR2RXMK7o/yp5yTl7a/PcyQZvAMdmfeMJ1u3RLPuqgH/YAdG1RAxdl48MrmuwjbHmvXc+LafA8/PDOdq3l0sCColv73pz6k111kaY8LFx45pA9wRx6eXWhDsdFKUYjEfvxjCwTWX2RonkKy3mvjNsRBOKjF+AQ5M66rlmdmxCEKZJt16B/BKoIHnFiWicNMxtb87isT0KgGCQ4ATC0e5smVzDOuvGpAo5UztqmbywmSKx6/bNiWFa2vGPV2T376dQ07pzgTr7SLHeowa3Zdr+1dxNiIRmdaDroOGcGHhTIuLQamxRypW0Orplyja9SVHb4AhL9uy4pfqPBnyzHjST6zmUFgirrXa82R9R9b88gupRrkFEFyNKezZuJa0QjUteg3FRX+Q35fvoUhXkzHj+3Jm7VwiUg3Y+beiR+fmZF9caQEEkUSKRqMBwZkhzw5h16IfSc41kafXl5mTgTvFINzOguDdsD89mtmzctkaipDSuMtQagd4cmLllLsCQoHgxpDnxxB9YB1hUckg0dJl6BiS9s5n7/lYfBoPoFtjHSuXr8WIlCZdh1HL34PjK6ZwPFJAUAYy+rnRpJ7byuHTV1G6htCpU0OW/vRj8U4GcKvegQHdGrJp6UIKHYKproxj31nzKl+MSqdDKtYyZPwEdi75mqSMfHLzrBYnuzr9Gd4lgF2rl5CYLaFJj+G4Zh9m+dr9mIqDFO/XguDllsOLXjDrvLqCy67q49dddjEUb3O8FwuC2TBbv8dEmnjlsW7NZkwyZ3oOHkzE7kUcuRANCifGTn4NedQ2Zi87QM32o2nf0Ik1X39FvCCi0+g30cTsZdeJy0g1bnQeMAx3rYJF35ZYEIaSG3OWHdv3IrYLpHe/blzYOp9jl2MRiSVotFoQHBk4cTgHl/xAfI6JvCxr+1QFdWZk34Yc37ycawmZyO396N5Cy5IVByu03/L6mQN7O456E9Op2ew598+eh+DmnM87IQXEpij46qqy9LUaTSFv1srn9HUVB7PF1PHKpaNWwpfn1GQIYN7xYC8TaOifTf1CJQtuSMk1iDEbLc1j26uN9OSmKVmXKCXAJZ8e7gayEx9TQDCrav5A03O1miAR3fqhphLV/4y7xvm0+9/7XfVOZ64kgSG9qzG6sY7sZD3TFsRwsXg3jRkQhjrmMW6ZlZBvcTG85sv4qWXbHOUedmx6zo1J/7lCmMls3hMY1qcaTzfSoU/SM+23GMKK0w5p4sHc/jft0SzSM+zDKMyx1yPH1GBiaEWKPHMsllfWZVgA4et6en5I1DC1jysyfS4fL4jiL711JWkeJJ4ZXI3hdTUkx2UyfVEc771am+9/ucDR4lhBmVbJZ6N9aeAqJfxKKp+sTCSuUGSxIGz6yJ3x08rOQWjfO4hpTaDf9Ag8mngxtbqRwQsq3+aoc1AyY6wfoXZw7FQyy+OkfNBIwkCLi0HEO29Wp4djWbmyUrLp9ZV110fNlt7M7u1YsfqKshj0YbQ11kIkZkAfbyY20nLuRDwrU1S8V09M39lmxURMfa86KSuu830lLgbz4xpHJe8O8qaFj5ykOD3vL4rlelXObpAoGfryO8Ru+YkD4ZWUW+FKh979Ca7mQW7KNQ5sXE5kscuhyzMfUd29YuTy6XW/cuBS8VZYiZK2/cZQy9+NtKhTbNuwiSwzF1t2MbzFwQWzqN5pJHX8nIg4sYWd+8+U6qPzaUDPPj1wkBoIP7WNy+LmtFYdtcQgqD1CGTdmVAUtBWMqq2Z8VWryNf9oAQQusH5nxW2ONZ8cRS2N2cVwsJLuJCWozUA6Nq+JISOGfVtW4d/5FfT77uBiGNqZed9/a3ExSLSetO3Wm5BqXpjy0zi9fQknr5ZEnUsJbmtNuyDNnPZKArtOImPPx5yItK5EBZkT7fsNoXo1V/Txl9m+ZjkpFYJEZdTqPIJ2DfxJjzrLlo0byLIcEuDIU2++jk+5rehJ57exfFOZG0Xl3ZCePbvgojRx4fBG9h+/VNyn3Bj+2jiOzP20nIvhHfzifq+Si8HVNZd3gw0sOq/ltP7Oe+ErH79uDwijx3Rj/jdfWM5BKAGEgt1TOBRZ4mLoyOYZ393iYih5j2f9bnR9shmywlT2rl9M+I0SK5uc9i9MgR0z2H1Fjy6oNU93rsGPP88p1kRFu8HPUKuaC2nRZ9m1Yw+DJ77Bku8/sLgYBvYOYvMfF+g1eBjOinz2rZtPWIz14BOFky8TJz5bsX2aMlj7+Uziii1icudQuvbuibeLjozos2xYtZbcO2xfdGvQm6ca2/HLnMUIdzh74V7mh5J7zZP5i431nDxvx9GbYrfk8iKGB+dRRysQkapgwTUFecUGbGd1AR/UL9c4BRGrz+o4YD48x9yWRSZGVM+hntbEoWgN4eo8BphUfPI4HZR0c4XIxBI81VrqO7vjodIiFUtIL8jlr9QkIrMzLJ9+tl02BR4mBaQOdRg1pg9H1/zMBfN2PNtlU+AeFBAEIx81zeXXM1riywX93kMStlvvoIAusC2D+jTn4NIfuJxYFer/d8v5SJ2k+O+uClvubQpYFXAMaEbP7u24sm8ZR4vjAmza2BS4uwICrUKyUSSr2XWXk/TunpbtjpsVcG06lL7NnNm3fgnhsbcPXn2UlLMBwqNUm7ayPDIKKBy80RgTSSs5nvGRKZmtIA9SAbXSSEG+5Lb+8wf57kc9bbFzEJqcKPT5D9FZ0w9YdBsgPGCBbcnbFLApYFPApoBNgX+jAjZA+DfWmi3PNgVsCtgUsClgU+ABK2ADhAcssC15mwI2BWwK2BSwKfBvVMAGCP/GWrPl2aaATQGbAjYFbAo8YAVsgPCABbYlb1PApoBNAZsCNgX+jQrYAOHfWGu2PNsUsClgU8CmgE2BB6yADRAesMC25G0K2BSwKWBTwKbAv1GBRx4QxCIRCrEEiViM+dBJoyBQYDRiFEz/xvqy5dmmgE0BmwI2BWwK/E8UeKQBoZrWnq6+wSglUkQikQUQzN8tMEPCsaRYjiff9NW8/4nktpfYFLApYFPApoBNgYdfgUcWEGRiMc/XbmaBgttdhxNjOJZk/gCP7bIpYFPApoBNAZsCNgXKK/DIAYJYLCG4Zi2uh12s0ueewwpzyMnOfuCffLY1O5sCNgVsCtgUsCnwb1LgkQME/+BQvHz9OL53V5UA4bpUIDCkBof27Lyl3uSO4NRchEQNhWmQdlTAmPdvql5bXh9ZBcRStLIisgse2RLaCmZT4F+lgEKppCC/wvfA/1X5ryyzjxQgmK0HnXr1I1ufdU+A0KhFa3ZuXEthYcXR1r2LCH045EUJOLcSUZgBWeeLP8D9v6p6iZj6/iqkxc4ScwxFRkYB19Kq9sEQTZATS4a4IpaIUZoK6P3ZNfLLxWc27+bPe40UKNVSzvxxnbf3l33CVOLqyo5XNAz/KJKEfzimUybTsnmqJxM/vkJkJX2qmpcKV1XJ9+wF8vOLuBJfQOE95EOqkOCtERFVRa3upUoFsZzZbwZwYP01Fl/63342XG7nzZN9hmJ3YyOrd4VT2iJFYrSObthpVQhFBaQnJ5JvMFqK5dxiNH2beCJVqkk6uYp1u89Wubh1u4ynuuIyqzbur/Iz5W/sNepV3OyUKNQyDi2Yxl9JJY4/Oe7VfJFX4gfMz0omOT3rvt73MD2kc3SlQJ9GYZG1HspfgsiFfs+OJ2XvHA6GpTxM2b4pLxKcff1Ri2/NorEomxtxidTvP5mQzF2s+rPq7ep/UWCXmv0Y2EnJnO+XUVTJ0K2o2ZcRHWsikSnITzjFoqUb7ztbrQe9gl3KUXbtO0r+rdV93+ney4NPhuhpYZLzeYSibFyoJIHAatkMFymYHiW7Y/KPFCC4eXrTtFVb0lNTOLx7Bw55BrwdHEnUZ+Dn6EKgkyuHIq9YOmuTaoGkYSRSCo1btuHa5TDCzp2pIJZ3fxHxmwRMheDQ0DqKZZz+HwOCTsXGtwOIjczFjAQ6ezm+DlKWr7jCL+eqPjH5+jkwb6TTLYBQUuAxE6pT81LMrYDwooLBU2P5p4cvKyC4M25qBDGVFOON8cG01Jm4oTchU0rwc1WS9Fcs49ZkWnSoylW/nS8f+BUwaGFSVW6/p3sEQcQrQ304vTuWA0n/uzYhVnnRf/x4so4tZvvRa2V5FkkIaT2UTk38SIyNQebohb0kjbUL55KcU0ZVdfu8RJB+3z0DQrDkHGu3Hr0njSpMhoKOfi+/SuSKMkAQBAee7N8bOwlIFU54eSuIvRaPObfJV45w5K8r9/2+h+FBkVjCM5Onsm3+NG6k39pqBUFBi14DSD+xmvDEh9kUpKRJn0F4ys2qavAJciYxIhpzty3Ijmb7tr0WQAhI2c66fRcfBulL82AGhAHtYc6P6+74hUvfxn14MlT4W4AgSO3pPOxZvIwXWbxkk6Ud/6+vYI9c6plkrEm688RvBoT+RiVfxEkfH0AIrlGb6nXqVQCE5v5BuGvt2H0ljDxDIR2r18a89XFX+EWkGjVFrs4WQMjR69nzx6YKYnn1F5OwyYRjExEKN+tPwk1kGL/xAU8OZkB43ZfxH10mUWSFlEbNPZjeQk6PWdFVbn//BkBQKUTkFVj1NAOC4ewNZh2zWjSkMikr3q/OV7PDOBBfta7Xvoc/Q+WZPLvu0fl2e7N+L+GZc4QNO05UWCG41OxAv1a+LFywiMIiE4jEhLTqQVHYTq6nlploHiZAKN947dzbMXKkF3O+XEphlVv1Q36jSMO41yax/sdPSXlEXJOCEMrYtzuyYcZPpJaT3wYIVjFEUnu6TXgV1ZmfWXM44aFtoI8lINSo24Cg6jVLAcGpwMCIxq0tWxwjUhK5mBBH7zqNLJW29+pFwvUZ2PlVswBCkaGIP9avrFChClcoSAGXtiIULpXXddzqqgFCtZoufNLHCXmhEaVGSlR4Gq+uTMYoQOeuvgxzLeIvsZInnCU42kvZuTWSGUfzoRJAUFRzZOsQezrMjLRkqlotFz7t7YS00IhKI+X65TReW5WMqVzW7h8QlBy6JiXAWYKTvYyYiDSeXZRonZykMj4c60ddnUBKthEPJxlbN0Xzyznrakgkk/DCkGp085ORpjfhqJNw+ngiH23P4GYLwhOtvXizqYwXf4riRv6tgGBOb97btfh9WTh/RhWh0in4dIwvTkUGskQyXMWFTF8Yzfksc7bkfPmMNx6uSuyMBqLSjeTpC3h1iXVbqyCoWf6ZD9tWp9KjszOGQgEntZjvFl1jS7yYX94J4M8fwlieagUysYc9m0c7Muzz62QgoltvX3p5SAiqpuHnn8+zPq7MRv7UAH86k0ukvZbGDmKc7SRsXHuNWX9ZzSRuXjq+HOGJPqMQL2cZiXoTcpOR1Zsj2XQX3hN0tRk7ph0bZ/9Iyk2zaIv+k1FdW8buM3celG4HCLqAlvTq2gaZMR+JSos+9iTr1/2BwQRmF0Mtl0yMah/kIgk6jZTL+1ax59RVS5nkjjUYMKQPooIsCgUZamk+B9bMr+AGEyqxIFQFELTO7RgzPoSTZwupEeCOEQkyQxLLfplLjkhEaLtBtKxVjbzsLMQKO0yZ4axZvREzIwW1GkIzLwPRJjcCHRWodVqu7FvKrpNWy4tE6USfEc8gL0gjz6jA2VFJ2P61HDkXZfm9evshtKjhY0lborSjKP0Sa9ZsxljMpx61O9C5XTNM+XqkGgeKMq7xx5oVpORIaNxvDAE6Oe5eLqTE37Dk59z22YQXu1cC2wykvo8jzl6+nFw2hdPl2hBIqNNxGE1repOfV4hGJeb0tkWcvGq2hGno9tKb6LcuwrtDXxQyBQr07Foxm2spVbco3u/MdUdAyDiJ3q0eXvZKNCoZF7b8yP5wq5sooPFgWtcRiMpzI9hFiUmiRMi4yPJFa8lHhGuDXnRvXQdjXi5KtZLoM9vZsf802LXluX4Kflm4A5FDNRr6KzlxJhwhdBDD/c+ydPtl3Kq3pUuH5hhyMjFJNciNSWxbtZTUHBMWF0NnJfEZbmjlUjQ6FTfO72bTjkMVJLidBUHpEkLPvr2Q5qdjkDmhLLrBllXLyci//biv8ajLmJE9mf/tDHKr6BOVaQr4pKaRT0+oySjOmc4hjzecJUyNkCMg0LJaLt1cjeQYRNjLYE+Emh0ZVjesRm7gmaBCdOoispPUfBdT0YJQxyuX/u5F5BrEqKQCf2VD9TwVMx8nC4I52LBm/YalgOBcWGQBBPN1PTWJ8/GxpYCw72oYl7PSsPP3swBCZloaB3b9UWm/cWn39wBBkChY9YE/SxZfY22EAbVOwfTnA0n54yqf/mWwAMJ7zZX8tDyaFZcLcAtyZfFILRM+uU6UqqIFQa2R8XRvH5qiZ/yyFLNtltUf+LNw4TXWXzOgtlPwyXOBJG29wmfnysya9w0Ik134Zt5VNkQYsHdW89UL/kSvv8y0s1ZTSrC3ksi4fIvZX2GvZuUrnrw2M4Kr+dChqx+TAgqYMC+BpEKwd1YxvpWW7zYkI5RzMdRq682oEBHv/xZLZPFKq7wFQSwV0bieKx/30PD8l9e5nidm4tggXM/G8NmJfIspr1s3X/pqc3l+Vdm6ZuSIQOolpvDWzoq+bCsg+COOzeHDJTFcyjDhE2iHKVHPjRyBdp39eMEri2G/pVvSbtvRh2EOuTy/Oq20fZhdDD+9V5M/Fl64BRBeriXlmyXRbIgoxLO6O4uHqhgxPZIEo4Qpk4OIXneN3yKLcPSyZ97T9rz4eRQ37rgh1/pa9+ZD6ewZz+J1e29ppz3GTyF6w8ecv4s3pTJAECTujHhxLGGb53I6Igmp2pVuo16k4MjP7DiTYAGEFn4mVv++kLTcIpwD29CvXxv2LPySiJQCRFIlXg5SbqRkW8DRr2lf2gQVsXjZ5nJ63epiqDIgTGhLwpk9bNl1yDLAeQQEkXDtkuVxtWs1xPobZOcXIZKo6DTuHbI2fcbRG/kWQOjarBqHNi7mzNV4NNXaM2JgKCtnzSbdCE6NRzCsUSaz52yy+KftvOsT5JDM6QtWkFTjNFibAAAgAElEQVS7+SHOirOmLVXTedzbZGz4hGPxhai8GjG0fxv2rfqNiIQMECto1Kk3KSe3EJ1qtXqJxLWY8EYHVnz1PRmV+MUEQU6f5z8gdmNFQPBp0o+OtVVsWLGS9DwjDn7NGNCvDX8snEVsupxuL72Db/4V1i1bRnK2kSa9J+BnOsvqzRUnvfuFgDs9dydAeMLHxO61v3MpJg2XGj0Z0sOd+d/MJddkBYQeHUKIOryebQfPU4SCan6uREfGonaty6jRPdgy/zuLdirnYHoPG8K1jV9zPErEuMkjWPXdL2hqd6dXM1d+nbMQuxbP0Uy/hp0XkpBrnbEX55CcZbWUNer3Eh5Ju9hy6KIFEIb0qMWG+V8Tk5aHzqMufYc9xZW1X3A0sizeqnJAUNF59AvoDy3iyBVrx2rY9yXck3ay7bC1/VV6SXT0n/wmEb99zl8pOVWsBoE3GmWx/4qWo3rzpC/QvXYWORE69uWLCXHPY7ibiZ/D1CQWiXDVFfBy9QJ+P6fjckHZAqVFcBZNC1QVAEEQFTG9cR6Lz2m4XCBGrTTwZv0ccmO1jxcgODg506pDl3IWhCJGNrk9IFzKSsO+GBDOnTxO9HXriujm6+8CgkdbfxbXzKH77GSL3858edTxYkV3E11nJtC6qy/jPAsZuiDR8psgSFg5NZj/fn2ZU4KKje8EYMo2WiYrR52U8LBUPluVwPU88GoXwMLqerr/klKatk89L5Z0NdJlZiIlxuX7BwQNIz6IJL4YmOt28ueH2jl0mpVsMQVrtDLq+6lwUptPqxQxrrsnn3x/gaMZcn6ZEsiWL8JYp781Cs1qQfBg7dFCnqop5rlvrnOtXEM3A0IXLyk5BgGNRkphag5fr4jhzzgjOGjY/KoPSzcnoS92uyhdNTwTBN1mxZRW3/Njg/EIT+SjA/oKVVoCCH8uCufXsFtHbgd3DSuf9WbgJ+FkGuHDF0IJ3xHBsitl/qU7AcJTMj2jlpWAioSN04J5Y8ZlLucrmP9BNf77n3AuCyIEJCx4P4Bvv7jC6XJlv92IUrvHRAKyjrDpQMVAMEGQ0feFd7iy4j+EpYoQBF8GjeuPQgxxZ3ew51iZX7gyQNA0epqn66Tw68KtpX5amX9fJnSXMOenNVTvMp4aisusLBek2H3MO+SeXcHeU+bVuAitqy8erk4o5XJUrgHUq6Zk7tzfSovytywIE9qx+NtPycitZJYVyXCvFoCjnQ6pVIJ7/R5oz81k/ckcCyC08s1l4TJr4JkgaBj56iT2zfuUmCxQezbh6ad7cfnwH1yLjCYh/gaF5SPZbkrbo0EP1H99zoZTedTpMpbqksus3nrwthOASNmCZ1+pzeIZc8mu5K7bAUKXUe+Qf/Z39p0pa8tdR79F9skVHDyfTLeX3sa44z/suGzVw7thL9qHCixeXgZkVZyV7vm2OwFCzdz9LNt20pKmTO3K+JeeZcm308nMtwJC5yY6fv15DkJxny15eUDnl+mgPci8tadK3WaBrcfwhEcEi1cdYNhL77NvyX9xaT6Cej6O7P3tG1Q9P0B28HvOJ2WASIKjpx+uTg7IZVLsA1tQreAISzcdK7YgqJjz7dLS2KW6PV+mjvQYS9eXxdRUCggujZg4sh3H9xzEUDyEybzq00gXxdxl2++gnYj6Q6fhG/4Vm06V2APuLnWzwGzaCjK+uK5Arihiat1cpp20w+x1HV47C0OKmpWJZTEDI+tkkZOoZm1y2f8qAwSVaw7vO0r5IFxRnAmBrrUzqZuhfbxiEMylb9elBwaDgSO7dxAiVdGtZn2LKDcy07memkyrwFDL32fiIrmQkYLU04MGzVryx/rVCKbKfdt/FxDaDKzOa5IEnlqeWdpKHJ2dWPeajn7vR9HE7GJwzGfssuTigUzM8o9C+eLbS5wwVrQgfPJSdWIORfHzKevU325QDSaJbtB/Rdkq2cXNmTWTNPR+P5qSN943ILyoZPDUmNIgRa/anix/SkS36TdQ+tjz3Uh3Iq9kcT6h0GJGHd7Fk//+eIEjeWrWve3Lx1MucbKS1bEVEPyJupiGMsCOE1sjmXWyzFde3oLQsL0fnwbp6Tc3zdJZFN52bB/vwU9/mvUqg4+inEJWnS4biieND0Z1Pp7/HqlI8VZA8ObLD8I5bqrsKC0xb71WHTaFMzNOzcrn7Hnuy4qBmncChM6GTF7YUBL3IGbDtFDe/uISYXoYMSyYDsZUpu/JpXYzD0Y65fL0wjJwvNMwYgaEQP1RNu7/65bbujzzIVkHZnLkSpmzO7DNcOpIL7Nht3XQNl+VAYJv58l01h5l3trDpfdJlM2ZYJnc5hHQZTzBkvOs3Xqk9Pc2gyehjN7BjiOX8GzYh14tfAgPu0hmdh5SB18a+KuZM2dB6f1/CxDGBzBnxgJuterK6fT0S7gWJVgm+PxCI441OuAQPot1x7OtLgb3tP9j76zjrCreP/4+N/dud7K9wNIhIiHdndII0ir21/jZnagIinRIIyElYKAgIIh0szTb3XHr/F73bru7sCCLxJz/du/cmWfe89wzn/PMM3NYvvbngt+VjuHPvsDuRe9zueC+rXIOpmWb1vj7+qCTMvn9h++IiLb8lrR0evQp3AzRXCyo2zW8PY5nvmT939k07fMkHmm72fx76cTmkgMjWcLjY6qxcOoyyktBqEgg9J7wDrG/T+Wvs8W5My2GPoNdxDZ+/vuqdYkhdfVb7I3N912fht3pWEvF4uUbrj8L/csSlc1BUNu6MO7Jp1n+9Tuk5uQLhBY10li6vGyUttEjb1ArYQHLfo8sss6vbl86Pmhk0YJNtH3sJRK2f4ffg+05d8lMXdUfZDSewIllHxOfaqB+l5E09lNw9mwEWTkGdNUaEWI+yLKNe60CYUB7ibnfrCsSvyEtRtIiIIolK7YXtVeeQFCHtGVC97rs2newFDVTejTHz+Qv71Z01Rr4NjWufMX6vyqf/ySrDbzbMJeFB+1Re+TQU6vhy8sqq2ia2DCNK1cc2JJcvJWkR3gGbmk2fBdTvJxQnkDwqZbBWI2W9y9Ys0ytV6vwdB7KsL3/BIKnty9htepUfpujUsbbrxqH9xff/P456JYtjhq38l0hZsP1cxBsHwhga0cTvT+NIrWguH9zfxY/kEPnrxNpcwMCwTXcgxW9bBg85QopsoR9kwB+bG+k12fRpBXUHdzCn4WNcuj4TXFU4aYFwrP2jHzzIpYHd8vVuFsIn3om0XlRGv8bXx3TsUg+35t/+7M8Gax6ozZffnuCvQkqprxeg7SNp3jvSDEjy8ODLFMqB0EKc2PBEDfe//IsvxXcuEsKBJWNih9eq8lH00+zO94EjrZs/F813n33DPuNFZ+V+fz46tieiOb9PeUJBF+mvBbB33L533cL8WTtYBWfHdPQPDOJ137/ZxSi4iWGawkET38HFg33Qq9UcuFMEu/8kFhu+Lk8b/NqNpROPtEsWVd2iaFup7HU0p3l+w3FWxErKxBUtQYysZ2WBd8uJbtgqGzqDmFM01Rmz99Krc7jqGUTwaoNhe1KdH/sFZL2LWLfFZgwaTQrv/iItIKkF7eaD9OvVditFQifLCyKhhWykUP7MLk9zJ6zviB6JtFwyFsEnZ9SKYFg2WUgm4ujQiHNH6FduJZ5C5Ygh/VjclsTs+duKKq70dC3CIj41CoQarQZTjOfdBav2Fhim2mBcxcYKLm0Y9IYfxZ9/h3Fwezika1IILQb+j80V7awbfeJwproOfZl4vYsZv+p1HtOIPi1Gk+vsKvMWbC1aBKv2XECjXUHWL7xAEEdnyA86zKSWxo7DyQypG9Tcu2D2DT9XVKdmvD4I41YNH02OQWRiaB2Y2hhf7JIIAzsbM+8aUswWH1bon7vZ6iZtY3vfz11TYEguzZkwujWrP9qGpbbTuUvGzpOfo3sdZ+wJ6q82FHFNQ2tnY4xRYuXTx7fH3AoSkwfWCsD+wwbFkYWi4Gx9dKJjrZlS9K1Iwg4Z/N5ILx2xLbgNyQzqEEagUn2fBZ5H+1iKMTu5uFJelJSpQ5KOpSeaD3cwnK+QFVdlpoXvlqL2P1RvPZzOi4+DiycVI3Z006zMUnOT1KsZATB4uDPjg3D9WIMb27PtE7Ki18NJ3JfFK//ko6rrwMLJ/rx7dTTbC4hXm9aIDzvyY8bLvLFn9kEh7syY5gnn3xymu1Z8NToMGqmJDF5fQqSUuLVCTXoEqDmpS+OszcBatTzZM4jrnz93XlWnzMQVN2Fp5uoeW5ZHGqNQ6ltjpYkxXda2dDvw/NkSlKZXQz+LQKY21hP/69jyUKi94AQJgbqGTXtKolGrLZ1sM9h7t/Fz2qDBgczwjWXkTOjcQp1oWVGCsvjLCF4SwTh2gJBoVWx4bUaKJH5cMZp/ogt7R83G0GYMLYmrgcv8unhPMwViJMK/dChPmPGtWLjtK9JMJUWNkqnMIaPHU7MnuX8vPcssqSl1SMTcU3Yfd0IgoyaAZNewhixjY2/7EfjGsbwMY/y99LPOBqbac1BaF3HmW1LvuFcQg61Oj1G21oqVsyYQ4rKi9FPPc7xJR/xd0weaudQ+o0YiWPupaoXCN4deWJoON/PnEFijhnvet0Y0ONhon796PoCIc2WDmOeIvevZfx57ComWUmjbo9R1yWOJcs3Int35omhNVj17QyScs341O9O/+4tifzlA6tAkGz9GTxhPIazP7F28x/IWlc6PzKQ01sWcSU5P4NUUoYy/vlH+W3JFM6n2dCoYRgH9hRHaSoSCI5hbRna+0F2rfyWE1FZBLUaQbdGGpZ/O59Ug+2/Egi2tnomhhhYd9qWS9cQ1xX5YFVEEFQOfox9fAJntszm92NRuIa1YkCvh9g263OuZMtIQV0Y1/8hTvyykD2nshn67NO4ms4w98ul5DnVY9zYbuyY9zkRqSa03k0YPqwPuRGbiwTC0N6N2P39dA5eSKRa4x70bBPOxm8+J6pEom/5OQgKWgx6jhDlWVau2IBBlvCs3x33tL84ebnijd8qB28mPD6JJdM/ID3nxhJHAzxzeDpYT0Kahk9O64qGwdU5l5dr6Nlwwo7dWUpq+2bxmK/MlIN2xJWIgpabgyCbeOPBTM5G2rIqRkWIZw6TQvQkRN2nAsFCVWV5F0PtB61bGiu6dkRf4nDS7dmKYu+sZVJPX1oHatFn57Fkcwzrz+Zanz5uTCCAe4gLi4c4M/GjC1yxRBFctDze05dWAVrysix1R7MhIs9ad0gDT77s4WI9KMlJpyA104hszGLip5FYej5gcBiPhiqx0alQmUxk6mWOH4zlta1pWA5Kmt08lzWZ9ox+yAmtQc/iTVGsPp2/S8HW0YbnHvGlibuStPQ8Nv6ewKCBIXw50xJBsKT/S9QNd+bZbh742ymJi8tg/o9x/H7VUGYXg6RU8OjQUB5xyWLot9FMHF16myMomPtKDbavvcCys3pUaiWdWnky+kEH1LJMdFQ63/yYyClL9lnBpbbX8tbIAB7yUnLlSjpfrInmRFrhLoZrCwRLFZ0GV+cVzwx6T7eIksJL4pnJobR3tGTzq9HnGIiPz+TR2fnv9LDuYrjGEkPLttV4uZGKeL0ShSTjaK/iwvEEXtpUmVCkgpYDn8IleQebtpcNbetcg2jRoSsBXi5gzObS8T0cOHiE9Gw9YV2foXWYznpQksqsJ1dvJPnyH/ywMX8NXe3gRdP2PakZ6Ik5N5WD29dz/Hy0dSdMvc5jcYrfjjmwA7VDfMmOP8vvWzYSnWyhIuHoV59uvbtgIxvISLzMmasZNK/nVyQQ+o15ERdbFTZ2dphyMjGYTfwxfzoR2cVLShVtc8zfxRDM3HIiCBafqPlwPx5qEIo5L4vYC4dJdGlD0JVp1xcIqRIO3qE0a90BPw8XFJKJhAsH2fn7DtKsuQ4Kwlv1p2n9kPy6zx8iybUtAZenWgWC5dK5BtK8fTfC/D0w5aZzYu9PHDp2mryiPAaJ2u2H8nDD6hgyEji6ZwsHTly0frfpoMep6+mEja09prxMsjPiWbZgvnVXk6Vt99BGtG7bFlc7DRmxp/lt2xbiLYv5BbsYbnaJwd0lj5dq5hIRacec6zw9lnffrAqBYPEhnVsgbbr0ws/dnry0KPb+solzUflJwbIUyOgXRvLHvA+5kAJ1+79CS2kLs9ccQkbCt05b2rV5EKUxl9TYs5zL9qWhrjiC0Mrlby7YtaZxrRDMmdHs+Wk9EZH5OULeLR6le2Nf60FJGpVETk4usvEMS2eus+ZYKW2cqNu8Kw3rBIHRQGrkMXb+toOUrIo24yqp020STXR/sXjd/lI7ySr1AKow8XzjTA6fcmB7VumTqfyc8ugfoMdbK5OSpWbVBRuuFOQuuejyeK52HmqVjFqWyDZJbDppz185+fOfs62BoaG5+GtkziRoOabU09Wk48Mr92EEoXAgHDVaajt7EOzojJPGBqWkINOQx5XMdE6nJhCTfWPhn0oNsCh0jxCQGDm2Bq57L/HViVtziI2LvxPTezsy9purFNaosrNn5XMeTH7vAjHXELOFULXu4Qwc0ofT2xZyICI/qVVcgkBlCVgipYPqZpJ02Y7tmeUcjVjZikS5cggoCGzSk45NvFg1Zw4ZN7QscWcCvadOUrwzEQur7iYCvmHO9HMzcRobXu3syMjPLxBduDD/LzviHujEvGEezN8Uy8U0E5JKSaOGrrSyyWHssvwE1cpczoFN6NmzE5d2L2H34avXPFK1MvWJMvcPAQ+XXAa4wszzNvdPp29TT+t3Gk3jAPhlzRIiy9vXepvsuJXNCIFwK2mKuu56Am5edjzdzQMns4GZq6M4XV522b/opaevHY+1diXQRYUpz8ThE8ks3ZdZJgHvek0ode7U8cnm6IVbbOD1Ghaf39UEdFoTKr2SjKpLubqr+fwb44PDaxN15iT6e4itEAj/xiPEdwUBQUAQEAQEgXuUgBAI9+jAim4JAoKAICAICAL/hoAQCP+GnviuICAICAKCgCBwjxK4awXCn/tu/tWz9+hYim4JAoKAICAICAK3jICjvT3x8dd5wctNtibVqVOnStI1GjZsSFZWZV+CcZPWi68JAoLALSNgeeGW5TKXfNfBLatdVCQICAJVQUClUnHqVPGJk7eyjSoTCLfSSFGXICAIVD0B7wYu1kZij1TmQKiqt0e0IAgIAv8tASEQ/lv+onVB4I4hUH94kNWWo0uv/ZKbO8ZgYYggIAhUKQEhEKoUr6hcELg7CPg0cqHaQ+5WYyP3JRJzSEQR7o6RE1YKAlVHQAiEqmMrahYE7hoCDUYEo7HPP/Ndn2nkyJL89xGISxAQBO5fAkIg3L9jL3ouCFgJeNZ1IvBhz1I0Lu+KJ/54miAkCAgC9zEBIRDu48EXXRcELDsXGo0KQWHZTF3iMhvMHFp0QexoEC4iCNzHBIRAuI8HX3RdEHCr7kBIB+9yQVz4NZakiAwBSRAQBO5TAkIg3KcDL7otCCg1Cho/Fgr5xx+UvWQ4uOA8Jr1ZwBIEBIH7kIAQCPfhoIsuCwIWAu41HQlu53VNGBd/iyPxTLoAJggIAvchASEQ7sNBF10WBCzRg/pDg1DplNeEYcwxcXT5JRFFEC4jCNyHBIRAuA8HXXRZEPCq50xAS49KgbiyO4G4Y6mVKisKCQKCwL1DQAiEe2csRU8EgUoRsOxcqDckqOjcg+t9yXIuwrEVl8SOhuuBEp8LAvcYASEQ7rEBFd0RBK5HwKOWE75NXMsUUyglLEsPhhxTmc+i/04m4ZQ4F+F6bMXngsC9REAIhHtpNEVfBIHKEihn54JzgB2+Tdw4ufZK2Vqq5J2vlTVWlBMEBIH/goAQCP8FddGmIHAHErimQLgD7RUmCQKCQNUSEAKhavmK2gWBu4aAEAh3zVAJQwWB20JACITbglk0Igjc+QSEQLjzx0hYKAjcTgJCINxO2qItQeAOJiAEwh08OMI0QeA/ICAEwn8AXTQpCNyJBJz87fBp5MLpDZF3onnCJkFAELjNBIRAuM3ARXOCwJ1KQJJAUkiYTWLLwp06RsIuQeB2EhAC4XbSFm0JAoKAICAICAJ3CQEhEO6SgRJmCgJVTcDeW4dHLUcsL2gSlyAgCAgCQiAIHxAEBAErAZGkKBxBEBAEShIQAkH4gyAgCAiBIHxAEBAEyhAQAkE4hSAgCAiBIHxAEBAEhEAQPiAICALlExBLDMIzBAFBQCwxCB8QBASBMgSEQBBOIQgIAkIgCB8QBASBMgTsPG1wr+HA5V0Jgo4gIAgIAogcBOEEgoAgIAgIAoKAICByEIQPCAKCQPkEFEoJhUaBMcckEAkCgoAgICIIwgcEAUEgn4DIQRCeIAgIAiUJiCUG4Q+CgCAgBILwAUFAEBBLDMIHBAFBoHwCIoIgPEMQEAREBEH4gCAgCJQhIASCcApBQBAQAkH4gCAgCAiBIHxAEBAErklA5CAIBxEEBAGRgyB8QBAQBEQOgvABQUAQKJ+A1kmNo68tCafSBCJBQBAQBMQ2R+EDgoAgIAgIAoKAIFCWgFhiEF4hCAgCVgJqWxU6Vw3pkdmCiCAgCAgCIoIgfEAQEATyCYhdDMITBAFBoCQBEUEQ/iAICAJCIAgfEAQEgTIEhEAQTiEICAJCIAgfEAQEASEQhA8IAoJA+QTEEoPwDEFAEBBLDMIHBAFBoAwBIRCEUwgCgoAQCMIHBAFBQAgE4QOCgCBwTQIiB0E4iCAgCFgJqGyUaB3VZMXnCiKCgCAgCIhtjsIHBAFBQBAQBAQBQaAsARFBEF4hCAgCVgI6Fw1OAXbEHkkRRAQBQUAQEBEE4QOCgCCQT0AkKQpPEAQEgZIERARB+IMgIAgIgSB8QBAQBMoQEAJBOIUgIAgIgSB8QBAQBIRAED4gCAgC5RMQSwzCMwQBQUAsMQgfEAQEgTIEhEAQTiEICAJCIAgfEAQEgTIEnPzt8GnkwukNkYKOICAICAJVt4uha9euAq8gIAjcTQQkkCQJ2SzfTVYLWwWB+57A1q1bq4RBlSUpduzYkVOnTlWJ0aJSQUAQEAQEAUFAEAC1Ws2lS5eqBEWVCYR27dpx+PDhKjFaVCoICAKCgCAgCAgC+QIhPj6+SlAIgVAlWEWlgoAgIAgIAoJA1RMQAqHqGYsWBAFBQBAQBASBu46AEAh33ZAJgwUBQUAQEAQEgaonIARC1TMWLQgCgoAgIAgIAncdASEQ7rohEwYLAoKAICAICAJVT0AIhKpnLFoQBAQBQUAQEATuOgJCINx1QyYMFgQEAUFAEBAEqp6AEAhVz/jubkGlATcfpGo1wNkDSalCzkiFqAjk+CuQm3V3909YLwgIAoKAIFAuASEQhGNUTMDBBUWL3qBQVlhGjjiEfP4wyOIIXeFKgoAgIAjcSwSEQLiXRvNW9sU3BEX9NpYD9K9bqxx3Gfngr9ctJwoIAoKAICAI3D0EhEC4e8bqtlkqOXsiNesOkqJybcoy8vkjyBEHy5S3VOFYV4nKQSI3zkzWOXPl6vyPSilsvWjXaxDB/l6oFBJmfRYXD23l1x0HudWWy7I9g597DQ8dViFmyklk3rQpGEz/UecraNY+qDnDBvUi6cQ61mze/49Sah4e+y4NPC3/lpAkE9vmvEpEwvWF5Z3Vy6q3xjW4JUMHtGHm5x9iki1BN1v6PPUG/g754y+hZ/EXb5KWW/W23P4WtLSf8Da13Ar7amT9jNe5mnr7LREtVp6AEAiVZ3XflJQe6o7k6l2qv+bcbPRxVzHr81Da2qPxDkRSllh6MBow/7oMzKVnN5cHlSh1EnnxMnYhEhlnzGSd/7dTrQPdn3mdUPv8SchsNpKbkcLlU3vZs+MPso03P1RN+79AHdckNn2/koS0HDyCm9DqQR82r9pI3s1Xe91vVms1np5NnK4pEGT7MLr2bM/V3Ys4ebWsNT7h/Rg4oHm5bV3d/jk//Bl3XTvKK6By9Kdt5w4kHf2RQ2crPpddDujEkyPa8vMdIhBk2YE+z76OTcRKVv1YLF5l2Y4eT7+Jw9nFrNx2/KaY3MyXrAKhf2tmfPFRmRU5+4YjGd29+m0RCK41WjH8kV5luhBz9EdWb/z9Zrp2Q9+RQ/syeXATNgiBcEPc/ovCQiD8F9Tv5DbtnVG06l/KQmNqAhmHd6O0d0ShscEiFhS29tjXbVZaRBz+DWIulvqfbz81cdsMmLLBuZESFJB64N8+IucLBO3+L9nwVyIqrQN+NR+gRZt2ELePZcs23NTTvowfw15+mrhtU9h+OKGoHyqlEqPp39p87UGvjEAgsANPDn+Yn755m4i0sk/oFoHQr3tN5n87rcwEJBty0FseW6vwulMFgub0UlZvO1rU80KBYHdiHt9vP1uFREpXfacIBKtVkoTKxoFxz7zO74s+5nRsym3LIxIC4ba53L9uSAiEf43w3qpACqiFVKf0U2jq7s3ogmuj9Q2+ZmfllHjkvZtKC4SBKmI3GlGoJRzrKEAJGSdLRxAMqTc6ceULBM2+Kfywt3gidwpuwfChPTi48G32RhtK2KFA5+CErc7GEm8gNyOVrJyyT+CyugajXxzLqRWv8NeFim1Sau1wsLdHpVJgNurJSk8lr8S6gEJrj5uzPelxsaWiDjYObthpISkxqQzHawkEycYFd2cdmuA29G8XyK/zv8PSa1k2khwfj7nAVItA6NutBjO//ITrEZWUGuwdndCo1SAbyc20MNH/wy4dbl4uKAq0SE5KNJnXCKNcSyAobRxwdbIlLS6Okq3oHN2xVZtJSkouatvB1Qu1OZvktCx0Ds7Y2mjBbCQzLYU8Q+nwkFrngL29HUoJ9LmZpKdnlhAC+RGEygoECxMHRyfrG+zKZSIpcPP0xpCRSHquGXsnF2zUSvTZaaRn5pQZU4XGHidHe5QKmdysNDSeD/yrCIJKa4e9gz0qpQJjXjZpaWmlhaCkxM3TC1NWPKlZYO/kjFajRjbpSZxhHQEAACAASURBVE9JwviPwJ1K52gVCL8t/IgzFoFQ4pJ0Lrg7KEhPy8POyR5jThrpGXk4unmgUZit9emNZuuuJnd3TzKT4jCodDg42KPETE65/pTfgBAId8+cIQTC3TNWt8VSqcYDSKENSrWV/NNKXDs9cv2cBMsyw8+LSwuEAWpiNxlwbaZC61n+unTU9yUn88p0s3yBABraT3qPsNxfmbvwp4IogkSNtqPp0iIcozEbWdKiUprZs3o6B88Wh9yHTn4bJ50alVqF2aTHXHAzXT37fRLTimdFtVsjxowbjFoBsnUaVmDKjWfl1M9JKZiVHcLaMHpwKzZ/+B4X5OI+124/jpZhMnNmz7shgaCpNZRxfesjSQrrZG0uMM5sjGPBF1PJLQhuVFogaH3oO/YJqjmrka27T/JzB/asms7Bc7HFE6xUn7EvD0UnSSgUCo6ufpkdZyqWHtcSCI7hnRk1oAkbP/yASyWYNOg2iQd9M5k7b0lRu51G/R+emX+xPzmQLs1rYpZlJEuybN4Vlk//miR9PlPb4C6MHNwOpWzAaJLQaFRE71/Cup+PW0emcImhUgLBphoDxk3Ex7E0k53LpnL0UoEIVdsy4bk3iP59FinBA2gU4oFsYYOJrd++S0RKcfKAjWs4oyY9htqSn2MlnMeZv/ZRo2GDm1pisPFtxrARfdEpjOTpZWxsNKScWs/KdXsokkxaZ8a/8H8k/PYFyUGPUj/Y3Tq+FnZy5jHmfr2EvBIi4VoCQdVgOJM6e5Ka5WDlqlPmsO2EiQ41VShtnYjcv5oNv+xH4+DBhKdf5I/vN9CwVw/sNRZfkpBNuWyb/T7nUsr+toVAqMw97s4oIwTCnTEOd4wVUkh9pJpNSguEX1fj3KIbCp3dtSMI2RnIO74vt4x7m9shECCgw2R6NJSY9+V09GYIeHAAXZv5sHbBPJIsT3kKNT5N+tG3lR/rpn9BTMFk4+jijkIbQr+xAzm/aQrHIvMnwvSUREyFj+iA0saJYBc1V5LSMBgskREddXpMprlfFPO/WYpBBofqbRk96OFbJhCshkgSfi1H0a+pjkVffEuGdXeJJdOtGLdFIAzo15TUlOKnccunF3Z9x57jJfIPlFoCgkNIiLxAXp4eFCrcH+jPwDa+rP3qC2ILmBTWLDuEM+6pxzi35pWbFghOtbvwaL8HKi0QQtxtMGZHsW7JUtJz8lCobWnSKIQ/9xy2dlnjUIvHJo9ix9IviIhMwCRLOPrWYcSjg9kx6z1OJOcVCQTt6RWs+eVYCb+0o/sTr6IrucRgYRIUSELUZXLz9EgKNZ5NB9P/YVdWT51KvEGCAoEgmYyc3b2SPw+dxYgdHSe8TIjyGAumLsUaR9D5MPTJp+DEStb9egK9EXSeteg/chiO5vQbFgiy5Mujz0/m7M9zOHDiMkaTjI2jN0MnPMXpjV/z55no/L4VCASyssiNP8j69b+SrTeicfSiTfU8tu5LKBVZuq5A6FGHXxa9z5lkNx59bjK2KX8xb9ZagtqPpUNwDt/OWYrGwZMJT/8PU/o5Vn+3hORMPSobZ5oPeZo67kaWff0BKVmll+eEQLhjbvfXNUQIhOsiur8KSF6BSI07lOp05tE9mLIzsavzICo7J/RJsRgTY7ANb1xqG6R89Qzy8d3/qUDwenAU/dv4Mn/qR+QZFXQb/w7mU8vYtutU8ZMxTjzy3Ksk/DqFHUeLlyhkTU1G/2/MdZcY/tlBl8DuDBvSjAVfvkW2XsaxeltG3WqBAIR1nEDXGnq+/WYBpnK2n1oEQv9e9fjt5y2lQs/pUceJSiwbAi/ZD1lVmzEvjeLgktc4cqV0GP+WCIRaXXi0f+UFQk0fJT/NncLZxPJS+iVq9Xudts57mb3gZ4qnHw2tJ71HyJWFLPzxVJFACCxIZv3nuMX+OfeaOQiyqh5jXxrBvkWvcSLKWCQQjFd/5rsV2zEWiDNd7eGM6RvK8i/fJTkH3Ku3ZXDvZsz7/GNKWl+9wxN0buh0wwLBv+Oz9AqJZM6c1VYBmn9JNB72Ko0Mu5j3/Y5SAkFrimPF9GkkXidb97oCoYsDiz+dSZrCk8GvvED21jfZeDCPoDaj6VnLzNczvysSCMdXfsbv54p/S2rHYMZPfpxDK6bw54XSia1CINw9c4oQCHfPWN0eS1VqFO2GgEpdPKGaTGRHHEEfcwnZaEBp54RNcDhan6Bim2QZ887VkJ3xnwoE7xbj6NfCkflffkGu0Z8RrzyFE5Ylg5KhcQmVWsP5nfPYsutMcT8rIRAkjSsNHm5HWHAQjtb1YCWSQolaKbPgyzfJyjPjWKMtox65xREEoFb3x+ngn8HXs4rD8SVhV3qJQaEjtFFL6tSpjauzJQ9BZV0+0mi1/LniLQ6cLy0mboVAcK7dhZE3EEGoZjjGgmWl81mK+2pP9xfeIERtxGgqvbCuUGtRRG7lm++2Yy7YxVB2icGR3s++hs2xEkmKCh1hD7SiTq1auJRiomHnkjc5ejm3SCDE7PyWjXuvFJmjDujN+BHNWPXVqyRmQWCTYXR5yI3Z30wv9Vvwq/cIfTuH3aBAUNJm0pvUc1FjNJZ+EleoNCgS9/HNnLX5kYGCCELm/jks//ncde8X1xUInXQsmjKXDIUng155ntR1L/PTKekfAiF/iWHnrA85mlhiz6LGngnPvU7Cnhms+6OYlcUoIRCuOzR3TAEhEO6YobhzDLHkIFhyEW7oykzFvGtdhZnQt2eJQaLegNdo4XWSuTPWYpRDePTVSZzf8DF7TpQOu5fXt+tFECSNEz3Gv4hb5gl2bv+dyOhYDCYZR++WPDq6W7FAsEYQWvHjR+9y3lycg1Cn00RaBBtvOAeh0Na6vZ6krU8KX89eVu7QVFYg1O8+kWahNuz7dQtnz18gJ8+ILPsx/OVnOLPmbQ6czy5V/60QCPlLDE3Y9NH7XCzBpGGPJ2jinV4mB8EtdQ8r1hc8GZfprSO9X34N5yOz+G7rhQrdtOIchLICoXHvJ3kgQMHeX7dw7vxFcvQmZNmfR195iiMr3+LopZwigRD12ww2779aViBMe5XEzHyB0K25JzOnT70FAkFFh8lvEBCzlQVr/rz2T7JAIET/9Bmb/0687s+3SgWC2o4xz71O8u4Z/LC7mJUQCNcdljuqgBAId9Rw3CHGKFUoWvYBO6fKGWTUY965BvKuHcauXGWVKVV+kqLCLpDhT00icevHbDlsyfDW0nfy2ygubGDdluvcXC1PNteJIDj5teDRkd1Y+OU7ZOQVh+E9wgcwuG+jIoGgDWzO+BHd2T3rTQ4lFkYuJJoPfom6Tok3LRDq9ZpMm2oZzJixEHMFSwzX28Ugy14Mf+kFIn/5mp2Hip/sFPaNGf30EI6srBqBYBPSlnFD2rFz5tscTS5m0nr4K9SwuXqDAkFJk5Hv0sz9NHO/WkxuBcdqVFYgyLIPj778HBE/fsXe41FFDqhweJAxTz3CX8tuTCC4V2/H0H4tWfT5e6SbCgWiRI3OT9KpnsMNRhAkwvu9QseQZBZPnUXatXbb/ocC4eiyT9l5sViUqOwsuQkv8NeSz/j7ammxIiIIlbnH3RllhEC4M8bhzrPCstTQ5hHQWLYGXuMyGTH/uREySm+TqtoOlRUIFjHQauQL1HZMYfaMb4uaD283mk5N/fl53secTszPqJZlJbUa1OX00SOln5SvIxAcfZsyanQfNk9/hwsZ+Zv1NK41GDFxLLayoUggyEp/hr04GeWFrSxZ9Zu1nF1we0YO7YIp8exNC4SgNmPp2dKPn2d+wJlkE0h2BDmbuFSQPV+ZCIIsuzPsxZdI/WsJW3bmnw0gywp6THiNUE8H9qyoGoEgq4IY8b/HMZ7ZxMp1f1jbtQ/rwshBHTDEHb1BgQA27i0YO7EvxzdMY8exyIJxlPBu2pOkA5uskZ3KCwQPRr70IrG7FvLLnyeLmPR98k0CXGzZsfTGBAK6aox+9ils4vYwd+F66/ZCrVdDHh0zFI0+9QYFgkW41mH8C6OI2bOczTsOFfmsa8PuyBE/kZJVIFb/Q4EgZ5xk4YyFWE1R6Gg54n80qqZkyZfvkJpTeueLEAhVe3e8lbULgXArad5rdSkU1rc4SuFNQakq0ztrUuLZA5YN6Le55/kCwc9whYQ0AxrL/nBnF6Ssy6xfspjErBI77ZU2NOr6GC3rVSMjLcV6jLGNvRN5Ufv4ftVG9CW23F0vgoDShmZDXuABPxUpiYmYVXY4Omi4fOQc1ZvULRIIFhge4R0Z1L8jOWlJ6M1KbORkzkUpqO5jKBIIshxA77H9sLMkyNu74WSrIikhzppgGPHHWg6cLR2aRVuNIU8+iavKQE6OHq2dPdG75rNhV/5hP5URCJZyQc0H06NNPTKSE8kySDi7upNw9CCuTR7i2KpigSB7NmdQr6YolVrcPNzJTYkiKw9ObpjP0YTCXBN72owei4/lUE2NA+6uDqQnRlsz9/PSjrB+9e9Fh1Z51+3KgF5tyE5PxmBlksCFeB0hLqk3LBAsORM+DfvTp+sD6DNSyc0zoNbZo1Oks2zGNNL15koLBAuTkNYj6NYinPTkBHKMCpxcPYg9uB+vh5rz9/IbFAiAo39TRo4cgCEngzyDGa0yl2N/X6Rxs1rM+OJD6xjLsjfdxw7GSbLMqa64OdmQFB9t3WIbdfQn/thfnFjrFt6Jfn3aQ0462Tl5KLW2OOhMbJj3FZHJBUtClRQIXuHtaNeyPigUuHv4kJEcaz3HIzP6CJu25J+kaN3meAM5CEd//5vQB8Mx6y27GOywURnZtnAK5+IL3/bqTPvHRuFpOb1d44SHqx2pCdHW32N69D5+3LL3Nt9DRHOVISAEQmUo3e9llGpwcAatbf4eZ0MeWF75rL9dSwr/HAAVvjXrYq/KD9/KlqOWs1KJj44krzC1vORXJCVOXtVwc3ayHuKSnZFEXExMmYNjUDgSXCuE9MuHSSo+b6d045Ia78BQHGw11sNqkmIjyTE7ERzszYUzR61b0PIvCTu3anh5uIAxm9irl1A5B+LlKBERUZhA5kBInVBUlD0fIjX6HPEpZRM+bRy98PH1QikbyUiOIT4xpWjHgs6xGtV8HYk4nf8UXPEl4eQVhLurI5j1ZCRGk5BkIqh2GGlXjpGcWRDHtvWherCX5ZSEElXJJF88SWJ2oQhTU612HWzLWfIw6RO4EBFZYmudhL17NTzdXZANWVYmWrcQ3O1MnDtXnEvgbTmUy5DI5ciKj3UuNMjWxRsPd3c0KgX6nHTiIi+RW7T6o8avZh2U6Ze4ElPy0P+C/6ee50pcIWMFzt5BuLk4gOVgoaQoEpNkgmqHknL5GKmWrXoKFWE165ITf5aopOI8DYWtH6HB7lw5c4QSK09onHzw8/ZAIeeRaNk+KTkR6O/O2VMnCsy3I6hOdTTljH9m4mWi40rnzWgd3PH08sJGo8SYl0X81Utk6UusOSg0hNWqTXbMKaKTKz7RytbF4iceZdzDkJXAxUv50RiFcxBhPkounjqPQbIhoHY4hquHiUkHO88Q/Bxlzp67iNrBg4lPv8iu2R9y1miLl5c7CnMeyTEXSSmIsuU3pMW/di3rmRr/vPRZsVy6FHO/32XvyP4LgXBHDoswShAQBASBO59ASYFwOEG8eenOH7Ebs1AIhBvjJUoLAoKAICAIFBAQAuHedgUhEO7t8RW9EwQEAUGgygio7VwZOmo8+1d8y6nk9CprR1T83xAQAuG/4S5aFQQEAUFAEBAE7mgCQiDc0cMjjBMEBAFBQBAQBP4bAkIg/DfcRauCgCAgCAgCgsAdTUAIhDt6eIRxgoAgIAgIAoLAf0NACIT/hrtoVRAQBAQBQUAQuKMJ3LUCwd7e/o4GK4wTBAQBQUAQEATuZgL79u0jPv76B5bdTB+lOnXqlD6E+2ZqKec77dq14/ip07eoNlGNICAICAKCgCAgCPyTgGQ23Z0C4fCxwuNKxaAKAoKAICAICAKCwK0moFYgBMKthirqEwQEAUFAEBAE7nYCQiDc7SMo7BcEBAFBQBAQBKqAwD0vEFQKBY5qLVqlCsuLxAwmE+mGPPJMJd6CVgVgRZWCgCAgCAgCgsDdTOCeFQiW1xJXd3Kls18oaoXlJeSlr78TovkzPhKj5eXr4hIEBAFBQBAQBASBUgTuSYGgUSgZFlYPF63NNYc722hg1YUTpOTlCrcQBAQBQUAQEAQEgRIE7jmBYFlSGBRSBy+dXaUG2iISvos4Qo7RWKnyopAgIAgIAoKAIHA/ELjnBMKDHr487B1wQ2MXl5PF8nPH+OehDVoPcGkqodSCIR2S98oYM2+oalH4HiWgsHVFrU8mT+jKe3SERbfuNgKSxgn0aWXu43dbP+4ke+8pgWDJNRgf/gBapfKGGJtlmblnDpFl0Jf6nlcXifQTkBsl49pcsoqE9ONVcvZThfaqbNV0q1N8aqRBb+JyVDanEm/lzCQxbmwoHbKSGb4imcpmZTh72tIqUFvG9r+OpxCXU7khkJVaZr8UzKHNF5h5tJi/Xagb8/q5olIrsTPn0vPTS5huL/oKOqDAu1ZLOrV9kL3r5xERnVZcTqnDLygYB1steRmJXL18FWOBzW0HPo6/my22Tg4cXPwW+2OkygFSOTHkhec5NftjjqRUEmqJmlWetRjarxuSpMLRCb778lPSCzBr7LyoHuZfjh1m4k4dJLH0z6Fy9t5BpRRaB7xc7YmJiSnXKluPJowe1YllM6aQmm24gywva4pbUG28nWzLsTGPi8ePYRvUin6dwpkzc84d1Q/ZvjHjH2/Jhi+mEW8q6/NK1xCGPdIXUOLorGD5tE9IvnE3t/bZpclw+tYxs3X9D8Sk3mQldxS9Gzemc80Mmpo1fBChvaZQCgnIZChaPriivmYj95RACHN0pVdgDWuHLbsVlh7YjbejEwmZGfg5uxDo7Mb+qxcxmU3U8wmgro8/CsvWBuBQUiy/R18qBcuvv0TMJhmzHpwb5ZdLPXR7ZymdjwNbJvrx/d4UUICHhy1NgzTMW3SeNZdunUio96AnD+SlsfBoXqW9stZDvkxtq2PrqaxS31n/WywXMipXjSxLjOjhzbm/YtmXWJZtcKgrMwY63iECQcIxuDVDezVk03eziSpxE5I0zvQe/QQOeXHEJqTi7BOMLvs0y5Zvoni/jB3dn/wfCWvfvmGBcPjrjziddfO5Mhr7MMY90Z8lU4sFgq1zKM2a1bMOlEdIHTTpkUQlWgSPiXM7NnAlp5IipnJDfdtLudXtQp9GDsxfvLrctlU6T9p3bMrOrZvJNdze3/WNwvBv2Jbq3s6AlqD6tUg+eph0ayVZHPjlZ9SBrejbsTpzZ82/0aqrtLxVIExqytrPviW54F5bXoMKlR/jnhvB6q9vXiAgKajeZhjt6zuzcdFsotPucoV7EyMT6JFLuFnFtiTVNb9tEQj9TTZMibp2uXtKIDT19KOlV/4TUaFAaB1aCx9HR7adOUZmbh496zayzLP8eOoIzQLDCHL1sJa3JCouPHu4FFTf/gpiN5mt0QOte/m8o9ZU/saiUkmoFRLIMnlGGXPBVy3/twxTngm0agnLbTnXYLYUwyIQNo32osNH54oMaNvWj/FBJoYvjC36X2Hdlu/ojeaiui0FJIWEVpVfr95gRqlSIBXYYNntodPkTwRmk0xu4SNvQc06rYI8vRmVSoFSAqPRjKEgxGARCO/VMTNwfrEd/6RU1GdKf9dSTq1WYHFAy6XXm4uetkvWUZFAsNEqMOaZKZRICqWEVgE5BTd6jUYBRsvn+X23tmEwF0chJNAW9MlkltEb5euGJhV23ox9YiI/z/iIS1klbz5KGg17lbDoZXz/+/kC87U07tqVg1vXl+jOtQSChFKlQqGQkM0mTEZTvj0FEQSLQIjIM+V/bjJhLLVNt/i7FqcxGQ2lxt9STXkCoSTnpoOewun8T/x84EypIVSq1EiyCZMsobJE5iQwGSz15zuvJCmsdlvu/bLZjMloLOKoVGvBlIcsqVAqFdZ+GY2ltxcrlPmfWb5kNhmwjEXhda2688tIKNUqq8iXZTMmQ2HbEmqNBt9G3Xk4QM/363/BMroGfeGYSajUGqw/RWSMen3ZsZeUqFRKa7/MRiOmot1OlrrVGA0GLLZbxsNsLG13+XeKW/VfV/q/+DjHPn2fiBITrntooUBYgEqtRsLiB8aicbI8Xag1SowGY5Hd/xyP4rEo4UOSArVKicHwjwjLP/4vKVVY8r8s/mE2GTGZ8m8ShQJh3ZRZpFns+of/FFK5pkCQFKgKfKxk3RURrd19As2crrBg+RZk613vzr8kSUYjSeT9I3xruaeV/J9aIVv91ixLRffh/F8CaJT5vx3ZLKEvZ1pSKWTrPdzyXf9q96FAaOUdQBMPXyski0BYfmg3I5u0tsI7nxjH8dhI+tR9wPr57+dO4ayzpaFfYP7kYTbxzYn9pW+OtmDKAffW/14ghDby4oteLmSn6bFz1pIWmcpj82Osk2KnLv4M9TRx2dGOumozLq4a9v1ymdd2ZpcrEHp2D6CXfSYTVyVb7Q1p4MWXvZy4fDUHOzcdNhmZjJwbbZ0kZIWKtx8PprbCQIZGi6tsBEnmr78T+HhHBi6utrzWyw13Xwcy/77M5J+LowEKhQ2b3w1g84EcOla3QdaqMKdmMnD6VesN9XoCwS/IhVkjvYmPzyZboSLIGT6ec4FdBZGCdp196eGjIjzEgYVzjrM6suyPuVyBIGmZ/0EQK18/zTZz/ncaNvfhjbowYI4lnCzx5is1yduVQI0WHriajSht1Zgi43hkfjIGWWLCsGB6VINTMUYahtqyYfV5vj1x7TCzZ/0B9GmUybxF20otwyjsPJj0xJMsmf4+6bnXiupUJBAU1Oo4mlb1fEhLTsfZ1ZmIXavYvv9MkUC4uuccYbXdQG2HTpnHntXfcDQqP4xas90wWtWrRmpiApLOHUdVIsvnLyS7xFPxzQqEpgMm45lxAVVQA9yUuZi1TiiT97Lou60YlC50GTWeatocEpMzcPXyJXr/Wrb9aXlPig0dnngVw/aVVGvfE6VZxk4nsXfVVA5H5UepXMI70a9zI5IiL6Nw8MXdUcmW76YTmZYHKle6jhqHryaHpIK6o/5aw097CwSMQkObwU8S7qUlNSUTe1dXMi7vY9XabciyI50fGYCbmxeOGgNx8cnIZgPb1i2x5ozIspamvQbj66DD39+LBVPfpaTeU2hdGDT2cezkTPKwRSdl8POymVxKNSHLfox5cQRnDp6jZngQZpUdKn0MS+bOtYr+qr+uIRA61eF4ig3hTjJqO2fSIn5j1aad+ZOG3IiJrzTn1KEMwsP9yM414Wgrsfqbz0kwmLAPbMqAPp0hOwXJ3h1FxjlWLV5GhhzIyIldWTH9W4wKJR26t2XPj9vJdqvH2N4NmD9/CbI2lJHjhyBnJZBtUOLmasffq7/icLShQCA042oEeHmo0Dq7Q1YkqxbOIy2nWCxWJBBk1PQe8yzO5hRScpT4eNqxa/m0ay6xygo7Bkz8H5e3fcGByoYyq37grtmCwiaPj+oZ+eRvO5IL3MjRNYfnnFS8e1GNWTbTISybji4mknIVeNnK7D5vy/qCSIGtxsCIYD1OdkZyE2yZfrX00sEDgVkMcDeRkKPAWWfmRLpEYLaOz+6nCEIjdx/a+uRP+BaBsOLQn4xs8rD17wtJ8RyPuUrvQoFw/hRONjoa+QVZP4/JzmTF+ePlDqJ7m38nEGSVDT+8HsiMuef5OdKIVqfm9SfCUP5xnlf/0lsFwmsP2fDh/Ev8FGnAydeVlROdeeK9C8R4OLD1CX/2ncuyykQHOzUOxhzeWhrN+UyLJ6lZ/VYQn0w/z/5kS3RAydMTqpOz+TQzL0Pbjv4McsrimTXJGBUK3n2+JsdXnWPlldKTYf8RNWkfF1mOQAjl921XmL4nA4NWy9xXQlj7yUnWZ0lWgTC9kz0HrxYvS6zeGMlfyfk/fJVaQTUdXErPl8Vt2/sx0kvP2OUJRZwtSwzTX6nFzqUnbkggLPggiBXXEQitbWS+XnyRDef1KLUqGjuZ2Bcv81Dbaoz3yePZVQlkmkDnZMOKp6rxwhfnOJdd0e9YounQ13E89Am/nC4durRx9WfMY4OY/9XnXFMfUL5A8K7ble7NvVm9eDHpuSZ0rtXpP/wRDq39kpNxGoa88CLmAytYu/0ERtTUbNaX1vUcmTNrrtVYjYMrKn062ZbZT1LRcvSbqPd8xe9nkoo6828EQpNgR/7eMJ/9Z2ORJS2+Hiqi4y1CUsLexY2slESrYFRoPRgyYTS7FnzKlUwdHZ58nerGM6xeuorETAPhrYfTxC+BJcu3Wu3qPvpl0g+tYteRiyApcQt7GGPkbtJyLCLrn3V7MnTCKHYu+JSrmRL+rcbRLTiapSu2kaU3odK50rjFg/z9a7F4q9l2BPXtr/B9wST5z5G1cQ5i3IRHSwsEyZbWo57B+dQqNu8/j0lWUb15X1rVUDN/4fICgTCJ6H3r+G3PIYxKFwY+9SxnF33E4cTbse5dsUAY0r8Ne1bP4fClOJQO4Qwd34udMz7lUo4lwtKIif/Xh5RjO9j8806y9TKOvqFkxkRgUngx6PExXNwyh7/PJyIpdTw89BncozaydvsZOo97novLPuF8ni/jXnicLfM/JNGuAQOaubF01Y+WkcfFSUdqWpbVD9xCW9C/U3Xmz1qE0a4x45/sw9EfvuavMwlIGke6jHoW+3NrWP1b8ft0yhcISuoNfIFql9fy09/nrNE/9xoP07dtCPPnfFcmSlZyfOt1HkOodJIftu39j6f+yjYv83yjdPaet2dPuiWHTqZvvXRizjqwL09BbZ9sBrjC9NM6Uk0SjjoDz9fJZvUJR46XWApsFpbOg3m6UgJBVhj4oHEec4/YcckgodUY+V+jTPSR9veXQPDU2TE8LH9N1SoQDu5msEQIUgAAIABJREFU5IOtKyUQtlw9x+nUxCoRCAHtgpkbmkH3uYlFIXGvWj583we6fhxDyy7+POatZ9iiuAK1r2TV22F88uUZTtk58OM4H95cHW2J52Jvr6HnQ84c2hXN3EM5KGr6sP0RHWsOZBfV7RHsRP2oKwxcn8PggUHUSU7ize35SQGjJ4Tj8sdFvjxVOtegYoEQzHOfnuK0dcFT4tmna6HadIIpF/IFwqcPqfhie0oRt9PnMonJLXySkggLtadJNRucdQpcvex4QJvLgNnR/04gKLQseP/6AiHwRDTjNqaXCR+/Nqk6QXk5HIwtftrv0cyNT+ac5o/Iik7YtKPbk88RueA9jmWXjnTYuoUyenQf5n/1hVUgBDTuQbumtSxxKfbM+YqIouSs8gVC80Ev4hq1ls27C5cn4KE+T+KaspMte65YkxRPz/yYw2n5E5DCJYQJYwfx/WcfkWSJ2UoaqtWog7e7K1qNGseQZuhOz2Tt7uKln38jEGrIp1m61hKmL3upbd0IrVkTZ0d7lAoFYQ1asn/lG5yMsUQQXkO942O2nsiPSrnXaE2vh6uxYP4y699hrYbQtr4XEccOculCBJevxlh9vPBS27kRVjMcJwc7a93VG7Rk74o3OJ3gzIBnnyVizvscTa84YpM/SZzgh237yv1dlycQ1G7BTBg1mHlTPyG3cLnDLpjHJg1k05RPiacaY14cyy9z3+NqqoWIkodGvY393k/49czt2OJUsUDo36Uus2d8W3QP6TXpDa6sf4ujsQUC4ZWebJ3zCVeSSwtcu7p9GdlUyZz5a4rzZTzaMWlINRZPX0xgtyfxiVzEjuxO9GlZg/gDyzhNTVpWS+OHbflRV0fvUIICqmFna4PGzpVaoX7M/XoKBtvGjH+iJRunTCOuINqnqTWQ8e2UzJuxksKsmnIFgsaJcc+9yNXDe8nU54+zZONEg/BAZn71WanlqH8OsE/j3nSsbmLxys2VnaH/83INgzLpqlTz8XktNlojb9bN4e2DDtblghF108mJt2VNfHHOwNA66egTSv+vPIFg75nJS04a3ozQFPWxU+1UGqTZ3185CJbeDw2ri7fO3rpmuOdSBK1CalqhxGemE5maTONq+RGD0/HR6NQaAl3crcsL3578u8R6XWlf+bcRhIcH1OR/6lj6rijOeHdxd+WHZ+3p8/oVHrQsMbjkMmZF/pO1LCtY+VYNpkw7zQld2RwEt2AXlg5yZsDHF1A9HMTaxgam7LLcnIpvrrmJmfx21YRvdVem93Fm7uY40rVa3ujlxjPTznMmrfRiV8UCIYAnPzjLBevcJPHU5Fo4/HyCD8/kC4SKcxAkunX3Z1ygmXVHskjMNuPk58Dgamb6z7o1AmHVG6fZUjD5Nm7hw2t1Si8xpK+7xNQzZRP7Pn0mnNzz8fwZVVoMHDyTTlx2RWFiW7o88QJxS97lcHppgaBx9mX8+HEsnPY+WUULhmrajP0/kha9w3FjYfnyBUL7UW+hPDaTnw/mC0TLVb/LWILNx1j/2xmrQDjy9UecKkxS1PkyavJofv30AyIVtnQYNhGn7Iucu3iVPL0Jx9rdCIhdxJpdxdn7/0YguMXsYMueY2VuoHY+9enbrzNRJ/YTl5SG2SzTqF0/jq57h5PR2vwlhs0fsPNyvhh1r96K3q0DmT9vSVFdboH1qFOvHv7+gWjzIlm/fDlJOUbsfRvQp09Hok7+TVxSKpYUgMbt+nN47ducSnbn0WceZ9fUD7igr/jI9IZdx+NvOMDGXw9WWiDYetfgsaF9S09AkjeDX3qM/Z9+yHmzRSCMYMuMT4i1RpsUPDjyHVwOfsJPJ/5bgVAySdESmes58R2iNr/B4ahCgdCUVZ/OwqprSlxezUfQOziJOcu2FP1XVjZg/AvNWfPpTGzr9aZVUCzHtJ2I27uTLs0U7Iv0JMjwJ78ciMarcV+6NXLh1PGTpGVmo7T3pHWzBsyZXiAQJj3Eus9m5ItZy/3Noy2PDw9kydRFFBIrTyBItq5MfvoFdv+8jqyS+4lNBs6ePmHN0aro8mrYky7h8N2KTRUXusM+kVUG3m6Uy7LD9qg9cuig0DA9Ml8QTGiQRuRVB35MLj4VuEd4Bm5pNnwXU7ycUJ5A8K6WwQSNlncvFAuE1uHpNM2wvf8Egr+9EwOCwrEk31XmsvjYoaQYdkRfrrC48wMSGksCcTlX/K/XX3fU1fNja08FAz69SmLB/axmmwC+Cc+k26xk2t6gQFC6OrDhaS+eeyuCswGebH/MlmEfXqbEA3GRpZJGxVujArAzyWiMematjeJkOfexWy4Q3Oz4ZbIvQ98+S0LBWDxgmcTrSf9eIKBm2tthHJ51kvkF2wV7dA9gjJ+hVA5C2rqLfHWm7K6M58aG4XYpntd/zc8Dr+zVaNBr+EZ8xeZD/wCocmDg0/8jcs1X7L2cnxdiWfqprEBo2ONJaiiPsGrDroLvKmg79DmkiLX8djiZIS+8wMWFn7AvLv9JXONVm3FDujJr6ueYQrrxRCcH5s7+HutzoaSg4ZA3CL06+9YJhOgdbPmzrEBo3Hsyfum/sfH3/FCxrLRj8BOvcHzNm5USCDYaFbkFT4YotHQY9zqup2by/R9RNOnzFF4pv7J558miuoc88QpHV7/JqRgb2k96GcfDs1m/N7oosiEpLImQxcK3YbcJBJoOs/6nv8od4vIiCJK9H+MnjeEnSyJqdv5Tq8qjDmOHdeS7qVPJtkYQ7i2BoAxox4S+NVj57WySC/JWdLX7M6qZkXnzN2Dj34CB3ZqS5WDHhqlf0XP8k2TE5BD71zyOJDky4bmX2DL7I66m5Puno38DhvfvVCwQnmzL1i+/ILIgcOH00GiGhEYye1lxVKrcCILKgeHPvczJZVM4FJVa2Z+ptVx4u5HUsbnAmi27b+h7/3XhR2ploEpX4+VlYMkBexIL7p19wzNwz9Yy90rhJC8zoX46lyLt+Cm5OKpQnkDAMYfPQ2TePGJLlnW6khnRMA2fRHs+KxAgFfX7ntrFUNjJem6edPQNqdRYX8lMY83FU5Uqe7OFZFlmziu1yT0Zw4ubU3Gt5sTiCT58+MlpLJF/a5LitSIIj3nR+eOC8LMk8cTwYFppsxlkTciDua/UIu9MLC9tSCEXBb17VuPEj1c4a4Dwpj68Ux+eXhZLcp41WRzZLJc6U0CpkOg3vAbt4iJ5+pds65OgdU25IEnxpiIIdjpWvxLEj7PPsChKxtHHgTnj/VHEpBQJBEsGOLLEVy+Hs3PZSdZGQkHyszXSbMlODw514esBTvT+zHIOglz0ea+BYTzuk0X/GbGoPOyZP8EfZUxKpQSCaw0PVo10Zf6SC6yMMIJSxbQhzry8JAFrWkcFl0d4b/q11TJv1vdlzmRQ+7Vj3PDW7Fg+ndNRqWhdQ+g/ciiHp7/LCaOEZfJCtqPbE8+TuO5d/raEfc1mK2etV11GPdqPE+tn8Oe5FPybDaZ7EwdWzphFMs7WHATX7Essm/cdGZIrXYeNwyn5D5at2YHs2oKJY5qzZfY0IjNNeNTuyqAeLYnZ/XW+QJAkK0eNXShjHu/H0mlTyNCD+R/vIKloF4MlSdGtAoFQt+NYGrrFsez7H7E8sbYd/hx1q7nw63evX1cgyEp/HnvyEfasXsC52DQUNu4MmvQUV9dP4Y/zadTvPI56ztEsX73VWne7Ec9Tx8+ZXxa9zqkYGRvPJox5rB9Ht8zmz+NXcQhoQvf2NVg2b3HRMkVIi8F0qm/P0nkLkL0aUk91lr2X8sWdZTx0TkGMGT+CRdPeJzNPxvI7tVz+rSfQp4mWJTNnka63ocPwJ3BO3sn3G/cUJSnebAQh1DuLxzwkPjxuS4XBqmveaK63iyF/m+ONRBAs3e4w4kV89MdZsWYbko0vIyeN5+gP33DgQjw4BDL+8XEoL21i1qp9NBv4FI0DzHz/5dfEK+0Z9uwrxG35lt9OxaJyCKDf6DG4kl5CIPQn+dhPrN+6C41nfR4d0Z99K6dx+KplSVey7gSRVH6MfWYYa7/5jOTcYv90aPQoI9u7s3HhLKJSctB51qFzYzXrfiw/KlTY9x5jXydpzzfsO10o2G/27n17v+frkcOLoXqikzV8dlZX1LiDQx6v187jp1O2/J6hpIF/FsM8JD46aEdSwT3LcjttFppOE72Or6+qrREW6/1eNvFqk0yiYnUsjVJT3TuHMQF6EqLvU4FgiR1YIgl9g8JRXiOSsD8xmj9jr1onnqq+NDZKRveqRu9wW3LSspn+fRR/xORvy7qeQPjpqUDyjGbr9sjcPBOHDifyxS/JpBQeeGOjYmR3H3rVtkXOM7JzbywzdmWRJ4ONuz1zx/iQkKzHRglqGw0+djKvzzzPoWSZAH835oz1tB5IpDSbrW+5nDrzNFtiLT/c/F0MNyUQAB8/e94b6oe3xszZc6lsjFLyVF1FgUCQePapMLq5qdBqlJgMJlKTsxnwVX4kp8aDPkzv4Wy9eVi2KebozWDI5NEPrmIJxKs0Kkb186N/DRvOn0lifayGp+tI9Pk2qmgXQ0URBEv9vgEOvNDTk1puKlKTc5i2Npq/YozXPCRKofNk1OQn2L/gI44nlo1M2HmG075rZ7xdHMhOvsr+33/k3NVEa529x76Kj5Paur1ONuZZBcafi6dxNMHyZCShcwugXfd++LvbkxJ5lO1btpKYqbfuYhj8zJNsXfAdLboPxN9dx4WDP7Fz90H01pOjJP6fvbOMj+po+/C1vpvNxl1JQnCX4m6huLt7aWn70LdCjbZPS59SQ0rxFnf34hQrToAggQhRIsST3SS7+/52NyShBAiQthTOfCLsOXNm/jNn5pr7vueMZ822tGpWD1l+FpEhx7ht046aqRYXg43fKwzoEWQahpHJpeatfkZ9HOt+nH/fvvSnAQSxTEPdDn2pGeCKNv0OZw5up0rQBK5tLY2LQYytdzWatWyBm6Mtem0qVw5v4sy1GHPwmVhmQ72gPtTwd0WbdofTB7dRreNEQrZMNQOCqd5WTuVp3akLXo5q0uJDObpnO1HJRdYdkdSGxt0GU8PPkZSoq/y2Yyt3M3MxGl3o9fY4XCQSZDKLJtGn1rD9aMEOCZEUt+qtaNO0HlbiXK6f2sOJs1fI05sgwrKL4WkBoZp3JqO99Ew/qyEm98FD5B4/DpU9IJieKZZZUaVpF16pEYhIl8KJnWu4Zuq75qHRmk6T/o/0TZ/xe5QBp9o96FNHwdxFq83jl9TKg6C+/XDTyEmJu8654DCCOrYvBIQ+bTUcuaylTbs2WEuyOLFjJSERiea8rb2qM6hvD3N7mrePmvtnAht//LnA8ijCKbAxrVo1wlYpJS3uGgd37SIp8+Hfa3Gr14fO1fQsWbLBvGPp35SMIgNv1sng/BUbftfeX3Z7dS59/XT4qYzEpclZGaYgscB96WCl471qOsSmrYxGEabhcstlDScKAhiV8nwGBuYQqDJyIVZFiFxLV4OKL2+/RN9B+HNHsJLKCLCxp6KdE05KK6QiMam5WkLTkglNu8td3d8RdfzPds/PJwZyctMtdsYWmV4njw8k40Q08y+++PUva/Vt/VvTv3P1Bz6UVNbPEfJ7MRWQSfP5X90cPjujIU04cb7MG9naryl9uzbkyOq53Lzzd8SElHkVnqsMX0gXw3Ol8D9cmPfGBOKVkc72K9lk5oO7qxX961kxdVEEl1P+esvJP1z9sn+8SIxv3Vdp84ofR7cs50ZM0Q6Osn+YkOOLpYCRJv5ZWCWp2GveyiakslTArW4vujb24MimZVyLfrKYhbIsx4uUlwAIL1JrllAXkVxCx/r2VHdXmL80mJiUw5YTKcTmCHDwLE1v7VEFWcYNUjLK7nPXz1Ie4d5/hwI2Sj3pWgEO/orWUnpWR3LnMll/ywer/ooaPH95CoDw/LWJUCJBAUEBQQFBAUGBf1wBARD+8SYQCiAoICggKCAoICjw/CkgAMLz1yZCiQQFBAUEBQQFBAX+cQUEQPjHm0AogKCAoICggKCAoMDzp4AACM9fmwglEhQQFBAUEBQQFPjHFRAA4R9vAqEAggKCAoICggKCAs+fAgIgPH9tIpRIUEBQQFBAUEBQ4B9XQACEf7wJhAIICggKCAoICggKPH8KvNCA4GGloYW7L7YKJXKxBNOXz/OMBrLycjmbFMeluwnPX4sIJRIUEBQQFBAUEBR4DhR4IQFBKhbT1tOfSnaOiHj4YR2x2ZnsuH2DzLyCU4+egwYRiiAoICggKCAoICjwPCjwwgGC6fTG9l4BVLJzKpW+KTotK25eIs8gnJxSKsGEiwQFBAUEBQQFXgoFXjhAqObgQjtP/ydqvNtZaWwIu/rAPVJrcGwkQqoB7R1IOW3EIBgbnkhb4eKnU0AkVSA16sgTuPXpBBTuEhQoawXESsRGbcER2GWd+fOZ3wsFCCKRiLGV6mA65vlJksFoZE7ImQesCC5tRWRHQNYtI47NROQmQ/qVv/mQI5EIJxupOX7iXtLp9KRpi45vflRd1YFObB7sgkgswqjNocu0MIrf2rizP5/VVyKVijm1O4z3fs8uzE7i7MzeSWoGTY0grownKpnMmh1T3Rn331DCSzh1WiaXYK8qXmtLsVIz88gtZVmMyJg52Y+TW8JYdbPoUCXryi5s6u+EWCxCl55Fp+kR5nPtn5ck03jTuf8g7hz/leNX4ouKJRKjMB1bLhVj1OeRk51TWO5Gvd+mpq8tEqmYS6s+4cjtUtZGJKPbGx+QvHMBR2/GlfKmosskdr6MGTUcECGValk3+2vuZFl+F4lkqDVWJeaZl5WOTv88qf7EVQeRBIVchk6nLflmiScjXh/I7iUziUvVPcUD/r5bpAorlIqSxk0D2owMFI7VGD6iC7/M+Jrs3Oen3YxWlRj5emcO/DidyNwH3clijRtjx44r6J86Ns+ZRnTG0+kqrzmQ/lUy2bJpJ2na5/OQtsYBGTQyyPkuXPHISvr7ZDJYrODziEfPlS8UIPhqbOlZrrJZmHyDnrXn/8Db3oHYtFT8HJ0p7+jCkfDr5OXn84pveXzti9wQJxOiOXEn+j5RPXuKiNtusRrY1bZ0vtTzf/PLoVGx7X0/MhJyMSGBja0MjdTIwmWhrAgtxUwpEqGQivDysWVuf/sHAEEsESETixg8IpAKV6MeBISJCvpOjSbp6d6ph95lAQRXRk29RVTeg5dVaeTJrLZqrt2532Tz09oIQkp5kqsRMR+O9OXcngh2xxRrN7EIhUSEf3l7vuusea4Awaj0Z/iEIQRvn8fFm3cwweu91KjHa9TydyA1OQW1gwu5cSdYuWY3+QYQS6SIRUpajn6X3J1PDggxm+ZyJuopgnZFIqQSKUacGPbmMHbMLQIEmdKfbn07IBaBSuOIQpRDaroJQA1c27mE4MSHTKxl3Nf+quw0PnXoF1SPhfPnl/wIsT29hvbm8PpfSDKdtf4cJ586QTSs7geIsXN1Q5cYT47BNOJk8fuaJaRbV2f4iI4s/mE6Oc9RVcyAMLEDO7/5kTuikuLNTOBq6p+ODJ40gv0Lnh4QRGIpVduPoFl5CRsWzSWhhIXNP93EVb2yqGuQszT20RO/CRB66pV8GyN9ZJFfKECo5+xBMzcfc4Xz9HpWnD1GDU8fnKys+SPyFrr8PBr5BZrDFk9G3qJl+cp42Nibr0/SZrMsNPg+sTx6ionfbsCmigilp+UnfcHq6N6FiYf+YmAwAcJkb0Z/et3yAohEtGjhzuRqYrrOvh9oHtXS3r52LB7s8AAg3Ltn+JiKVL72zwKCQg66Ah4wAcJnlfLp88udv+ydCwh0YFZ3m+cHECQKeox7lzuHfuVESFQxq4YIn5Yjael8mw1bD5Kly0cst6FF34GcXruAzEKTioLW4z8k/+8EhILWMRqdGfXOqPsAoXjDVW07nPKiK2zZe/ova8+/O2PH8o3p1tyfxYuX/92P/gufp6bz/73L7Z+/JjizaAZUO5ksCP9GQLBIZTQ6MWzyGA48AyBYcpJQI2gYNW3vsGz1dvN4/G9MLyUgmODABAn3AGHVuWMMrtcMsUhEaGI8IfExdKte1/z7wZshOFhZU9PDAhS5Bj0/Xbl/8FL7iciOtLgXFA+JeYzZUDpAcPWz46POTrgpTEQL584n8dVvKZisrO06eDPAKY8DWTI6+StxsBKxbmskC4N18GdAAOQ+9uzuZ0vr6RHmsrv5W/J2lVvyPnMukWm/pZotDvfS0wOCku3BUKecEge1mOCLSXywNdkyeUmkTOzrRTMPKTk6A1ZyWLctivWhFpOASCqmTwcPele3Ij/XiEJi5NCxO8w6nsGfLQi16rrwSSs1H80PJyQdHgcITm7WfNrbDXuxgXyRiNx0Ld+vj+Fagfmwcw8fenhK8XJVMXfuZTbFPPgilwgIIgW/fFmOlR9dY6/Bck/tJh58WMlA70Umc7+Iz6ZUInNvLPJqDtRxliKXiQk5G8OU3ZmYbDqvtvagfw0V2VoDDkr4ZcNtdkU93tqjcGvKqN4B/Dp3CdnFV2kSOQNfn8KJld8Snpj5iPHoYYAgwrlKS9o2r4/UkI9EnMfV4zv5I/gWFLgYUk7/gWNgILY2GshJ4vi2pdxIsJjFnco3pGXzhsjJwyCWo0u6zt5du8jUFfX9pwWEKq2GUc0+iQidM1V8nRBL5WREHGPz1sPkiZXUaNuDmv5u5Ol0ZtdK+Nk9HDsXCkhpMvpD1Oc3kluuId4u9siNWRzduIDrCRbKVDlXoG1QO1RGHUaZGkluEr/v2kTM3Www592TWv6u5BbkHXZmD8fPm/K2pPKvvEr92pWRGgxI5BLirh1n74Hj6A0aggYPw8VWg0YlJiUlzXz97tWzSTF76OS80ns0ftYSHF0cWT9nKgnFms1olNKw00Aq+jqZHDPkpkdzZOsaYjL0GI2uDPrPKK7t24N//aZYW2vITbzKlg2byMotnVvx2SasRwPCgd+vULNqBdRqFfEhh9mx77j5cUZjZUa+34HzO85SsdErKKQSZMZsdq5cRFx6DnJbL1p17Iq7nRyRTElK5Dn2795LhsidIRMGsPKHb9GLRFSoUYOoS8HkaHwZM7Q7C2bPwCh1ok2PnnjYKcnXG5AYtZzeYeqfuVgsCEFcPnCTwFoBqG1tSIu6xG87tpGaXfTOPQwQjEYJtdv0oYqfI7m5BhQSLce3LCM85RFmErkTPUaNI3b3j/wR/qcV41OKr7LR8nl5A5+fs+KeB8TaJof3XCV8GirHgJGa7lo6ueUhMph6jYjfwlScyJCYn2ityGNcoA61Uk/KHStmRd1vQQhw1tLTIxeJUYTRKOJctpFaWhXTXyYLQl1nd5q7+ZoFM1kQVp8/wZB6Tc1/hyUncDkuiq7VLIBw6NZVbJUqanuWM/+doM1iReilEpvXqcUzAoJExsopAezZFM6Syzo0Diq+H1+Oi+tvMPuG3gwI7zdUsW57NHPPZuNb3Y1FPZQM+zKCGKv7LQgKpYQeHTzpaKNl2LIEkMhY/WEAO9aHsyxEh42jiu/HlePc2hvMuVn0gjw1ILzlxKIVt1gZkouThzUzx/hweuU1vg+1DFZ1Aq24HJqNaUi2crJh3QQnXv9fGOG50KiFFx/VgvHzoonSgrOHNW+1sOaLVfHoi7kYPOu58fYrCj5fHMmVgrfDBAjTG8pYfLLIYXjmYgqR2ZbnqtQy6tsZ+T0m3wwrPbv60lqSweub7ha2oelF+OmDyuxfduWJAOHXL8ux4jGAUF9sZNvu28w/k43CVkF3lzxWhhqoWM+dT2rB20vjMM1Tjr52LB9kx6hvI4h9TIBrYJf3qJH4CxtO3m/qF8tUjJw0mU0//5fkohCREvpqyYCgdqvBoIEd2Lt0NuFJOdh416Fbj3acWf0DVxON5hgEh6QLrN+wnYx8OdVb9qVZdWsWz/4Zbb4RlaM3dsYk4u5aYh6aD3oX2eW1HLhoAVTLBPF0FgQTILSo40n0ud/YeeA0eok1VSs4cOValBnGnMtXI+XWJfKNILH2pe+IPhxfNJ3IbJkZEKopUji8dQXXolIJbDGElhVSWLxgixnUGvR4A5e0o2w7cN6cV7kG3ZFE7udWfLol74Cq3A27hN4oKsi7N8cWfcvtbBFq/yAGdvBh19oVRCdnIbN2p223Vzm8ejHZBbETXjW60LqmmKXLtpQ8LYg1jHp7MtvmFQcECYEdJ9JAfZ1NW/eSlS+lSvPeNKkgYfGCZeQbXBk0+TX0t8+yZ/sO0vKt6DtxMre2/MSZiMSnnH6e5LaHA8KIUb2JOL2LfUdOYbSrzIBhXTg862vCc02TjgkQ+pAfG8G+bWuJS83FrWZrMq4fICtXRetBr6GM2MPOIxcxSjW0HTAOdexBth64TMtR7xC77Euu6zQMfmsyp9d8TVi+D8N6NmbR/CXmVbuvjxtRt2PMix7bck0Z3L0ii2ctIltRiZFvDCTh5Dp2HgrGqHSi06AxyCP3smn/2WL9s2QLgkfDwTR3i2PL9v1m14ljxdb07+DDop9+RfsIpg9sNoR6LtGs2nDwScR96LVGo4H362Ww77qGs5mW2KvWldKQRGnYmyXGx0nLaM98Fl1Vm2MtvB20jPfPY1GwNWHFYi8alk+nvk51HyAYRXo+r5vFhhBrgrPF2Fjl8X/Vs0iPtn65AMFTraGvf9VigHCcIfWalQoQDsdFci6p5CCtZwUEh0a+rK+dQ8c5CdwLVfKo7cnqVvm0//4OzTp4M9ojj36/WALSTFS7bmp5pn1/nfOo2PaBPzKtiSHBSikmPjqNqUujuZoJjk18WVczh6A5CeZJ2pS863qyokUe7b4vet7TA4I1gz8OJ7Zg8VInyI8fAzNoMysJk53ABCzejnKs5WKzr/nDwb78b04Ip1LkzPk4gEM/hrA29cHVu8WC4MbigzmMrC9n0o9hXMspus4ECN81UbD1ctHSa//RJG5kFq23jZjeAAAgAElEQVSi7O3luGuklhiLCg4M9cynz6KiNnwqQBAr+PW/jweESrfiGbAm5T4rjUn7D8YFIo9IYltoQWuI4KNB5fhmwVVOxj1qBaig5bgpZG/4klNJ95OEWGbP6DfHsm7W/0jRgWO5RrRpUcvc1pe2LOFq6j1qKBkQAoNep6H8GMu2miZKS6rafhxVpGdZt+uiJUhxxwKO3rJoJ7Z2YfzE19k8+0tis0w9Voy1vRPWahVSsQSnWl2omLOfNXsvFxuAnx4Qmvjls3DRcowlmGtFEgX2Tk4o5XKzJbBO0DDi9nzK6UiLBcH12hI2HrWAisatGoP6NWfRrDnkGaBi84E0q2rHsb07iEu8S1paxn3BqH/Ou27HYcTs+pQzUXI6vP4RObtmceTmwyflcnX70LRiOstX7ik1IIiUdkyY9A5b5n9FzL12s3Jj1MTRbPvhK+7kOTPoP69xYfXnhJgjg0XU7PsBHreWseusCZr+6vQIQBjZi19mfE6Wzmgeo9qO+YTM3Z/wR/Q9QBjAubXfcTHcYlG5l2S+TRjTqRKLflqIrqCNRW5NGdcnkGUzF+PUbiLVEhexI6YBQ/o3J/aPdZyKV9CjuStLV+w1ZyNT2WBnZ4tcJkWqsqFzt94sn/UxqSITIHTmwHfTicy3jB/KSp0Z1dqBRT8tQVvwvBItCCIxPSZMIeHUdiITTNAIIoU13Xr2Y8VPU0nJLCE4qqBSjhWa0q2pH4sXLyuzBmkWmEGdXAUzIuVI5Xo+q5HF5+ds0Bmgf5V0jHetWBNfFDMwrFq62VqwNbHo/0oCBIVTFp86Sply/V7gopGO1dKommL9csUgmFpqVKXa2MgU5iDF9RdP0b92I3MDRt5N4mpCLEGVapj/Ph5xA41CRXV3b/RGA7OvnL4vIKx4qz8rILToXZFJ4jh6rbV0QlOyd3Bg0zsaekyJpJ7JxWCvZeRqy2BkNIpZ82kFvp15jTP6+y0I371VieD9YSy5ZJlEWvWtxOvGGHqtK1ppOzk7sPFtDV2nRHIvnu+pAWGikr5TowqDFD2quLOml5igL2IwOFqzcLwXuvhMzkbrzINylyYufPnTFU7mWLHlPS8+/eg6F0oY+C2AUI70qHRE7mp2rbnJwpCiF/JxLobaDdz5toOGE1fSiU7XY+Wkpom1jl4LnhEQJEp+/cLX7GL4rcDFUKeJB1P+5GJIXhfGzNAHI9O/f7sS4vgUrt+9HwZ2nUgmIv3RgNB6whQy13zJqbt/BgQlIydNYeuCqSQU5iGhwfCpGHZ8w+nEe21fMiA0GPAJnpEL2Hi8SBu/en1pHJjKitUHzYBwX5CizJbB/5nMmTlfcy1DS7V2Q2lcwZ6wm9fJzM5F6VEDt7S9rN5dZHF7FgtCZatbbNhx9IGBVqxyofvICWgyIwi7HUdevgGfak2J2P0Zp8IlFhfDqfn8Fmypl7VrZQYPaM/iWTMKd7q4BDamRatmONqo0SUEs2HNRtJ1BsRWrvQYOR51RgThBXn7Vm9K2M7POB2tYvBb73NhyXdcTrx/siteSP8GA2ngHcOq9YdLniRKsCDINE6Me+3tP01AtvR47y1Cf/wvl7ROZhfDiUVfEp5umvBEVO/1Ab4xy9l+srRbU55lzipdDIIJvluP/IzcQx9zLPweILRlx/SZJBS8N/dK4VSjEz3rWjP/lzWFBTOKAhn+7qvs+eZHdL5B9Hkljd3JdVEl3qBeFSn7zuXSwieGtfuuIXOty6D+HcmIuU5cQgpGqZK69RuxfNaHpPBgkKLRrh5jR9Vjw7c/c/eRgCBh6Bsfk3DzFGlZ98PAhZMHyNE93IRgF9CA3q2rsnDB4mcR+757jfJcvqyZy9wzamROWvprpHwdJjND7bhaadyO1LArpWhn16uVMnBOV7KkWEBiSYDg6Z3BcKmCL8Plhc9rWimdhhlWLx8gBNo60tkn8Ika7VZGClsjrj/0nmcFBJuGvmxrmkunb+O4tx52q+vJ2mZ5tPsxgeZPAAjuNV35tbWMXt9HkSkSYdeoHFsa6+j0XVHenvW9WN1YR5sZiUVWhacNUnxLzaCPI7i3+K3a1o/Zvim0WZTKWyPLI78Rx/+OZpk7sSngfs0nVflx7hVOJsmY+XEgUWtDmH7tQWnvWRDGfX4TWWVn5naz5f3poZzKtqwCHgkI9mp2vuHBxK9CCS9wFVap78YXtUTPDgjImftFAAe/D2FNiqUs7dp7M847774YhKS1Ycy6+SAgfDwhEN2FWL458eS+yap9PiHg1g9sPfenfVhiGb0mfkDUjnmcCrsXtFl6QAhsP5EmdsEsWft74Qq6WodxVBKfZv3uS2ZASNo2n2PhFguWSO3MhIkTWT37K5I1tRjfuzor5i4ms8C07tt2Ao2kR/9yQCjXbDjNXEJZvuFYQf8SETRmKin7p5YaECwVEiGTq2g+4C0corewbt8V/FuMoLHDNZZvOlEA5SJeHTOVpH1TOR0ho+3rH6I6tZBtpx6+ag9oPJgGXjGsXPsQM3MJgHDPgrB7wdeEpRSMBlZujH5tNJt+/IokswXhXwwI38wkwXi/xVDq04Rx3WuwdMYcMu5ZENybMq5neZbM/sVkEmP48A5E5ag5sWQmjQe+RlJIErLEtRwJNdBj/BQi9i3mfME2XJnakbGv/4cV9wDBtM3RZEHQW54rC+zI2JY2zJ2/2hzXYFl0leBiEInpPWEKEbsXcias2HbiUsweHtVfpW0tOUuXbS7F1aW/ZEi1dDITlLh4atl1XsPtgi8B96uSjjxNxbKYotiC4dXTSYqzYnvSoy0IYodspnuK+OCSqmA+MNKzRhoBd62ZHv0S7WKwjAUimrl5U9fJEqz4uJSQk8XqW1fMVoS/KhnFElZMqcDlQ1F8czQTGyc1cyb4sPOX6yyPNliCFEtpQTCtKN4fXx7RpRimHcvGlPeqDytw8cBtph/LwtZZzZzx3mxddINV9/wCJrfD0wLCf1xYs/YW889r8fKzY8ZQd5bOvsbmZKMZELzik3hnZyoiiYgxAwIYVFXJe99f5mQi1Kzvzo8drfnfr+HsuZ2Pp48NQ2rImLYtCZlcU2ybo4gO7b14s7qY3t9GkC0SPRoQbK3MOzt+mnGd3clg5ajmh1E+OKWklgEgiBg6LJAgfRJDVtxFYqvip3HlsE9KKRUglK/nzux2Kr5eGsmhGL1p/yFvtrFm3t40HrepT+3fhaEd5Cyeu4Fi8X/mbmldvgMDXq3E4Y1LuRGdgkTpQOfRbxO75vEWBJVzZYYO68WZjT9xNiwFe/9GdO/cmMNLZhCWLjIDgkvWDdatXE9anoK6HQdTzzOdRfNXkedQn7FDmrBjwUxiMg0oXGoyYFAvtFfX/fWA0GQYrfxT+WXZFjN8Vm4xgNaNqnFm7UePBQSd0YHO/bsQcmAz4fFpIJLTdtg7KK+vY/uJUPybDae5bzK/Lt9mzrtKq0G0alCF02s+4nSEEbl7E0YMbMG5Xcs5HXIbhZ0PLdvWZ//GDeZtpabkWaMznZp4smzeXPI05Qi0zeTq7eSiYaTEGAQx5dqOp225dDauXMPdHDE12w+mvmcai39Zj94Ug/AMgKCx0dHbyci6cCWZpYuf/tOw94wWhBIAwShS0HLgJFwzz7Bu8wEMEhteHToBY+hOdh+7jEjlxJg3JiFJPM6CX3ZTreNY6pdXsPfnmUTki82AkHJyFYcuhCGW29K89xiq+9izbGaBBeGNQaRe3M7mXSdB7UX3wcPIvLCRvaeKViYPC1J0bTiIrrWU7Fy7kpi7OUhULrRq4MyBQ1cecB8WF6pBr8k4xm1k5/HwMp02yrtlM9o7n7RMGdOuqgrzdnfIYZJ/PmuvqDmfIybAJZsxPnpmX7AmusC1Yrq4xBgE9HxaL5NzkWq2J0jwctTxeqCW5JiXEBBMIpk+t2zazdDQxcvst3xYCk2/y76YMLT5f/3GXkd3a97q7Ep1Ryn6/Hx2H77DojOZ5q9yPRkggFdFR+Z30zByegTxRszBg293dqWqgyXvXYfiWXTGsqovV82ZaR1skUoluNpIiL2bizE/m7dmxGJai3bt6c8APzHWNgoUuXkkaw2EXEzgi33pmD6U9GuLXPbkauhWRY3KqGf7wTjmnrKsju1c1Ezp7YavAjK0es5dvEvrtt58+/MVMyCIJGJaNHBmdDM7HOUi0lJzWL//DutDtA/sYhDJpEwa7k8zfSpDlyRQ7pVHb3OsXdeZ99rZo8vKJyc7lz8SRXR2zS8ABBFjR5WjlZ0UZ3sF2ela4pOyGbs41lzugNqu/Le1BplMgrO1hNiUXMjP4o0ZcWZXirWtkvf6e1JFIyL5bg6H74jp7amnx3zT/ZZdDA+zIJh+b9zAidFN7FCLjOao632/x7PiXDaP+76MWGbDkDcmc2bt91yJftC07VmlGY0a1cNaLsWg13I75A9O/XGG7DwDTXu9TjlHOVa2Dhgzk8nRw9V9azgbZimzvV8dWrVuha1SjD7nLmcP7eBKWFzBLob3uX5wNxXrNMbZ3pr02Ksc3LGZxCzTTCimQuOuNKhVnrzsLPKyEojQehCYd8gMCEonP3r37G4OJLO1tyUr9S75+hR2L/iFpGLv3sO2OZqCFB/mYpBaOdG8c1987GTk6HQkRlzEOrA98fs/fywg5OpllKvVjHp1aqKWS0zVIOnWGQ4d/J2sXD1StTMtOvfB29aSd0L4BWwqdiB27+dmQDAl98pNaNykMY7WcnKzU7l6ej+nL1wr/JKeWOVMm56DCHTXkJ2ayLlDmwi+aXqrbGg7eiRuYpMm9mSmJZN4/Qg7D94LmpNStUU36lQJQCY2khoTwqE9u7ibYyjcxfC0LobKPhmM9TTw6yUNFwuC3Z5sBit7QDA9X2btQv3WnankY9oOZuD2pSMcO3aaHFP0qUhFxzc/RHJkJtvPJeBYpS39W5Vn3k9zMY3Mao8adOjYBitRHjptFrdDL1OvZfdCC8LAPrU4eSmFxq/UxFolIfzCQX4/+gc5eUbktu707dff3I9t7O3ITrtLfn46vy1YSIK5f0oIfCWIerUrITXq0edlEXJ8B8HXYx8KCNY+jejbpSab5v9MSl4Zb3OU6Hm3TibB1zTszrj/Q3EVnLR09cxDIzGizZWyJUxJSLblGjtVLhMr6lDIDCiNYlLzRey5puas1lI+dzsd/X11OEohOlXOBWMurfKsmBb1klkQir8MjkoV9Zw8cLfSYC2zBDnl5OeZdyyYTnIMS095sndHuFpQ4C9WwL5aV3o3c2H7yuXEpT3O5vAXF0bI/l+ngCka/tP6mSy/pCFMV8aT179OjbIvsNzOhy59+xN7fBUnLv8dQaNlX4cnyfGF+lDSk1RcuFZQ4HlVoHKrgTSpaMPeDUuJTHzkvsbntQpCuf4hBVycs+kqk7HwMV/S+4eK969+rMKtFv36BHH7xAYOnSn6Xsa/ulKPKbwACC9y6wp1+9cqoPGpjVNuCOHxz/c3/P+1Ar+gBXewySMjXWbegiykslVAFtASx8QTxKe/PO+kAAhl24eE3AQFBAUEBQQFBAVeCAUEQHghmlGohKCAoICggKCAoEDZKiAAQtnqKeQmKCAoICggKCAo8EIoIADCC9GMQiUEBQQFBAUEBQQFylYBARDKVk8hN0EBQQFBAUEBQYEXQgEBEF6IZhQqISggKCAoICggKFC2CgiAULZ6CrkJCggKCAoICggKvBAKCIDwQjSjUAlBAUEBQQFBAUGBslXghQYEe4WSGg6u+FjbYiNXmM9oyMzLIzY7gyspCURlFh2/XLayCrkJCggKCAoICggK/LsVeCEBwXTmQnUHV1q6+z7ysKaQ1CQOxYaj0z/83O9/d/MKpRcUEBQQFBAUEBR4OgVeOEAwHU/S0NXLfJJjaVJ8TiZrbl3BYDrzVUiCAoICggKCAoICggJmBV44QAiwsaerb8Unat4b6XfZEXnjgXtEEnBqJkLuAFnhRlLPP1G2wsWCAoICggKCAoIC/1oFXjhAGF6hFqbYgydJ+QYDP4WcfsCK4NRcRF4aZEcYsa8nIjvaSOb1J8n5n7/Wqpw9P3d3NBdEl63l9YXR5BqKylWntTdv1lCY/+Pi79F8f7boiGGJgz3zB1nx/pwYEsvYCyOVWjHnNWc+nxdJ9L/w7BOjUcL7w7w4uz+afTFlLM7juo1YSc12/aiYd4x1B25SGtuXQ73+BNV0MeccH7ybA6cfBOKHPbZC4174KSLZc/DM40pW4u/t+47HSSMH8ji7aQ7X7wrHEJuEMhrVNO/Zh7un1nElJuuptH1ebqrYdgi+Waf47cTzNUDa+7ehXSMVG1duJ7+EF0VeIYjezSqYZcyIC2bbzkNPLWmDLsPJD93H2WvRT53Hs95YzSubWgYZyx9zmqeXezZdxDJ+jpE98pEvFCB4WGnoF1DVXGG9wcDRsOs4WWu4m52Jq8YOd40tV+7EkG/QU9HZHWdrm0JxDsSGczH5zn1iefQQEb/TiEEHdrVFmEbi1AulGY6ftZmL3a9Rse19P/LS8s0TgUolISdNy6y1kRyKLTbTP+SRYqWUys4yXNw0TGlvTZdpYWiL3aaxV+BjLebVbr44XbzNe78XHS8scXZm70QFfadGk1SGVTJlJZNZs2OqK6Om3iKqhKPn3hldnnbuEjJ1RqRyMQoM7NoTxYzTOaUuSUAdN94rn8/YtWVdejBK5Hz3mg9/7I5gXWh+qcv0zBdKbGjRZwSuOZfYs/8YaZlFdOVcoSltWjZCZsxFIleQEnmefXv2kpUHUo0LjhoFAc1645Kwn80Hg0tdlOrtR1NecolNu/4o9T3FL3Rw8UQmUdO8b39urPqMiwkWQDAanegyagj2UhBLVWg0EtJTMs39PO7SXvaduPxUz3tebhKJJfQY9iYntswm7m7uA8Uyih3oOHQwd4+v4NSN5Oel2CWUQ02LoWPxMa+7ZNjYW5GVkoYJi7Vpoaxbs52aPd/CL+k3Nh8Jea7q4VS5O71awcI5m83l/XMSWTngYqfGtVJTarpmsmzVtqcuv71XDdp27kRGyE52H7n41Pk8y41N/DOpY5AzO0L+yIWDv08mPfVKvo2RvjyAUNfJnebuvuYK5+n1rDh7DG97RzQKJbeS7pihIcDJ1fx7WHICQZVr4mhlbf77Tk4WK29euk8sj54i4rcbUbqD2t8yqGnj7weEjKvP0pyluNcECJO9Gf3pde6IRCAR06+zN31c8+g9P7YUGVgu8fa1Y/FghwcA4V4Gw8dUpPK1qH8UEGRSyCuYa02AkBccy4xT2SACv/IOzBniwpQfrnM+pXSQ1izIl+HqDEZtuFtqnZ73Cyu2HERdlxTWrt1JcSxRe9amT/fmHNuynNDoZJBa07RLP9LPbyY4omjyqd71dQIyjvytgGDS1GjU0P2Nt4lYWwQIxbW2cW3B4MEeLPxuFQ9Opc97qzykfCIFo95+l63zviDx320gKKyg0ViBke+1Yes3P1Mcaf6tgHCvYt51u9KygvGZAMGUl9IhgB6DBnBz2wxOR2Q8tx33pQSEZm4+1HP2KASEleeOMbhuUyRiMdcT4rh6J4bu1euZf98fegVntYYaHj7mv3MNen66cvq+BnVoJCLltBHHJiIUTiW3dcyG0k1W1vZKxndyo4m3Ar0ul7V74ll3JcdMee06eDPAUcfCm0Zea26PvTif71fdZn9UPvwZEAC5jz17+tvR6ptwc6Gs7VW81tmVRl4K9Npc1uyJZ32IJe/CF+CpAUHJ7L25dG9ki4PUwLZ9scw7U2BlEIvp0NyFgXU0aKSQlprDT5vjOJNQwOpiEbWq2vNaW0dclSIy03Ws2B3Pzlu6BywIXv52/NDfmUWLbrL7jpH7AKGgEovfq8yqtTfZG56HVCahYwtX+tawwsTAV64k8/PBFJJzQSZXsOw/5bCzkiI3GsjQGchK1TJwTqQ5J6PRijXTvFg2J4r6Hdyo7a5Am5rNf1dEc8WgZN1kb+Z9eY3fdBYoFNlo2PSWM5O/uMUto4h+gwPo7y3F1lrKjDmX2RJTZDLv0asc7fQZrEuUMKaJPbbGXL5cFsnxeIvZRqWWM66nB03c5ejSs9lxI4/WVa3ZuekWmx5jmTTKPBk4fiB/LPuOsNT7rUe1Xx2Pa9oBdh97tOvgYYAgs3GjQatOBHo7YczN4OLv27l47TYGI5gsCBWtIonQulOtvA9kx/L77o3cik0110midKRB+y4EeDghRk9i+AWOHj5MejFT1dMCgrVjC4aPrsCWTcHUb9oYB2sldyPOsG3rXkyGJzvv6jRp0RxnGxX63Cyu//EbZy7fMpc7oEk/XnHL5GhoDs0a1cNKks2RrSu4EZ1iaVeJkipNu1CjgidSsYjspHBOHNpPbLJlYLfzqUHT5s1xslGSr8vi+qk9nLkcxr14ZitHPxq0bkc5F3uz++TW2QOcOnsRbZ6cpkPeooKdFCsrJdrsLHN5Tm+axqWCvlKl42ga+DuiVKs5ueJjzhfrQyYidg6oR7MWzbBXy8lKvMnhPTuISzFZz9QEvf5/pG35AWPNHlT29yQ7Npjd23eQVtw0+BdNTY8EhOQjhGg9eKVOVeT5d/lt/RKiUyy451e3L00r53IwOIPmjeqgVkiIurSPvQfPmFf2Kid/WrTvhIeDmtzMeE4f2MH124ng3pEJbXTMXX4AFBqcNRISklIxBvRkaOVbLNt+EZVDORq1aY+3ky0Ycrl9+XdO/HEebb4RswWhjZTjwVCzaiByYxpnD2zh4o2Y+xR6GCBIlHbUbBJElQB3jEYDt4MPcepMMDr9w8d9u8C2DOxcgcWzfjaXoTTJzimbjz1FfHhRxT0nr1qt5WMfER9eVaDHiKddHj19dLjIjKRlydgYoSRMaxl7NMo83qmiRSY1EBdnxayo+10HDta59PTV4SU3cjdLxoncfFrmqZj+MlkQ6jt70NTNMuGbLAirz59gSL2m5r9NFoPLcVF0rVbX/PehW1exVaqo7VnO/HeyLoelN0o2Czm1eEZAEIlZ/H4FbhyJ4utjWTh5WrN4rDe//nSNjQlGMyC821DNudNxvLczjRotfZjZ2EifaVEkWt9vQRBLRDRp4s6kikb6LIgDkZglUypy5UAk35zIxtlLw+IxXiyadY3NSUWd86ktCG85s31rOD/8kYNPBXvmD3Fj6cyrrEg0TbQiOjW04eCpVHKMImx9nVg3RM3waZHE6qFyLRdmdbLhzRk3uZIJ5So48FUHNeNm3kYr1xS6GCjnwOy+Dvww9yaHCpYlxQHBZDhRq5Usn+zL1Jk3uJBiJKiLH/2tUhm1NoV8A7w2NADfxCTe351W+D4OGOBPveRkJv9W9H9FgOCDLEnP8k1hbArX07i1J1nBsVxMMtKjbyBdtLGM3GpZ9tVo5M675fUMXpZQmLep7j9PqcyepVceAIQJVZUcOxbDZ/szqNvBj+/r5NFtWjSpiBg7MhDfm1F8dCSHgLpu/NRcQu8foskwmUkek2xr9qBnpWx+WbPngSs7jPyYuF1fEBz36ExKBASRnB5j3yEzeAt7j19G4VSBQcMHc271t1yIyTADQrPKNvy2Yg43k7RUajOc1rVs2TRnJnE5RiQKO+r5Kzl1Nd48EVZrO4LqNmGs3nS4mF5PZ0GwAMIr5CQnsXX1ChKzJdRq0ZoLB3eY83aq2gxZzGniUrWIFfb0ee1NghdP42qazgwI7RqUJyZ4D9v2ncGlwQB6N5CxZOZSTC1rX6UXA1vJWPDzanNcjledztSwjWbnwQuWvKs1Rxp9inhz3o70ee11Liz8iusZeYitfOk3Ziixv6/g8LkwjBJbOg0ZRfThpQSHW1xaInFFxrzTgbU/zCS1BDea0Sin64SPiN52PyBo/FswoHNN9q2YR1hyHn7NBxFUS8XquQtIybUi6PX38dCncXzTPK7eyaXNoElY39nP1r3nHteFnvn3RwFCA28VN09s4sCpG/i1Gk2n6mksmLkGkxPMBAgdWvqhTbzF6uUbyBHZ0KRhIMePnUGm8WTEhDGc2zCbM7eScKzQnJ6dGrBvwXeEZToxZlIQq2YuRVW5FV3qu/DL0jUo646ktXEnO8/Fo3avgK80gZCoVDO8tRn6DsbLmzl4/qYZEPp3rsHx9bM4F56CR62OdG1bk4Pzv+F6ehFklwwIYhr2fB3H5IPsOHzJPN4FjXiXrLNrOHop4uFayu0Y+uZ/ODFvGqHppXOJmuDjo/rpbAmx5XK2ZSyoF5COb5I1G9LEONjq+L9AHasvW3NRK6aaVxbD3Ix8f15NnL5o7GhYPp36OtV9gGDEwCf1Mjh4w5qj6RKcbHS8WzmHxGjrlwsQ/DR2dC9XqRggHGdIvWalAoRTiTEci48qsdGfFRAUtb3Y21JP0A9x3PPw+zb2ZlkdLW1mJ9KygzfjvfPpvTDOvOo3GqWsn+rPl9/d4IJIxbYP/FHfc6CZvAz5Oj6YcZPjKaCs481vzfPo8GM897qifxMffq2dTZvZSeZVlik9NSC8rWHox2FEFzy/SbfyfOV2lzbz7t5n4r4n3MoPq/Dj3BBOJcv4/pPyXJkfwqL4og4sFmGeRO7FIHy+PoOPO2n4aNYtThebx02A0MVPgd70DotALBaxcfUNZgXnYlSrWD/Zk4mfh3KnYGLVBDqyuoOKTrOLluHjRgTgdSuRj4/c/0EsswXha38ubg1l2okHIyTdfWxYNtSFV7+6aZ443hwZiPZcJPMuFBm/HwUI/ayyGLAsscCCI2Pb53785+sbhOYqWTbFi/c/CyVGJDIPZgumBLJgxg1OFwwKjxrBKweNITD7NFuPWCawe8loVND9tf/j+uovuJZiyteNoN7tkIkg4fpxTl26VXhtSYAgrtSLCc1hwfwNheZ9ZfVBjKqfzNzFu6nSfjSVrW6ydvO9AC4RXUd/SPKppRwLvv1AkW0DGtK7RQUWLV5aJoAwYkx7Vs/5nMT0x0ROJ2YAACAASURBVEezVuz+MRUjv2Pr+WwzIDTzy2PJ8o0F75UNQ95+jUMLvyY6E2wDOzOkR012/PID4YmmN1OESGQstBD8uWKVenxMYPh0tl3QUrHlYGrZxrJmy4HCy0TmNi2CcpGsPuP+U4sV3ywgo4SF5MMAoeWAd5Dc2sL+U6GFeXcZ9QHxx5dy+moqQa9/gOTof9lxwbLW9KrbhRYBelas3fnMAPC4DB4FCDXy/2DZ1hPmLGRqN0ZPHMGKGdMwNZsJEDo2dmXerJno/wTD7s1G083nBvNXHOHelF2x3XjqKs+wcttZhrzxIfuW/Bf7esNoUd2B1T9+j13nKdidncv5eIs1qHhybzyUlnbXWLXzlBkQenfQsGjGMvIK2qBur/+jfPZe1uwqeo9KAgSjpiqjhjVi1ewF5BSUWVmtOwMqp/PLuqJ2f1AzMXWHfI7LxensCr5/cfIofTtWTsc7XcX8GBkiqYEvamfw5VlbcgzQq3IGqjTlfcGHo6unExurZmeypDDbkgBBbJ/N124S3ruqKBiTjHSpnkbFu9YvVwyC6QNJYyvXRSWRWmIQzh1jeP3mZvEeZUEwfQNh7tUzD/1g0rMCQrPeFXlbHEfPtUUTlb2TA5vf1tD9w0jqmVwM9lpGrk40l9VoFLPm0wp8O/MaZ/Qqtr3jw8czw0gWifl4pD+Ht99kRYhl6m/RpxKTiKXXuqK8nVwc2fimNV0+jORe93xqQHhdSd9PowqDFD2rubO6h5igL2LIUSuZNtwLH1E+N5PyzBP/K1Xt+GzWFU7mWLH5PS+mfnSdCyYTwJ+SBRB80CVqEdnJmLc4lG23i4jeBAiKsASWBmup19aXocTTe3WG2Ryp8LTht7EeHLl2v48vLy2Hz3cWxRtMGl0e9eU4pp283wF8z8Uw49PrnMgrYeUukTJjSgVOzLvKqiQFq95156Nvwwkr5vR/FCC0y0/jtS33Bi4xWz+rwHvfXuNqhoh3Xq+I5lwEU49r8avlyqwWUgbMiCa9FBaE6p3G4ZN6nB3H7o+VMU1sHUd/SsLeLzgbaVYIJzdHvGt3xFt7ga0Hzz4SELzbvUU79UkWbz5ZeJ1E2ZAxk6qw/JvF+JUQpNis35uoIvfy28kQVB716NWtLdqUGDKydUhUDnhotCxc+GuZAMLw0YEs/GYh2hIm2ZrtBlPL35G7iXfIzTegcq0EF75n8+lMi4vBNYVVG38reK9UDHprMseW/JfIVNMKX4pLhUa0bN0cW6meu3HXObh9M8k5lgfV6jCEmuXsuZuYYM7byrUyhvPT2XImmwbdJuKY+js7Dz882FOkaca40T4s/WFF4cKg+GvwMEDoOvYz4g7+wOlQiwvHlBoPeBN16B72nomyuBjWf8qJAvB2r/UqbStLWbZq66PmnzL5rbQxCDIre0ZPnMSq2Z+RmmMBhCYVM1m+8kGIqd3nYyolLGbV4SKzv2e17rStn8+SX7bTYcz7hO+ah1fDziQmSnFN3EBO48mEbfgfcSnZeNUMonXjaqQlxqLNzUdm54NNylFWbjtpcTG0FrHwp02FQYr+TYbQ2DuW5av3F2pSEiDI/Fsytms9bobfv3DMT77O/qP3Q/qfxa3U81Mqx85k08kHAeZhDSGz0vFZ5Tx+OKtG7qBjtLOIz69bJvVxtdK4HalhV4q48PZOlTJwTFeytNiOhZIAwcMrg+EyBV+Fm3YSWVKzSuk0yLB6uQDBVPGajq609vB7opchOiuddWEPj759VkDwaOHH8hrZdJp1p3CV71LVnfWvGukwPZ6mjwOEYkGK1Zt6MrWKnkHz482+Kq+W/iytlsmrsxMKfVfu1d1ZE2Sg/fQ7hf/31IDwphUDP47kXmxmhea+zK+aQduf7zJikD8Bd5P5cJclotm0eFr1cVVmzrvCybty5n0SwNkFV5lfgm/dAggeTP5fKLa13fnwFTmTZoYTWuD3L+5iUNmo2PauL5O+uUFIugGRo5o9b3gwZuoNIh8xsf5nTCDKy7F8daIkQPDg2w9DOWMs2bRfvp4Xs+vn8P5lFWPtMnltW9FgbepcjwSEvDRe21oSIICHnx3Lh7mSnGVAl6Hlxw2xnCnlHlLv5kNpornJ6h3HH+jf9bpMxCP7KFv3F7nJ/JsNpJr0+mMBwbruUIbWSmPBoi2FFieZT2fGdJazcM5GKppiEOTXWL/9aOFz2w35P3KC13L0WhYDJ0zg3KofuHYn0/y7yYLQp1WlMgQEPxb+79fCvnyvEEaXpozvXZ41i5eTqrXQW6UeH1IpekYxQLjLqo17SwSEIhHF2Dh7Ur3Jq/ir4lm2agtG12ZM6OXPqkUrSNNZ8q7S8yMCb39vBoRq7UZQTX2b1ZuLJpk/N4rIvhXjh3uw5AkBof3QD8gLWcPBM2GFWbYf9n9knV3HscuJZkBIXf8pJ/9lgNC4QhorVj3oHvNvP4k29mdYtOZ4oQXBv8lQGruHs3z971TqPAn36AuofOUcO5dCj1ZeZLnUZu+cz0mRBTJiaBD7ls4lOs1iYfJoMoSWDqFFgNBWyaJZqwstnpU7TKCm5A9W7yxyyZToYnB9hfH9arN85lwySwHwRe0vo8mYT5Ad+IZDt54kUNHI6BoZxMSosPfI4fI1DcEFC5hBVdPRJ1uxOr5o18HAqunkJKjYlFgUb1ASICicsvjCVcKUK8oCDYx0qZZOpVQ106Nfol0MpgYynbfQyacCpg8mlSal5epYfjOY3L/wc8tGqZwNH/qzZUMEyy9rUVkr+GKCH3d23eSby/mWIMVHWRCK72IQSZj2ZnluHwjn52BTRJ6CDR/6sXFdOCuv6FBpFPx3vB9xO28y/UrRkvepAeFtZ2YuDmXLzTzsna34eowv51df5+cwA++OCUR1K47PDmQiEoto0dKLT9va8sEPlzmZCM3b+fBxHTGTF0YRnKzH3lFFi3ISNp/NvD9IMV/MsH7l6GqXw4C5cWYz9/1BiiLa9w1gsCGJ0etTyUXCpHHlqZ6YwJubU8g2gL2TigBFHmdiiuo8Yog/LfLSGb8mCaWDEh+dluDMe0GKjwYEuUrGtinlic82sHbVLXZE3L+V8WkBoW//ALyCI/nhav5DTdkP67cS9yaM7B7Iyrm/kPUnsNH41Kdvt2b8vnkJN6JMgRxSar06Ap+cc48FBKPUjUGvjSbswBJOXo5CqnKi/dCJ6I7PY/+leHMMQkM/IxuXLyU5Kw/n8k3o0qkhv/36I9F6V8aOH8XuedO4nZGPWOlA825DKa9J/csBQRTQnQnt1SxZsJKsfCPWHjXoO7gfdw9OKwUgyKjcrhdZwbuIupOGETH+jbrTIlDKL0vXIirfgwltVfy6cBXZ+UY0njXpM6gvyQe+NAOC0r0WA/t35NLulZy+GgkSFRVr1+LOlVOk5lj8cSJFTca+GcS2eT8Sly3F3d2B2NtFq9GHWRC86/egfU1btq1dSUJ6Hna+9enVrSm7l8wiJk3+TIAgk+mp76DnaqKclMfvkn6gKz6LBeFhgGDlUoNhw7qwb8VsQmPTUDkE0Ll/X25t+5FzUTkoKnenbzN/os5t43BIJsMmjEEliuXX7xeS41yP8f0bsn7eTyRpjUitPek6eDjKmP2FgNCvU1W2/foDt5OysfGoTufeXbi0ZjqX7hQFhpQICCJrOox8A0noNnYfuWyGF7VrBax00SSmFm0H/7NIYpUTI954gx0/fUV81uPdYsXvr+6VRS9nA/pcCV9csSr8qYJrNkPcDSwIseJ2rhhnjY43KupYfknDjYJFleniEmMQRPl8UT+bPdfVHEuTYApY/E/VbNJirF8+QDCJJBWL6eRdAT8bu0dyX6I2m62R10jP/es3VpWr6sRnrzqiNuiRKCTcuprEe5uTMQXDPhEgmFYydVz4urmCgT9GYVqz+VWz5G2lt+QdGpLE+1uSzSZ/r4oOfNBCg1who4KrjCu3szHm5/Dp4gSz26BdkA/dfUQ4ualRZ2uJTNdzIySZGUczMX0HwWTluCC1pYaTBLVCzOXgRP5vc7LZ7OVVwYH/9XBCm6JDJ5NiuJuJdwUnps25YgYEkUzC2N7edA5UYY4kNBo4/scdph1If2AXg0QlZ/pEf2yvxzJ+ezpvjiq2zdG0YhdJWftxeeYvCmV/jB4rGyWfDfaikgaiU/XYq8Vs3RNthqR7ybacPfMGueEgMaLV5bNzaxhzrxoKdjE8GhBMZvsxr1VksF02fb++zZ3CwVTE4IFeNLKW4O+tJiU+k9sJOby/zhLAaN7F8AgLQpuOvnxQX0mOQYQII9rsXDbujWPlpaIPVD0MEEwTStCIyWgvLuXw+fujsE33uFVpQ9uW9RHlZoNchSHrDn/s28LNmBR8mgymrq8StaMHqvw0ktKySIs9y4FDls+D2vo3IqhdM1SiPEQyBakRp9i244C52aq3H0U5cQRWPrVRyuTIRTrO71vNmWumMojxbdKXtvV9SI5LQKW2JjUtHU97cSEgtOk5EhulFEdPb3R3IsnM13N24wpua4veu4dtc7QEKT7EgmCU0WHgBNys80nLzEOt0HMnzwPNjR9LAQhS/Bp0omndKpCbiV6iRGZI5+SOFVyPzcRolBE06DVcrfJIy8pHLc8jQe+J+prFgmBKrpVb0rZVI6xlRvQiCRnx19i3bQvJWQUwKRITNOhN/Fw15OXqSAo7y+Yd+8z3Vg/qR3kHGxw9fNElRZCansyOTZvM76wJ7qq16Uv9Kr7kanUoZQbO7FrORXPwo2UXw9NaEPxccngjIJdLkWp+iX306rGkfvhXAIKpD7nWepX2TWtAbg4yuZSIc3s4YNp6YHr3ZZUZ9XZ/ji/7kmtxBhoM/Yi6+n3MXXEUAxLqvDqcmn42JCWmYmtrRXyaBJecU4WA0CnwDmmOjbC1kqOQGrl5ejcHjlssbY41u9K8qgsKjSN2SriTmAz6cLat2W9ebaucAwnq3AU7RT5pGXlYq0Sc2LWK0JiHuQ5EeNbuxav1DPy6aCN5Twphsnw+qZPFlVBrNtwtii0wlbWxTxbtnfXo8kVYSWB/mBWHUi3X2ChyGRqQh0aVj41BQoxOxOFbVlwqgIcq7jn09cxFbBCRkyvhjxw99XOt+F/US2ZBKN6pva1taOvpj1oqR2ryg4tE6I0Gs7XgdGIM55LiS2NkEK55SRVo2C2QbolRfHD88ZN3aSSS2lmxcLgrk34II70gLkPpbMv6sQ6M+G8YiSXEavw5X9vyzejXsRZbFv7MnZy/8QNNpamgcM1zr4ApiLJ31QxEd9SsLxbc9twX/F9SQGvPmgzs257tc74httjK/l9S/AeK+UJ9SbGkRjB5mE3fQTCt10z/NmJEbzQKhzP9W3vsX1xupbOKOnnZnDdYsfVdP17/9irXU0u3l/lxRStXxZF5nTT0+zac1AIXQcU6rnzXREbXmVEYSgEIJsuGd52udG5Wnh2/fs/ttLIp2+PKLvz+YiggUuQxOSCXH0KsHthN8GLU8J+rhXv1DnRtX4dTa2dwPurhLoh/roRP/uQXHhCeXBLhjpdZAd8AO77u44qVIZ8lG26z+VZeYeDUM+siEdOkrgMjG9thpxRjzDcQFpHGvN+SuVVsT/ZjnyOS4OhTjTruSew7GVOqsxgem6dwwUuhgLNNHlZaKZG5j//uxkshSBlWsnbz9sRdOk58iiVY90VIAiC8CK0o1EFQQFBAUEBQQFCgjBUQAKGMBRWyExQQFBAUEBQQFHgRFBAA4UVoRaEOggKCAoICggKCAmWsgAAIZSyokJ2ggKCAoICggKDAi6CAAAgvQisKdRAUEBQQFBAUEBQoYwUEQChjQYXsBAUEBQQFBAUEBV4EBQRAeBFaUaiDoICggKCAoICgQBkrIABCGQsqZCcoICggKCAoICjwIijwQgOCUiLF9LnlavYuuKiszWc0pOiyCUlJ+n/2zgM6qmptw8+ZPpmS3hNSSCH0XkV670WKIkVARRG7XkVF77VdxS6KAgJKrwLSVXpvoSUkIQmkkN77TGbmXzOTKgkEwXvvj3PWcmmcffbZ+93t2d/37XOIzc+hQH9nH9K4HxrcVgebAjYFbArYFLAp0BAF7ltAcLdTMT6wueXrjvVdR9OTOJmejPn95LbLpoBNAZsCNgVsCtgUqFbgvgSEpo4u9PcJatAXvK/mZ7PterStT9gUsClgU8CmgE0BmwI1FLjvAMFbpWFsQFNEDfrwjfnjTXAiI5ljqdXfaa/URxCBtrmARANlqSYKY219x6aATQGbAjYFbAr8PRS47wBhXGAzzJBwJ5f588/fRp6+6QuPjh0ERDLQZZhQBQoURJkoir+TnO+XtCKGdHfiRkQ257Lu9APnd6eBvYOCMa3tWHYgG2MNT1BwCxf6+1q/ZR53OYud1/V396B7ebdITlC7nrgUnuF4ZGaDcnZp8gBNvKz9NjP6KFeS8hp0nzmRf6sHUBbEERl3o8H3VCUUS+n0QG+kYhEmk57oE7+ScX98iO7OtbjpDiUtOnckLeIY6fm6e5DffysLEX4d+6FOO8Hl67n/rULU+Vwnv7YEuJRy5kxEnb9LG3WmU5Cj5beClEjOR1770+Xv0HMAKZeOkpRZ8Kfz+F+/0depDH+TmEM51rmxvsvJoYx2Igl7s8W3THdfAYKLwo5Hg1taKmw0mYjLSkctk1OkK0OrUFr+ScnPtfzmptailiuqxPklIZqYvOxaYnmNEJG624ixFBzaCJhDFfLC/wvxCiKBDq2deeIBe5RiKMov48fdaRxO+s8siiapgu9e8CPit+t8ebr0pg7Vp68PHfLT+fBk7Ul02vQwJnkbKSyvviUnOY+py1MbPM6Cw1z5bLiW8R/HUlSDTbz9tbR3E9O1hweGw/G8fuzmcjX4IfcyociOTsMfpbEig9/37CY1u6gqdwef5nTt0RM3ezswFHP52B7CL0WjN4LWpxk+zir8uwzGdGoxO88kNbhU3cbNwS7hV/Yer3uSvWVGIjGhzVojFqlo3+dBji/7F9HZ1rgdk8mbibOnoBaDSCxDJoXSUmsbx+5fxb4Lf36ybnDl/sKEYqU9g0eMZ9+WHygsqdFJK55pkgYw8YnxRO/5gbPR6X9hSe4ua5PJgSFPzsJLbvm4PQo7CWXFZRbraM71E2zcsp/Oj72F09lv2RHe8LF3d6Vq2N2BXR6hi18qK9f8VucNYtdQQr00uDfpagHu9duPNCzjOlKFdB5Ot/bBnN3xE+fj/nfb809XEBjSpIA2RhnvR8tv+RXawEaFjDYomJ98a5C4rwChjYsHPT39LfrqDQZWnjligQCZWExeaQkiQCVXWmITCnSljGzRDrXMCgk3igtYG3u5NiCMFkj9xYRIDtpm1kmzMKo2IOhy7qY5G3ZvWGsPvhyo5LHP40kshcZhTnw+woFZ/44lyfTf/2zri7ObYtx7mc+iapfFDAhB568w9/RfBVUCM2Y1ITD8fwcQgntPoYt7FqtXbUNfw80lc2vDwxP6cH7nSs7FpCAo3BgzZRoROxYRkVgJpiI6Tp6L8+Wl/zlAqFwMTQ6Mf2424T9VA0LN3ukVNpR+nUwsX7a9YZ32/0Equb0nM5+YybLP/0nh/2cDQS2tW/L4Kx1Y/dESqvfJ4v+3gFBZtZA+U2iluHpXgGDOyym4O6MHtWfX0q9IKrgZCv8fdNt7UsS/JSB092hEe1evWoDwSLtuSMViItJuEJV+g1Et2lt+/zX6Mu4aLS08fS1/64wGFlw+VRsQRopI3W7EqauA3KXudkne2LDFTxAEHhrszaPtNJRkFfL+iiTC86z39hvgy0THUl47XMpHj3jjUFbMc0sSiS8wgVjKwjcbs+GDSH4tq16AVQqBolLr/ea8xw/1ZlIbDUWZhby/MonzeSaLxWPR6yGcOpjDsF6OrFwRi0O3RozyF/PW93FkuTjwUV8Ve/JljHDRM2tFBi8+3Ain7DwmL0vBKAg8PCWYJ0JkmNe6r7+9xLrE6jL0GeDLWz3sLb+ZH2YuzaV9cTy9t8RSrtsBgthOxqvjfXnQT0ZuZhFfrUnkSKa1TiaThG/mhtJcLVBWUMrgD69SfpPUdQOCUuXI9rkaJsxNIL3inllPNcP/5CVePW22BNmx9gMfvvkwltAB3oxtoSYlPofX1qSQYi06QU2d+ecIVzTGcjbsTOKni6W1XBx19QYTzkx+/kkOLf+Qa9mGWkm6jn0GWfxO9p+5eosBfgtAEMS07fcIbZv5UZpxlb0/ryOt0PoMswVBlbif69KmPNguhIKkc2zdsp1iXYXJRaygeY+RdGwRgsRYQPi+zZy6fM3SPyov8y70zwCCR/BQhvRWsXzNaYaMHomHvYQrR7dw4OQVa99UutN3xFgCvZwpyopn/9a1JOVYV+MWQ58gqPQM+2NMDB46AGlxAhtWraawrFI7Ed6t+9PnwQ4oKSMu/Ff2HzqHvqLggtKDfiPHEuDpRFFmHPu3riMpt3qlF2Ra2vcfTevgRpQXZ3Do55+ITSvEaFIx5Kl/EKgVLGOn8hTTnmVziU6z7sI7T3uT9m7m3ZWBPT+8RXRGbfiVOwfRf+hwvJ0UJFz8nb2/n0BvNI85B0Y+O4draz7E0HI8XVr4kXhqC3sOX7zlju6ezPqWTG4FCAs5pw+jX+8u6NMusm79VgwVfaBFv8cIlUaz+0IRQ4cNxF6q4+TOFZyNSbPkKpLb02PEJEJ9ncmKP8OeHTvJKzVi33ICk0KvsmD9aRBEiAQTRqMJdYsJjPE+zfJdVxFkDnQaMIoWQb4YSzI5svUnom4UWOYLiwXBP53fIuUM6tGO8pxodv+8gfT82tbRegFBEBHUcRjdO7XAWJzB4W0riE2rttrVpWtgt0d5MKiQZcs33zvZ7zInN68iXnMS89IlBZW9305exj9DTLx2UYFZDbnMwMNBxTRVm4jPlPPjNTmFFUPcXqljXqsSy1wcl2THV4nSWiUSRAZGB5XQ3t5IbIac/UY9owwKPv47WRA6uXnT1d264JstCGvOHePR9g9Y/ja7Gy6lJDK8eTvL3/tjI7FXKGnjbbU45OpKWRoVXmczu/S4e0D46NlQxFfT+OhQIW5+Wj4f68q8j6M4XGgFhOfb25EYn81b23Np08eXl/xLGfPpDQxeGjZNdmPAh7GWAVXX9clzoZii0/j4cCHu/vZ8NsaFN/8dxZEiWDS3GVH74tmVo+TbR1z59zdXMXX0Zaghh09iRSwe68yMz+Lo/0gQYx1LeeqbZCZNDyZmfQQ/JgkolGKUYhHvzg7mwMrLtQBBJhejlsr454v+nF4czbZ8AX2ZgXydtaS3A4Su/b2QR2VyMduIXKvki5mevPvPKMKN1slYq5LQqJGGT0c63xkgqB3Z/vrtAKERhlQDx48ksfZqOQ/29yHl8HWOpBjp2tOX54N1PLM2C51J4NlJ/hRfuMG/zYLe4tK0fYSxgYks23DwprYa9cSbXN78HtHpt4rhqBsQBLGUUTNfoeTyDg6Fx2Lv34HhfduydcFHJOsECyC08BBxeOtqruUYaTficZqoE1j13U8UGMDONYiOfgKnr6RiRESnYdMQx+/i1+PWRdx83Q0gjBoejFGvZ/vq1eSW29H5gVb8vu0XjAgE9J6A6cqvZOSXItH6M3J8f3Z9MZ80o2ABhI5+9mTEHmPf0Uv49p7Kg85RLFmywzIhercdw4DWItat3YERMWG9JuCUeYi9xyPN6EFAn4kYI/aQWVCG1D6AEeP6suuLTyx5m2Q+jHt8Kjlnt3D84nVECg9GTZrAoVWfE5dWgNxOjca5FRMmtmHVwqWUGgR0JQWUVzSP1PzeFEHOiOlzOLumNiAo/HowaWRbjmxeSWKukeaDptFcFcOKZT9TYjADwvNoCzK48Ps6YnPFDH5kBslHfuTI+et3uYw05Pb6AaGJJJ+kiF85fiGJFoOmESI6xU+rD1jAxQwIHUMc0Ren8svGbegkrvRu78C2PWcQ2/vx8NRJxO5ZxvmkArzbDaNnMyXrv1tEiaYV0x8J5Luvf8ah9TB6+uSy/pdDOHWdSYec5eyO1OHa7EF8yuOJTs4FsZKhU58gYsMCLiZnWwBhYBcfzu34iYvJRQQ/OI7OjaVsWriANF01lNUHCF1Hz8Yx7zj7j19BkGkYNXUmJ1d9QVRa/TE8IvsAps8Yx6b5H5LVwGD2hih/N2lMGHi7QyGrL2qJLrXWu4lfAZ0KVSzPEmGn0vNqWAkHrtpxplhEm0bF9FeLmH/ejmyTeZNoQi2BdgEFtChR1gIEMwC/2DafmGQ7DuaK8bAvY5p/GVk31H8vQAi2d2Joo5AagHCUR9t3bxAgXMhO47fkuiMQ7xYQJMHu7B0lY+yniWRVWLU6DAzgX565DF2aQ68BvswJNjFhQRJFJjAJMja97c87H0WT4e7A4pEODPm0bn+vLMSD3SMljPkkicpNa+dBAbztkcOQH3L59vVQfvzmClF2GtbM8GLo+9EEdW/Eiy4F/OuywPy+doz6Koneo0N4qOgGs3YX8uwTTSjfH8mCCpeBySTwxT/COLqqNiBYhBXkLH43gPXzItldfrOL4SEnHaklFWhTWswri1LIrGdQPvpYGMEnI3jrUnU+Pv72/DDR9d4DwoeBxP1+jdf3FlrHtSAgwoRRrmD5S758+O9oIvXWcrg2c2XRA1JGfnerIECBlmNfwituA7vO1u5HJpOMiXNe4tiy97heICCRe9CmfVOLqyvjajjxabd2MchDRjGjt5Ql36+j1LKAiWjc70l6ao/zw8azdB03B7fs42z+9WRFXeyYPOdVTm36nMjEm31gbq2H0T9Iz4oNu+4JIIwd3op1335IerF17yMI5oDHukBIoMPEN9GeeoffrloBob0miRVrtqM3T3ISH2Y8N56NX31Cdhn4dZlE/xZiNvz0EzklRhCZ3YVl6MyJb7oEOj38FqqTb/P7VYGwQTNpKUSyfsfhqp27naMLZbmZVbtmjVtPkzKdawAAIABJREFUJk8NYPHHSymrI0uTScH4Z14jfG1tQBg49VWKwtdzKDzOWl+JmsmzX+LQ6k+JTRUx8tmXKD36JbtPW/3cYf0fI4xLbNpT0T53s5Lc9t76ASEkezsrt5y01F/r3ZaJozuxZMG3FigyA0L3ECkrF31PXgXgCyIBk9FEUM/H6Owcx4qN+yueLuHBCc+huLaJ3y7m8uTsJ1j+2QeEDnycjj4Gln+zBN8RryD59RMuF9W2pJkzCBj0Iq0LNrH5cLwFEB5sUsaypRsq+q6cgdNepvzSCn49WT3n1QUIJlUzHpvSkQ0Lf6CgYlPh2G0mA1XHWL3n0i2UktPr8dfR73iLw0n/fRdtZUHHNstHnqVkZaoUxEZea1PAd2e1ZBsFhoQU4FkiZ3GirCK5iada5ROdoObXnOpAw85B+XQoqw0IgqaED/0E3rykwGpfMzGhdR6+GX8zQJCJxMwMa4v532YLwqqzR5jS4cHbAoKZsJZEhdf7ZsW7BYQuo0N5VZbKyDXVVOvo5szPc1SMeCOBDgN8ediplGmrM6zNZxKxdl4I87+8QrzWnlUTXBjwUd1nLLuNCeUlcQqj1uVXDQgXTxc2Pa1k6NxE5r8ewpIvo4jValg93Z1hH8QSXAMQPuqtYMyCG/QaFcKw3CRe2FdsAQTD/ki+bgggSJWsmOfLV3OjOPGHhf+WFgQBHuzkxsS2KgTzjCUI2DsrSdpzmZdP3SUgaB3Z/o/bWRB8+PbdKA4U154gpN5afn3Smys3agc96rKLeGbtrQKbBDpNegXVmVX8HvnHI7MiHnr6TcLX/ZOYDJMFEFq3a4JbaGd0Zzfw6/lKt0PdFoTGw16je/kWlu2sDkJ08OnPww85s+iz1XQ0uxgSfmPP8eoYmmGPv0bm/hUci05E7dGU7r16oJaUY4Y9sdIBRUEEy9f8ck8AYWgfLUsWrrrZwiWICWrfl9ZNA8FgJmMBOydv0n9/m12XTBZACC49w6ZfT1vLIdIw/fk5bF34HhlFIFbY07bHEJo3DUKXlUTclXOEnz2HJZ5QkBDcoS+twgJq5O1D6m/z2HPZRN/JL6E/v5kD5+s/m6z1HcijYzR8//l6i8Xij1d9gPDwM//kzOaPiUqq9PJLGPj0P8jbsYSjcSUWF0PC6nc4V+GWCHjwUTpo41j3y58PsLstF1QluIWLIfxbdpy1Bimq3IN5dMJQlnz9GXqDFRBCZTFs2H7opkd1e+RNHGMW88vJlKrfmvSYTHP7eDZsP8vDL77G3oX/otPQMRSXOpB7YjmaAc9xbvkH5BuMeIR0pmPHNsiw9gGJxgND1CrW/361wsWQxsrVv1bl3XbIkzQqP8PPu6tdvnUBgqTJMJ4Y1JT0rNonM8oSj7F134VbStZuwtu4X36HHRcb5iJuuP5/PqXavpTXAwx8EG6Hnb2Op31MvHPZ6nKY2SqP5EQNO7LNkXTWa1hYAQ65Cn5KqXYn1AUIHt4FTJfJeS++Ei7gwSZ5dCxQ/b2CFM2idXbzoYu7zx21UmZpMStiLtRrwr9bQAjp35gF/nkM/j6zaiJyCXRj40QxQ95LoUtFDMJja24GhNMGJT+/4MvrH0QRUcPkVlnBJgOC+KpRLoMWZVqGn/lyD3Jn/TgRA99L4fO/GhDkSta+4cvHb0Rx+g4AQepiz85ZTjz52TWuFloH6ehJoXSNusJLdwkICjsHtr/hxKQ340ixbGBE/OOFMBwP1oxB8GL+3BhO/yHIU+SuYe/j7oz9Vww5DXrVVnVXazLiRULSt7D12M1xBgMmv0ph+CqOXKiGh6ZDZuOVtOu2gODZ+1mGu51m0ZojVbthp5ARTOgL33+zhU7j5qBJ3MeuYxerCjPqyblc27uEc0lGHnp8JnHbFnDmmnUidWo+kGHNJfcMEAb3krH0+003jR+5R2emj2/Nqu8Wk1tq7Z1txr6O+5UPqgDBHIOwuR5AqKyMSZDQqEl7OnbvhSH+N37eexKlV1emPdSSld8tJq8i77YPzcUl4n0LIDww8TnsE39n++H6Fwr7wCFMGqbg+y823hEgjH9qHpG7v+FCrHW8mmFlxNOvkbDlO84m6KwxCKve4XymFT7/ZwChximGugAhSBTB5t3Hb5o7O4x9hUY5W9n4W7VLqkW/GQSJz7N511k6Tp2Hfu96fFqqOZviRCevUoTgtmz5ej56RRBTpw/j0OqFxFWcn/Xu8wxdTTurAKFrQCYrVu2uem6HEbNxy93P9gPVVoC6AEEIHMCsvg4s+n4N+jsaq1J6zHgD4+63OFQjpuqOFo2/ILHZ6vZ0m0Iir6lQexWRF6/hYIm1D01pkU9hmoqN6dXWgoea5kOWkvVptwYEtXsRcx0lzL1SfbJhYLM8WuSp+Djpb3SKwSykVCTi4aCWONU4wnirtiwzlLMs+jzF5X/dkUGT3I7tcxvxyfcx7EsyIJaKef6JYHzPx/HsIV1VkGKdgJALIx8KYoZTHg8vySC/HGQKCcM7aPn5UDblChXb5/ry0cIYDiQbkEglvPBkEF5n43j2sM4SpPiXWhAkcpa9Hci+BVdYnmLCXiultFBPmfHWMQjajj5s66BjwDfpmGMtVc52LH0+gIQtl+4aEKQyOdveDOKNLyM5nWFE465mzbN+XNp0e0AwT/bvvhSM+Hg8bx4utQRGyhRiNCIjWcW33m3IwkYztaOeH5Zvq4K1yr7n3X4Ug1prWL9yDXklZkOfiNYjZ+MSv+O2gCDWtGDGkyPYtexTrmcUI5Jq6TX5WZRnv+aXczmWGIRAYli7cRc6AygdQ3lk2mi2L/mIVFkosx7px/KvPsds7RUkCrqNepzG4ri/HBDU7acypVkyC3/cazFry51CmDB9Mmk732wAIIjxb9OF9MgTFJeax6aAX7fx9PTNZ/maHdh3nMqkJoks/Ok3a97OoUyc/ig3tr9pAQSH5kOZ2CeAX5YvJjG3BEQS3Hy8yE5KqIoz0Hr3YfIjTVn62dcUGyUo5RKKiyuiVC2WvLpdDG1GzKKZOIb1W3+nrNyE0imIR6eO4+fFH5GWp7orQBCJTLjITOSUiSxulzu/GnaK4U4AwaPpQIb39GflkkUUlRmQKNwY/tjjJOz6nNNxhWg7PU7/QEg+t5MTmRomTxiGyHCDZQt/whQwgKf6ubB40UrLnCBWODLq8TkIl1ZWAULf1ip+XLyYUr0RmaYRo6dNIWLjR1xIrv5WTp0uBsGdiXOeIGbHAs7GZFkAVWLniEiXh64ymKQOAQU7H6bMmsQv8z+o191557rfmzs6+RXR096EHQLzLqiqMm3nW8RQe4FPIpQUGgUUknJeal3Etggt52tYQeuyIJgEPe93LGHFeQ2RpQJyeTmvtSmkKEn99wMEs6LmY42PhbRBKbk1HemNRlbHXiSrtHpSuDfNfHMuLR7w4YvB9qSnlqB0UiJk5TL662TLAlR5iqE+QBCkEj5+PoROaiOXkssI8FZy8XgSL++wuhVadvfl80FaS952zkqMGTmMXnADg9F6iuFuAGHIIHc620toEeZA1rUcYrN0fLA1s9ZuceiYIF5pJyerwICzWsQ/vrzC0TTjLYMURWIxG98IpTStkJhiEV0D5UTniCk+etkCCCaTlDkTXGmkltG+kZIjV/KIPJ3OyhjrTrRnT0/6eAj4BjmgzikkMqucmKgcfjxnbcsJk4N5KkjMhYRSAlxEHM9Toj7VAEAA7F1VrH7WH1F+CeEp5bQMUrN/9zU+OnrrNwiZT0dMnPMK53/+iMjEm9O26DedHm0akZ16A7GDJ/YKPXtXLiAqOZeAzqMIdpPhFNAUeU48KbnFZMad4uwlczyDgFfXSYzsHkx+RhoKRw/0qadYvnKrpa5mQHAR8vHy8aGoxIC9VkX4lq84FGmOQBfTYdyLtPcuJyo6Ab/g5pQU5iMvjLYAgkgip+fAEUhEUhqFhJATf5kCvY4zWzbXCuCq75ij+RRDfRYEkdyJ6bOfozg1hkydkkAfBzIKFRQe+9dtASG9WEHnMU/QobEzmUnXMKrccHWQsG/VF0QkFSBWuDBj9rMUpkSTqbMj0EdLZqGSvKP/sgCC+WrWbyq92gahK84HhRap7garFn1HTkWshNjOmRnPPI+kvIRyZJQkHufHdTvNywwtB4/CQyKhUXBTchIukpmWxIGDRy35msFh4LTnCHSE7Lwy3FwdObnuE07E51WfYviTFoR2/gU86mlkT7SaHVm3folN3XPVvQcEsx7NhsyiZzMXMtPScXTzJPn0JrbtO2vVQ9mFWc8OZeeSd7ieIWbAk3PxzNzO8g3HMJqkDJ/5Kq6iTBLSCgkKCSIlQ4csYV0VIDzgX4ratyUF+UVo7bUknKzO27nVCNr5ydG4B+AoKiQhJYOy/BgO7j9nmYMcQ3szfkQvSjITyCgU8Pf34bcf5xOVWu1y/aNOvm1G0ae1hGVL1/9V0/2fz1eu5/02RVyJV/NjWvX6ZXaDjwwroLsWkosFfNVGjsWqWJ9hTaOW6RndSI+TRo+zQUJMscCJ60qiKuKoujUuZKxrObllYlRiEwdzIazU7u8JCGbBzB9pauroankvgvkrjn+8zmelciw9iZLy/9xZWK1aioNShLHcSEaedZdtvlRqKfYiIzfyqwN6fFzlZGWXUVJ14kvA3V6KXCJQVlpOZoGh6jiMOQ97jRR7xc15e7rIyM3WoROJ8HGQkJCpQ2YnxVliJLMM3FQCSdnlqDQy1MZy0oqMODnKoaiMbB04O8nQSKr99EaDkYSs2tYWsVjA3VGGFBP5hXpyKo5fOjjIkZWVkV4Pf8mVEtzUYgSjibwiPUa5DDtdGWmW9ALebuY8q6+SQh1pFbt4c94O1S41S6KS4vKqo3/mmAY3BykKMeQV6BHsZCjLdKRY7hfh4yYhK11HfWgolYtx00gwV72kpJzMQkODjqn5dp3AgCawaulqiv/4jgpBhFKtRW5+45ChnJKifMrMDmBAqXVBKavdT/Ul+RQUVcdCKNT2KOUyjOVlFObnVwXb2WmdKC/ORaTQopRLKS8rorCwuArizKcgNFp7xCLQlxZRahCjlkFufqHlaJqjk4v1qGrVZaQgs9odZv7fErkatRJycyuCOivSSmRq1CqB3Jy6304nUWhQqxRgNFBaZF6oHZCUZVJYBnK1IzJTSY06inBwdqIgJ9MCt+ay2VXqZTJSVlxAccWLmixlqsq7nNKiglp5W4pXobdCJsVk0FNUkIe+8lxfRfmldlrUSjnGch1FhfmUW34XUDu7IKshilnz3NzqGCJBLEOt0SARCxZNC4sqe5IYjZMT+rwMSivGrtTOHqVIT37h7V9RKRIZebJlIXHXVeyqEXzW8BVHjqOzkrys3Br9VUDp4IK4NIfCCneMSCLDXqshN9u685arHJAJZRQU1jMiBBEqjQMyqRiDroTCQvNx0cpSSXFw1lKQnWXpkwqtCzJDPvlF1pA4sVSJWqOyBAGXlRSiF6lQUmj5Xaa0R2IoQC9RozK3g76UwoKCqrylahc0itrjwlheXKsfypQa7JQKBIyWkyhFFgtd3ZfCoyUTx/Vj//IviM/7z839DW8/cFQYKS0TURnbXXmv+aSCvcyEXAQ6g0Cezlxj6yUWmXCV1zY55ZeJKK4RK2wvN1ruLdEL6AQTGgQyKwCivvLdVy9KqquSUpEYZ7kSO6kUEQKlhnKyykoo+QtdCnfSGWxp7zMFBAUdhk6hiTab7Zs2kP3HUX6fVddWnXurgCDT81xjPYuvKCn4H3gJ2r2t3X83N7fQbvTv25Xo31dyMvJPvJb8v1v8/8rT73tA+K+oanvo31sBsZKmXQfiyyV2H4r5e2thq/0dKdDUswRDrpyokputnneUkS3xTQr0H/Uw187sJTqhIrjUptFtFbABwm0lsiWwKWBTwKaATQGbAn8/BWyA8Pdrc1uNbQrYFLApYFPApsBtFbABwm0lsiWwKWBTwKaATQGbAn8/BWyA8Pdrc1uNbQrYFLApYFPApsBtFbABwm0lsiWwKWBTwKaATQGbAn8/BWyA8Pdrc1uNbQrYFLApYFPApsBtFbABwm0lsiWwKWBTwKaATQGbAn8/BWyA8Pdrc1uNbQrYFLApYFPApsBtFbjvAcFeJqe9qxc+KnvLh5wySoo4lXmDG+ZXs9oumwI2BWwK2BSwKWBToE4F7ltA0MrkjPALxVmhRKjjU6CFeh2H0xKIzMm0dQ2bAjYFbArYFLApYFPgDwrcl4Dgp7FnhF8TywebbnUZTSZOZ97gSGqirWPYFLApYFPApoBNAZsCNRS47wDBSaHkkcYt6vyCY10tb4aE3UmxXMm9vSUhQK7HVVJOsVFERKm8xtfMbH3KpoBNAZsCNgVsCtxfCtx3gDDUL4RgrdMdtVKJoZzvIs9g/uZ2fVeoooyRjgWk6CVoxQZiS+XszFPf0XPqS+zopMBHYeTijfo/U/pnHyS2k9LGS2653WgwEH6t5JZgI1FKaekq5mxC9WeG/+yz/7L7BDGO3kF4iRK5nHD7T+gKUjt8vD0rimMgNeEa+hqfQb1lOcUavHwcyUpIoKz+7lFvFmKtN15OCsvvusIs0jJz/zJZ/r9lrHTwQCstIy0j5/9b0W8qr0jjgbezyvL/9SW5pKZlNbhOcrUbLvYCN5LTqj7R3eCbAQcPPzQKieWWgtRYcv+Hh+6d1OvmtAJKrTMO9hpEpnJyM1IoKqv+ZLPMvSXOxgRSM3L/lI63KptEbCRQbSI2T0zFV7zvrio17xYgWFte5Qi/USChsKHz070rRZ053VeAYI47mB7apqqiJXodYpEIg9GIRCS2/LfOUA4mE1KxxPJ35bU+LoIk8/fq67kG2BciE0xsy9WgERt5xi2b91Nc7knz9Ozrw2PuOiavTL8n+dXMROamYnZnDWqNnO7+YoZ9EEfpLTqffZAzqwbZMeQrq9tFIhUxbYQPw8LsKC/SsWlvMmsullHzS+rtOrrRkzw+OVl2z8t/U4aCiKCuY+nTxoPff/6JmKSKxUUkwSOoIz16PYC93MS1C79z8PA5SsuNiFSuPNC1Ewh2NGsdwPqv/k1mPZ+9/+PzTOq2zHyyI5s+/pbs27is6qq8tFEXuoQ6Y+/TBGX6MdZtP1KVrN1Dc+jsb+5DAoJYhMlgnXpMZLH+iy/IuPe8+Ne3T40nOIb2oaNjHLuPx9f53C4PPUNr+wy+X7Qaw5/Q9j9aGXMrSZQ06z6cds2DEOtyOHvgFy5EJViAW+Ldjq5NPVG7B+JYFsPK9TsbXDzPVmMZ1KGEpYu3/6mFrXHbPng7q/Fu1pbkjW9xMLG2a1WqcqbHsAkEeDpSmp3Msd+3EJuYXetZTbuOgBsHibh257CmbtyTru6p7Dl6pcF1vvOEAr7thjK0VxuK83IQKe2xE+WybtG3ZBRZx419aD/GD3uQyN2LOHLJ2i736tJqSni7iYk3Ttlx+y3JnT1VEJkY6VuKSIA2bjrWntdysezW7vE7e8KfT31fAUJLZ3f6eAVY1NAbDKw8cwSRIGB2I5hhQC6RUKLXWywFCqmUUS07IBdbyTuhMI+N8ZH1KjnYvhBBMLE9V4NCZOJVj0zeueH655WvcedfCQiVj/H1c+CHSU53BgiCwJcvhpJyLImvzhQjVkj5x1Q/ji6LYltudQd+7qmmyPZf5qOIv75Tu7ceyvCOzqz+4ScKy6tJp2X/abTzKWfb+g0U6EWE9Z9GB4d4lv24HX2FCILIkxkvTGbzgv8cIFTqH9JnCq0VV2sBglgqRyISMOHMiDlTuPDFJ1yzLJQmdGVlf2qxuCcd8h5l0mr8P/G58gHbz9dNYyKJDIlgRKeviZv36OH3OhupPaOeeBZp7F627z+HQepIn7FTEcf9zNb91fOGX6fRPNCo5D8KCNaqKujz5Gvot9cGBEHlyZQnZnB+3VdcTi9BpPFl+NghHPvxcxJLrOPVbDgdNesdYrbM43LKnQvXZMw7hCZ/y5bjqXd+cwPvMJkE2g0YTerRrdwo1INIwtDpL2O6tJntx6rBRCz3YOITTxC1ZzGnriQ3MPfbJ/srAaHy6SaTkVc7FrDzgg0Qbt8it0jRq1cvwi9evilFNw9fOrp61wKEMa06opLJOJt0nWvZGYxs0c7y+96oS/g7uRDmbk1vdjMsjDhd51OnueTgJ69cZmoneTvZrUF1MQ/C/t3c6BOixFCi58DJdPbEWyfGSkB4ens+swa6Ym/Q8fUv6aSUVCOwk4+GWQ86Yi8Y2Hs0g73xFdtLkYr5j6n5cEkamRXJBw/3JyDmGgtq8E79gCDQso0TE1upKckpYn2sifm9rBYEQSRi67wmvPZ5BJcqNhZiiQhDxcLctqMbU1up8POxQ59ZzI1SiD93g89OV1sSXH01PNndEY1gYNfhdH6/btVR6uTAR8OlfLazmPE9nXASDGz5PZXj6fWbN0wmNWOensPV7V9x4Xr1MVWTMoQpj/Vm55JFZJRWGgClaNUS8gurF6dbAYLUqTFdunbEwWx9uHyUC1cSrJNnhQXhl++2ENy9J45KPZcO7SAuvXofIdV60bFbd1y1CvLSYjl19AiFutrbl7oAobrjuDDm5ZmEf/Q+sbV20g70mDicxM0/UR7ag+YhfpTnJXLy4D5yS635u4d2olXTEBRiPQkRJwmPiKuY9J3oP34QF3ZsxLFlH4K9Hbh+agcXauwQRXIN7R7oh5erluKcG5w7dpDM/Er7tIBHk060DAuuyPsE4RG1LQFqjxDad2iHvUJE+rWLnDpzAXPXcA7oQI8urdC6+yPKv05uiYm8+CP8dszaIUUSN4aOHY5EBDlxx9h3vPZYNo8Vn+bdaRUWgKk4g5P7dpJV0YxuwV1p7Sfit6NX6d6nN3amPI7v20N2Ud3js0GDswGJXEIHMrKLlKXLt2GoaFqpUoPMUESRrrrP3goQXII60b5VKBJ9PmcP7eJGjlVrqwWhlA17U+nSrikU3+DUwX1kF1cbs10at6V186bYyQzciD7H6fN/3K3XDQga7xY8PKoPixZ8XrWjlkjllOvNY1REaL9HaOaqwNW7EYVp1ykph8Sjizh1rQL2RUpCOzxIcCNPTPo8Lh7eTUKmte9rPZrTt3dn1O4ByAqTLG1QmBzOngPmeVRK54ceoWD/Zi5n5FnSKxy8GNivF9s3rURfUTXvZt1pGRaIxFjCtYsHuRST2mAw7jH5JRyv7+LnA5dqtaAqoA8PDw1i83cLydTdm01LJSB8HCGll5cOmVHM/kQZ13TVVmip1MAAnzJ85HA9W8aedEktd4SLRs8QTx0yk8CRZAURxdX3WuaaWwCCOe/+5rxlkJQrY5c578opRjDRwlVHB0c9YpOIMzcUnC205m0nLWdasI6lUXIe8NHRSGbkSJKSyJLaz65vCNxXFoQu7j50dvOx1NVsQVhz7iiPtu9u+TsuK51LKYkMb24FhP2xkTgolLT29rf8XaDXsfjK2Tp1uheAMPXhQDroC/npXBEyjZzJ/V1ZsiCKY4VWQHiupZzk/DK2nSqgcWtX+ivzmbQwHfMy2KS1O18OU/Pd9gzyxVIm9Xbh7L5EvjhZDBJ79v7Tgalzr5Nc0WEee6IZzcMv88KJ6urUBwjd+/jyajMTX/6WCxolY7s64q0vsboYBIH354SiTcnio+2ZJBTVXvRcXBUEOymYMdGTK9sSOVII+VnFXMq0TpjN23owf5AdC3dkUiSRMqWPC8f2JrLgTDEyd1d2zXbg1Jk8fo0txb2Rlqnt7Xj3i2j21+OmVwQPYVIXMct+3FrLxeHY9iEG+6awcsvhW0719QGC3LsLj4zuwsWj+8gtk9O8a0900dvZsf8iRjMgzOpPZnQMV2KiMYPEA52bs3/lV0Sm5IGgoMOIiZTFnSa/SIfasyVtgmDT8vXUlOvPAYIrD706i+ILN5BLkrh89QZOjdsjSdzJofMpIHVn2KD2REfHUWYQE9C6J+rM39m2LwKTyYNHX5xBaXICKfERZBm09Ordne2LPyYhp9hMaAyZMoOSC7uJTi1A7RFKx1YebF36A7nlAoLMk2ED2xAVHW/JO7BNT+zSfuOXA9ZF3qfNYPp2DODCiUPklYpo1Lo37gUHWbf9NFKNKx5uHrQd9hDFh9ZyJVePviCdG+nWhhUEBT5+vni1HoC//gxrtx+r1W5tB02niWMBZ85eRuoUyINdwtj+w1dczynBt81wBnQNJDc/i8tnwnEI7U6YJpmVP27hr3RwtRz1Mp4xX7P70q19U/UBQmj3iXQOknHi+GlMdh50f6A9RzcuIiIp2wIII3t7c/3iOWKSc/Fu/gBBjiVs+mEp2WaPqNiZwUMeID4mhlK9GZ564qk7ysYd4VSjSd2AILJzY9zMp8gN386+I2coq2F1M7u27L0b4yB3oefo3kTs2EB6GRSlRZNZaG0Sj5Z9aOGsIzYxHZNERdf+/TmzfiFXUnKRKh3x8vKk5ZCJmM5u4WJKPuVF2SSnmgO+5Qx54TWy1y3gWFKGJS+Va2OmPDqeJV++jzl0IKjbeDr5Gzl69AxGiYZWPYeQ+OsizsVb09/q0gR2Z8KIrvy+6hti0/74ThsRfSa9hDFyHfvOXLtdVg363QIIYXoiM6SczRfj6aiju72JBefUJBgFFEo9c5qUEJsm52qZQBuvUpxL5Cy4KseMgU3ci5nkZWBrghyD2MhgXx0n4lXsyRZXPb8+QJDK9cwJLeViqpzrZSKC3UoINcr4MlZusY66acsY7mziVK4Yg2Cit28pVxKteWvkOv7ZppTEAjHhGVJQ6unvbOT9M2ryG+DWu68AIczRlYE+jRsMCPYKJW0qACEqL4sdCTF/GSB8+WITUk4n88XhAswbA6lShqFUZ6F6MyDMbSNh8mfXSDFPCIKczW/78c7H0Vwwyvnp5QDWLrjCtoqDFo2aurBosJoR869RejeAYKdg3cuNmPdeFJHlVtLu19+H50KFqhgE5DJmDXMe+91fAAAXoUlEQVSnX5CCy1dy2Xwih7PmQlZdMr5/N5DN70SyU19N64JKwYqX/Fn59RV2VMRrBbRw5dt+SkZ+moDRzZVdzzky41/RxFnmXIHhE4N4RpvFoO+yawFA5aNCBj1FWNEBthysveMM7D2TVqZTbN4XbtkVuQYEo7IAchk3Yq9R6cqvExAkdox95jUSt37OiVhrQZVuYUydNIJlX/ybYmUbZj49gP3f/ZuruebpWETYiGfpKj/L0nUHakzQlaUUMfTxN7i+5R0uplXr8ecB4Vm0KSdYvmKbZXeOIEYsGDDUYWjR+LRg4rBuLPp2IUYLIMwmdvcCjlnsxhJ6PD4X8aGF/B6ZBvaNmTljHIfWfE9UcpZl16bWqCksqFgZ/jAStL6tGT+kA4sWLsKElgnPzOHyz19yKdEat2MyiXHRSMkqrLRAaBj+8kskLnyPcwV1B1M07vUY7e0iawOCc0dmTmrPz99/S4bFgibCb8Bs+qhPsmzjcbzbDGdoN19WfPs1BQYBk8iLSc9N4tDCf5NQfG92izdPAiJ6THuL0p3zOJFqfoYC70A/pALoS3NITq6OHaoTEOybMW1qf35d8gWJFdFnnl0fZXBABstW7sKt1ViGdXdkyYJF1l2hoGLg9BcRLi5l54mbj2ArnfyYNm0CS7/4t2XHb73qBgTzL1KtLz36D8LPQ0XshRNcOh9OZl61BcxEY6a8MpxfP/mUG4Zbaxg4YA6tSnaz+WBU1XMHvzSXnFWfcuxGzfiF2wNC59HP4FV2gR27D1JabsIkc0FuykKnv3XwgMwxhKnThnNg9fdEpdQdN9b4gQm0d05j7ZZ9DQKA2yWyAEIzPe+d0pJlsX6YGNU8n+ACOz66LmVs03xUeQqWJ8ssWQmCkXnt81l/WUuE3sjcVsX8ckFDeIVFw8e1mKc8YN5FuyoXaH2AMDA0H/tcJWvTpJa8RSIT/2xfwMJwDUl1WEiCvYoYqRTzcazCCghtS1h4TkNUqXlSNDKrfQERF7UcaECcw30FCEqJlJlN2lref2C2IKw6e4QpHR60iFqXBaESEMzd8aeYC2SV1h1+ci8sCO6NHflglBseMgNHz+Ww7nQeMRnllonZDAjTPXQ8usI60ZhjJFa/1Ywvv4kgVmPP2odd6f3+1ao+bJIqWf22L1/OjeK41IG97/w5C4LGR8umSa70+zC2Ku/Qtu582k1WDQgVv4jlEkb0cGVKZ3u+WxjFjvQqOysr5vmyYG4Ux2oQqbm+qx9yoneNvE1SO9bM8+bTN6I572q2ICgZNy+RygOm3oHurJ6uYOgb18mvY45oO/ZZXGJ3sOdcbZDz7zWDDrJw1u82mzbldBg7mUZyMW7eEtbP/5oKgwZ1AYJU7cwTT7/Aqm/eIbtyIRM5Mu7lOZz/9F2uyFsxc1Znfv5oAZkV9TN59eepcR789PmPFIqkeDRuTefOHdCq7SzBsHI7DSfWvsnZhOpK/HlAeIr4RW9zOvvmiVuQamnetS9hjX2wUygQSaTIjIV89/UXFYAwnSOL3yU+33yvQKvxb+ITu5jtp29YWrVR+1H07tIMcVkml88cJeJKFPlF1n24IDPn3Y+wQG/slApEYilSQz7fLfgKk0NnnnisGWs/WUxefbsQkQMPvfQs5794n+iyus3/dQGCR/eZDPW8yuJ11RO7Sd6ZJ58JY9X8pTi0GU6vZhJ+XLGpYqwoGPfMy4Sv/icxWX8VIAh0n/I2HHybQ/EmTCZXBkwciZPGHklxBCtW7qgaP3UBgnObUYxpIfD9j9YyW8a4rCUznu3Gzx9/g6zVQwzuWMbSRduqgLNp3xm00Fxh7ebDIFET1qkXzUP8USmViMQSlAopS794h+Iq9qofECqfKShd6dhjIC2CHNi1/FuSCqx0YZI157E5D7L14wVk/aE9lY6+tO/eG193JxQyGYLMjsLL61i7pwLSBSWjX36d2B/mcz7T6kqwXrcHBIVrEwaPGIqLRkLSlXOEnz1NanrWbYML3XvMordpE6sPptV4Xu3/dGs1hEFNRSxfva3eNHfyg9WCYOLNk3YUVdzo71HE425i3ryg4IV2eRyM0XAiv9p0P7VNHlnxKo4JBl7xK+eVcOspF4vmgp55HUtZcUJNXMX5hfoA4ZnW+XhJ4A9eS5Ze1nCtVEApM9Dbp4xmagN2EhNiMZTmy3gvqgIQ2pTx9kkNeRWbiokt8yiI0/JL4e3Hy30FCGbhe3n509rZ407a3uJeWHLlbL2+r3sBCJUFUtnLeGygJ6NbqPhofiQ7c01VMQiVpxhqAsJVtT0bHnWj97sx1btVMyDM8+GTudGcljiw519OTH8znkQL2QrMnt2UwFO3dzHYeWn5Zaobfd+/Wj0xtfPg467SmwChsvzeLbxY00dPn88zrDtzuZK1b/jy7zeiOFtjcnELdGDtBBf61MgbmZI1b/nw77nRXDZbEP4ICP6urJ4hZ8gbSRbXyh+vsKGzCc79na2HI2r9pAwbxpROYr5bthlT1WDTMPn5yez8csEtAUGicubJ2S+w+tt/kVXpfxc7Mu7FZzj76XvEKCoA4eMFZFYeRPLsy6wxbiz/ehX2zQcwtJs3Sxcuobyi/v2nvknm7+/eI0B4nAsfv0uU8Q+DWZDT+4k3sI9Yyc8Hr1j6rtI9lCkPDawBCNM4tOh9rhfUAIS4xWw/ZQWEqj7pGUav/oPxcyxl3TcLyNDL6fPkXDSXVrDlULQ1b48wJo/pawUETQcen9WRnz9ZQEZ9Z74kjkx8YQ4nPn+fOF3DAcGt23RG+SXy/ao9VePRpOzKk0+FsPKTZTi2GU7PpmJ+WrnZOtGa/hOAAKGD5tDOsJtVeyp3zuAa2oMB7VW3BQTHViOY0E7Owh/WVddJ3poZz3Ri08cLUbQ2A4KOpYu2Vo3DsD4zaGF3iXXbTtFtyj/wStnFxj1nLL/L7L2Y+fjMOwaEyvZu2mc6YdKzbNx1zqqhqhUznujMpk8WklNjDJvE7kycPZPorQs4G2+1Dpjbp5fqeDUgiOwY99JrRCz5mEtZNXfzMgY//zp5mxdw5JrVZaB2b8rkR0ZWuRgqyyOSa2n1wFA6tW3K+a3fcCyqdv/84zzg3GIgfoV7ORtf/4FD7/Yj6OlfxsoNu+5oLagvcV2AEOBRxAwXMW9dUvB82zyOxWo4klcNCNPa5JEep+K4YOC1gHJePqeqbn9ROfM6lLD8uJrrlRuPemIQzIBw7pqKw7nV7ojKcpoEI7PbFpByTc2mLOvv7q7FzHASeC9KWeFiKGPeSQ35NQEhXssvlnnh1td9BwhKiYTHQtogM2NUAy6DycTKq2brQf2+RTuREXE9WhYYGhbsMdhPwo7r1ab5yTOb0iPuKtN/090SEI7ny1g0N4jY9Vf48LK1hcPauPFpDwVDPk/AiIzt/wpi7mcRhGeDSCVn3etBJGy9PSAglbHkzcYc/S6SJRUBvxPHBDDJq7wqBuFhfzGrKoIpzc9u29ef+X659FuSaw3AkSpY+Y4/696PZEtNIpXJWPJ6EBFrr/BJZEVMQnt3PuoqZeiXSUhcXdj1vAuzPrhCVAUNPDotlBE5CTz0c0mdsKZsMZpHW5Xx/YrttVrWJNgz7unnuLZ3AaeirPYIk6lhgIBIyfA5r2M8uohfTloDE9UeLXh0wiCWfPUxZRYXwxAOL32fK+nmGoto9dBLNM3fxerdF2g+dA5Nyn5jw96KHZU2jKmPP8KFdffKglAPINg5M/uZ51iz4F0yC627fu92YxjWxadBgCBy8CJAnEas1V6KCQmjZs0jac/7nE5VM/vp2az6+j2yK7aovh3GMrijpxUQTBLGPjWX7NOr2Heq2pojEokwGitmIbED4156nrjF73E66w5cDHYtmP7UMPYt/Zi4LDNYiAgb8wrtS3bw044LlhiE/wYgaL3bMmlcH5Z9NZ/icqtlqKGAgCKIyU9PIHz1x1y4YW2rwL4zedA+huUb9+PRaizDH3Rn8YIFFteRSVAz7ImXyD/wCQdj9Eyf8zq/rpjP9XTrAuzUZAgTh7VvECDInbwIEWdwMaMa0tqPfA7vnF1sOWANdDTJmzP9uQHs+Xw+STXMzkJgX57u5863C1dYj6EKIvo/9iqOiVtrAcKYl14jdd1nHLmWXWNciuk09Q0axa9k/QGr9dOzw8OM6u5fBQi+jXxJTKh2oQQPeZ5OwgFW/FJ3LFhl5oJEgdRYSo3Y0Jtm+nZDn8Sj8Djb95vdjnd/WV0MZXxw2p4MizvWyMSWhajTVCxKEzO8ST5BOjmfxlnfOSMSDLzToYAfL9gTozfyattCLkVr2F4BEMGeRUx2FHgrwq4aGuoBhP6hBbTUy5hfkXfFBGeJEROpdXwSquPV0yp0FaAxJKSA1oLEBgj1NbujXMHDjVvcFhLMcLAzMYaYvJod++470x9zMImkrP5HY4rTi7mQXIa9s5KugVLmzI8hprj6FENdFoTjWeAd4MDSxzwIv5RHFlK6Bin4cU0cG2OtwPHUY8H0VunZF1NCqL8SnVyF6LgVEBw9VAxrokDroGR0aztWHMiivFzHpkMFmL3NYS3d+HaME8cj8jGq5dhJIFhmBQRBLmfdKwEUpJUQlaHHyVlBSw8xL3waTWSVv1dg8uRgHvY0cPSajpAAJV8sjuFUpolGjR1ZPMWds5fyyBFJ6dZYzpJV8WyJL0fm6syuOY5cSyonLkOHs7sdTbQGpn4ST1o9p95MIhcmPv044Rs+5UpK7bfBOAV2ZfjQnuQkRpOVr8PdLxiVPoYNK7aiV7vSslkYiDR0eKAtl48doFhXTOSJ05YzzRJtIBOnTaQwKZqcEjF+jQOI+fUHjkamWU4xzJjSmYx80OWkIbX3xNdVwsYl35JWUIZTcHfGDenM5dPHKZU60yTEF6nClfDN8ywWBG1gF4LdpDgHtcVLnM3FqGvoipO5eKHarQP1nWIwBynWZ0GQ0vah52mpvMGlqOtoPYLx9XJAKTI0CBCcArsxZkR30q9Fk5FTgrN3MI4ksmHNJoqNMtqNe4HmiiQuXUnA3jMEHy97lILeAgjmS+vXkdGjBlCcdp2cQh3OXgHknFnN7tOVQWEiggY/S7/GRuITMnDw8ODitgVcvlGGSOxGqw5NcGncHh9JOheirpN86SCpFYDZuNt4erb2JCE2FpG9N409xaz9/nuyivV3DQjBnsU83qicvdEq9uQ0bBNhnfGlBHcdR6/Wrly7GotOpMInwJ/sy9ZgVnWjdoR6qXDwbYa/QznhF6MwGdIJP3XFsuv3bj2YwT2akRBzBYPCjca+Knb8tIjE7BJLkOLwdkoKyqWkZxXg7NMYUdYFNm7cgc4kovmI2XRwLuByxFWUroEE+DqiUtlXAUJAywdwtJPRuFMvjJF7uZYPqdHnSM4uQOvTngnjB5KVGEtWXikOHo1wlOSw6acfyaviNhmDHnsZN9JIzdHj5unA+kVfUmJyYNT0WYjSLhKXWkijkFbYKdWY4jdXAwICPn2fYVgzCdeup6Bx9SBuz0JOXy9B4tiKKVOHkBx5jlKpK55OJhydfS2AUGqwZ9j0J9Hq0klKvIFI7UpQsB8HVn9FTD1xBZZ2EDswas4LeHKVH774sc53upik3jz81CROr/iUGAtk3v1lBoR5gUaSDUbSS8Q4q8pxNIn56KLKOodIDDzerAilTmwx+wc7lpOcomR1itQST+XtWMbs4DKiMyWUik00tzewMVLN2SIRYpGJnh46BIw86KMjKlVBWrnA2WSp5d0rYomBJ5sVYqeTEJEvRqPSEyqW8mGkglLBwOQWRbiXSTidL6axow4XmQlJidQGCLdqdoVYgvnYYzNHtzq/yXC9MJcjaUmkFdcdlHX3Xap2DuY3FHYOtsNdLUZfWs6lmALiCqw7Ed9GGpqpDOyKrI6BGNzZmXPhWVSugxonBd2D7FBgJDK2kMisGquoIKJrCy0eSoGouHyM7g745OWwN9GIo7uK/sHK2oUx6th+NN8CCGaXhH+AiraeMvKySjiTYaK3v5RNZ63beqmdlC7BKlxVIspKyrkYU8D1wtoBAnKFhJ4ttKhFJq5eK+BCmjW2wrKQOCvpHqREbjJy+WoBUdnWHavMxYVdc5TM+Dyd0MYqZMZyTkfkk3ybFxgF93iYzt7FrF/9MxUn/arqprD3wM/PF4VUREH2DRKuJ1FuNCHVuNC8SWgtDUymYqJPn6t66YlE7UZggB8KiYmslDiSUyugUeZGkI+YhDQdAUFByCgjIfoieSWV5k0Rjr4hFh+toTSfxLhonALbUnz9OOkFoA3sSGNna3BR5aUrSeHyJetxROulJLh9CzJOn6T2AQ4lIR1aknH6BDl1xm3J8G/aAnulhKLcVG6kFxDU2J8L4eYdmIqwds1IvniSfMtCIOAa2gl13iXiU60tr3DwpJGvD0q5hNLCLBJir1JS+YpJQUZAWAu0lXlnFBIU4MuF89U7MqvejTC/xC8vI4GEpNRa/mNBpCCoWUvspCayU+JITLEGgYrE7rRoG0Sl7c2EidTIo1QUy5LG0TsYb3cXTLoCrkVdovIUo8atMb7OAhGRlTE5YkJadyA96ji5/9fe/f00dcZxHP+cnvZULEUKQp0oPyVU6DKyXbEs2RU3S7x0yeKdV3qxLNkfsL/HxEUXFpNl8c7EOS9kkWkgID8cP6QipSg/6npOl7aKdZpY6OMFT97nipCep+f7+racD+c8fVrD4leeV9Dl9JaWFxt1NbOPgFA+Kkctp/p1oq1FbpDXs5V5LWcql94bO4fVn3xzj7n0u8Bf08S9qb3bBvFkrzo7kgoVtvV4+qFyO5WTV6ytX63BvLKRTnV1tKvw4qnmHs2UZ/pXtrBOpz5VSyyq7c2MFpcyGhhM6+/xOyr4Und6RImGt69krs7c13L21Xu46YR6uk+rwXOVf5HVP3Mz2sq/fXk+euwT9fV2KeTv6MnCpNZylSsdXrxdPX09ijq+spl5ZZ2T6nCXNLVQvVJkRL1DnykedbSxuqCFqkmblZpLNa3q8eK6Bs6mNDF+V35QlOPFdKqrT4mmmIr+rjLzk1r9YBNDajszrNZgUVOzmXeuNJbWS/jy/PdKbtzWLzff/7H1qjdezT+WXjdnI67mAl+DTb6KhZAeZsN6XnXrLxwONNhcUHNYWt92yyfz6rnE8QZf6SZfblF6tBHRyqsJhqWA8FWyFBCqN0cTK55eK5dWckw1F5SIFJX/19X9dVe7xcoeXjhQuqWgxpC0tuVqOShqwJP+zIblub5G2n398cTbm8OQasvrZS6q2RoWYrPuFsP/O340HFFvPKHSdzS4TkibL3c1+3xD2XwNf01qfvnwwP0KvA4I3/70ZpJiTWOE4vr6/EUl8w9048bNvRNHTfvyIARcX5dSO/p1MqalD8zYB+twCYS8Yxoe/U6DzRmN/XxdmwdZG/1wlfzRj9b6gPDRBXmCAwl4rcf12w8N2ndAKP9DFdfIuQvqdv7SlWt3al5Y5UAHyk5WCXzRuaWjuSO6ldvv1QOrGKws5sw3P+rzIw80NvZ7+WOTbPULEBDqN2QEBBBAAAEErBMgIFjXUgpCAAEEEECgfgECQv2GjIAAAggggIB1AgQE61pKQQgggAACCNQvcCgDwujoqMbHK6uAsSGAAAIIIICAeYFEIqHp6fd/R1G9z+YMDQ0xlbReRfZHAAEEEEDAMgECgmUNpRwEEEAAAQRMCBAQTCgyBgIIIIAAApYJEBAsayjlIIAAAgggYEKAgGBCkTEQQAABBBCwTICAYFlDKQcBBBBAAAETAgQEE4qMgQACCCCAgGUCBATLGko5CCCAAAIImBAgIJhQZAwEEEAAAQQsEyAgWNZQykEAAQQQQMCEAAHBhCJjIIAAAgggYJkAAcGyhlIOAggggAACJgQICCYUGQMBBBBAAAHLBAgIljWUchBAAAEEEDAhQEAwocgYCCCAAAIIWCZAQLCsoZSDAAIIIICACQECgglFxkAAAQQQQMAyAQKCZQ2lHAQQQAABBEwIEBBMKDIGAggggAAClgkQECxrKOUggAACCCBgQoCAYEKRMRBAAAEEELBMgIBgWUMpBwEEEEAAARMC/wFpQdRfd9SddwAAAABJRU5ErkJggg==;" vertex="1" parent="1">
          <mxGeometry x="328" y="201" width="300" height="229.04" as="geometry" />
        </mxCell>
        <mxCell id="MnmM2nSsMipLqbGMfpA4-17" value="" style="edgeStyle=orthogonalEdgeStyle;rounded=0;orthogonalLoop=1;jettySize=auto;html=1;" edge="1" parent="1" source="MnmM2nSsMipLqbGMfpA4-14" target="MnmM2nSsMipLqbGMfpA4-16">
          <mxGeometry relative="1" as="geometry" />
        </mxCell>
        <mxCell id="MnmM2nSsMipLqbGMfpA4-14" value="实现InitializingBean#afterPropertiesSet" style="whiteSpace=wrap;html=1;rounded=1;" vertex="1" parent="1">
          <mxGeometry x="23" y="643" width="300" height="60" as="geometry" />
        </mxCell>
        <mxCell id="MnmM2nSsMipLqbGMfpA4-19" value="" style="edgeStyle=orthogonalEdgeStyle;rounded=0;orthogonalLoop=1;jettySize=auto;html=1;" edge="1" parent="1" source="MnmM2nSsMipLqbGMfpA4-16" target="MnmM2nSsMipLqbGMfpA4-18">
          <mxGeometry relative="1" as="geometry" />
        </mxCell>
        <mxCell id="MnmM2nSsMipLqbGMfpA4-21" value="" style="edgeStyle=orthogonalEdgeStyle;rounded=0;orthogonalLoop=1;jettySize=auto;html=1;" edge="1" parent="1" source="MnmM2nSsMipLqbGMfpA4-16" target="MnmM2nSsMipLqbGMfpA4-20">
          <mxGeometry relative="1" as="geometry" />
        </mxCell>
        <mxCell id="MnmM2nSsMipLqbGMfpA4-16" value="&lt;div&gt;@Override&lt;/div&gt;&lt;div&gt;&amp;nbsp; &amp;nbsp; public void afterPropertiesSet() {&lt;/div&gt;&lt;div&gt;&amp;nbsp; &amp;nbsp; &amp;nbsp; &amp;nbsp; if (disableGlobalTransaction) {&lt;/div&gt;&lt;div&gt;&amp;nbsp; &amp;nbsp; &amp;nbsp; &amp;nbsp; &amp;nbsp; &amp;nbsp; if (LOGGER.isInfoEnabled()) {&lt;/div&gt;&lt;div&gt;&amp;nbsp; &amp;nbsp; &amp;nbsp; &amp;nbsp; &amp;nbsp; &amp;nbsp; &amp;nbsp; &amp;nbsp; LOGGER.info(&quot;Global transaction is disabled.&quot;);&lt;/div&gt;&lt;div&gt;&amp;nbsp; &amp;nbsp; &amp;nbsp; &amp;nbsp; &amp;nbsp; &amp;nbsp; }&lt;/div&gt;&lt;div&gt;&amp;nbsp; &amp;nbsp; &amp;nbsp; &amp;nbsp; &amp;nbsp; &amp;nbsp; ConfigurationCache.addConfigListener(ConfigurationKeys.DISABLE_GLOBAL_TRANSACTION,&lt;/div&gt;&lt;div&gt;&amp;nbsp; &amp;nbsp; &amp;nbsp; &amp;nbsp; &amp;nbsp; &amp;nbsp; &amp;nbsp; &amp;nbsp; &amp;nbsp; &amp;nbsp; (ConfigurationChangeListener)this);&lt;/div&gt;&lt;div&gt;&amp;nbsp; &amp;nbsp; &amp;nbsp; &amp;nbsp; &amp;nbsp; &amp;nbsp; return;&lt;/div&gt;&lt;div&gt;&amp;nbsp; &amp;nbsp; &amp;nbsp; &amp;nbsp; }&lt;/div&gt;&lt;div&gt;&amp;nbsp; &amp;nbsp; &amp;nbsp; &amp;nbsp; if (initialized.compareAndSet(false, true)) {&lt;/div&gt;&lt;div&gt;&amp;nbsp; &amp;nbsp; &amp;nbsp; &amp;nbsp; &amp;nbsp; &amp;nbsp; &lt;b&gt;// 初始化客户端&lt;/b&gt;&lt;/div&gt;&lt;div&gt;&lt;b&gt;&amp;nbsp; &amp;nbsp; &amp;nbsp; &amp;nbsp; &amp;nbsp; &amp;nbsp; initClient();&lt;/b&gt;&lt;/div&gt;&lt;div&gt;&amp;nbsp; &amp;nbsp; &amp;nbsp; &amp;nbsp; }&lt;/div&gt;&lt;div&gt;&amp;nbsp; &amp;nbsp; }&lt;/div&gt;" style="whiteSpace=wrap;html=1;rounded=1;align=left;" vertex="1" parent="1">
          <mxGeometry x="-127" y="753" width="600" height="230" as="geometry" />
        </mxCell>
        <mxCell id="MnmM2nSsMipLqbGMfpA4-37" value="" style="edgeStyle=orthogonalEdgeStyle;rounded=0;orthogonalLoop=1;jettySize=auto;html=1;" edge="1" parent="1" source="MnmM2nSsMipLqbGMfpA4-18" target="MnmM2nSsMipLqbGMfpA4-36">
          <mxGeometry relative="1" as="geometry">
            <Array as="points">
              <mxPoint x="-69" y="1213" />
              <mxPoint x="118" y="1213" />
            </Array>
          </mxGeometry>
        </mxCell>
        <mxCell id="MnmM2nSsMipLqbGMfpA4-18" value="&lt;div&gt;初始化TMClient&lt;/div&gt;" style="whiteSpace=wrap;html=1;rounded=1;align=left;" vertex="1" parent="1">
          <mxGeometry x="-127" y="1063" width="115" height="70" as="geometry" />
        </mxCell>
        <mxCell id="MnmM2nSsMipLqbGMfpA4-38" style="edgeStyle=orthogonalEdgeStyle;rounded=0;orthogonalLoop=1;jettySize=auto;html=1;entryX=0.5;entryY=0;entryDx=0;entryDy=0;" edge="1" parent="1" source="MnmM2nSsMipLqbGMfpA4-20" target="MnmM2nSsMipLqbGMfpA4-36">
          <mxGeometry relative="1" as="geometry">
            <Array as="points">
              <mxPoint x="381" y="1213" />
              <mxPoint x="118" y="1213" />
            </Array>
          </mxGeometry>
        </mxCell>
        <mxCell id="MnmM2nSsMipLqbGMfpA4-20" value="&lt;div&gt;初始化RMClient&lt;/div&gt;" style="whiteSpace=wrap;html=1;rounded=1;align=left;" vertex="1" parent="1">
          <mxGeometry x="323" y="1063" width="115" height="70" as="geometry" />
        </mxCell>
        <mxCell id="MnmM2nSsMipLqbGMfpA4-25" value="" style="edgeStyle=orthogonalEdgeStyle;rounded=0;orthogonalLoop=1;jettySize=auto;html=1;" edge="1" parent="1" source="MnmM2nSsMipLqbGMfpA4-22" target="MnmM2nSsMipLqbGMfpA4-24">
          <mxGeometry relative="1" as="geometry" />
        </mxCell>
        <mxCell id="MnmM2nSsMipLqbGMfpA4-22" value="继承AbstractAutoProxyCreator" style="whiteSpace=wrap;html=1;rounded=1;" vertex="1" parent="1">
          <mxGeometry x="26.5" y="1423" width="185" height="60" as="geometry" />
        </mxCell>
        <mxCell id="MnmM2nSsMipLqbGMfpA4-27" value="" style="edgeStyle=orthogonalEdgeStyle;rounded=0;orthogonalLoop=1;jettySize=auto;html=1;" edge="1" parent="1" source="MnmM2nSsMipLqbGMfpA4-24" target="MnmM2nSsMipLqbGMfpA4-26">
          <mxGeometry relative="1" as="geometry" />
        </mxCell>
        <mxCell id="MnmM2nSsMipLqbGMfpA4-24" value="在Bean生命周期的postProcessAfterInialization" style="whiteSpace=wrap;html=1;rounded=1;" vertex="1" parent="1">
          <mxGeometry x="-6" y="1533" width="250" height="60" as="geometry" />
        </mxCell>
        <mxCell id="MnmM2nSsMipLqbGMfpA4-29" value="" style="edgeStyle=orthogonalEdgeStyle;rounded=0;orthogonalLoop=1;jettySize=auto;html=1;" edge="1" parent="1" source="MnmM2nSsMipLqbGMfpA4-26" target="MnmM2nSsMipLqbGMfpA4-28">
          <mxGeometry relative="1" as="geometry">
            <Array as="points">
              <mxPoint x="356.5" y="1684" />
              <mxPoint x="356.5" y="1624" />
            </Array>
          </mxGeometry>
        </mxCell>
        <mxCell id="MnmM2nSsMipLqbGMfpA4-31" value="" style="edgeStyle=orthogonalEdgeStyle;rounded=0;orthogonalLoop=1;jettySize=auto;html=1;" edge="1" parent="1" source="MnmM2nSsMipLqbGMfpA4-26" target="MnmM2nSsMipLqbGMfpA4-30">
          <mxGeometry relative="1" as="geometry">
            <Array as="points">
              <mxPoint x="357.5" y="1684" />
              <mxPoint x="357.5" y="1733" />
            </Array>
          </mxGeometry>
        </mxCell>
        <mxCell id="MnmM2nSsMipLqbGMfpA4-43" style="edgeStyle=orthogonalEdgeStyle;rounded=0;orthogonalLoop=1;jettySize=auto;html=1;entryX=0.5;entryY=0;entryDx=0;entryDy=0;" edge="1" parent="1" source="MnmM2nSsMipLqbGMfpA4-26" target="MnmM2nSsMipLqbGMfpA4-42">
          <mxGeometry relative="1" as="geometry" />
        </mxCell>
        <mxCell id="MnmM2nSsMipLqbGMfpA4-26" value="GlobalTransactionScanner#wrapIfNecessary" style="whiteSpace=wrap;html=1;rounded=1;" vertex="1" parent="1">
          <mxGeometry x="-21" y="1654" width="280" height="60" as="geometry" />
        </mxCell>
        <mxCell id="MnmM2nSsMipLqbGMfpA4-28" value="TCC拦截器处理" style="whiteSpace=wrap;html=1;rounded=1;" vertex="1" parent="1">
          <mxGeometry x="406.5" y="1593" width="120" height="60" as="geometry" />
        </mxCell>
        <mxCell id="MnmM2nSsMipLqbGMfpA4-33" value="" style="edgeStyle=orthogonalEdgeStyle;rounded=0;orthogonalLoop=1;jettySize=auto;html=1;" edge="1" parent="1" source="MnmM2nSsMipLqbGMfpA4-30" target="MnmM2nSsMipLqbGMfpA4-32">
          <mxGeometry relative="1" as="geometry" />
        </mxCell>
        <mxCell id="MnmM2nSsMipLqbGMfpA4-30" value="非TCC" style="whiteSpace=wrap;html=1;rounded=1;" vertex="1" parent="1">
          <mxGeometry x="416.5" y="1703" width="120" height="60" as="geometry" />
        </mxCell>
        <mxCell id="MnmM2nSsMipLqbGMfpA4-35" value="" style="edgeStyle=orthogonalEdgeStyle;rounded=0;orthogonalLoop=1;jettySize=auto;html=1;" edge="1" parent="1" source="MnmM2nSsMipLqbGMfpA4-32" target="MnmM2nSsMipLqbGMfpA4-34">
          <mxGeometry relative="1" as="geometry" />
        </mxCell>
        <mxCell id="MnmM2nSsMipLqbGMfpA4-32" value="找到所有@GlobalTransactional注解bean的类" style="whiteSpace=wrap;html=1;rounded=1;" vertex="1" parent="1">
          <mxGeometry x="616.5" y="1703" width="190" height="60" as="geometry" />
        </mxCell>
        <mxCell id="MnmM2nSsMipLqbGMfpA4-34" value="新建GlobalTransactionalInterceptor拦截器，为bean织入代码" style="whiteSpace=wrap;html=1;rounded=1;" vertex="1" parent="1">
          <mxGeometry x="921.5" y="1703" width="225" height="60" as="geometry" />
        </mxCell>
        <mxCell id="MnmM2nSsMipLqbGMfpA4-39" style="edgeStyle=orthogonalEdgeStyle;rounded=0;orthogonalLoop=1;jettySize=auto;html=1;entryX=0.5;entryY=0;entryDx=0;entryDy=0;" edge="1" parent="1" source="MnmM2nSsMipLqbGMfpA4-36" target="MnmM2nSsMipLqbGMfpA4-22">
          <mxGeometry relative="1" as="geometry" />
        </mxCell>
        <mxCell id="MnmM2nSsMipLqbGMfpA4-36" value="&lt;b&gt;……&lt;/b&gt;" style="whiteSpace=wrap;html=1;align=center;rounded=1;" vertex="1" parent="1">
          <mxGeometry x="58" y="1273" width="120" height="60" as="geometry" />
        </mxCell>
        <mxCell id="MnmM2nSsMipLqbGMfpA4-40" value="交给Spring容器" style="shape=process;whiteSpace=wrap;html=1;backgroundOutline=1;" vertex="1" parent="1">
          <mxGeometry x="58" y="1883" width="120" height="60" as="geometry" />
        </mxCell>
        <mxCell id="MnmM2nSsMipLqbGMfpA4-44" style="edgeStyle=orthogonalEdgeStyle;rounded=0;orthogonalLoop=1;jettySize=auto;html=1;entryX=0.5;entryY=0;entryDx=0;entryDy=0;" edge="1" parent="1" source="MnmM2nSsMipLqbGMfpA4-42" target="MnmM2nSsMipLqbGMfpA4-40">
          <mxGeometry relative="1" as="geometry" />
        </mxCell>
        <mxCell id="MnmM2nSsMipLqbGMfpA4-42" value="&lt;b&gt;……&lt;/b&gt;" style="whiteSpace=wrap;html=1;align=center;rounded=1;" vertex="1" parent="1">
          <mxGeometry x="59" y="1763" width="120" height="60" as="geometry" />
        </mxCell>
        <mxCell id="MnmM2nSsMipLqbGMfpA4-48" value="" style="edgeStyle=orthogonalEdgeStyle;rounded=0;orthogonalLoop=1;jettySize=auto;html=1;" edge="1" parent="1" source="MnmM2nSsMipLqbGMfpA4-45" target="MnmM2nSsMipLqbGMfpA4-47">
          <mxGeometry relative="1" as="geometry" />
        </mxCell>
        <mxCell id="MnmM2nSsMipLqbGMfpA4-52" value="" style="edgeStyle=orthogonalEdgeStyle;rounded=0;orthogonalLoop=1;jettySize=auto;html=1;" edge="1" parent="1" source="MnmM2nSsMipLqbGMfpA4-45" target="MnmM2nSsMipLqbGMfpA4-51">
          <mxGeometry relative="1" as="geometry" />
        </mxCell>
        <mxCell id="MnmM2nSsMipLqbGMfpA4-45" value="SeataDataSourceAutoConfiguration" style="whiteSpace=wrap;html=1;" vertex="1" parent="1">
          <mxGeometry x="-870" y="403" width="250" height="60" as="geometry" />
        </mxCell>
        <mxCell id="MnmM2nSsMipLqbGMfpA4-53" style="edgeStyle=orthogonalEdgeStyle;rounded=0;orthogonalLoop=1;jettySize=auto;html=1;entryX=0.5;entryY=0;entryDx=0;entryDy=0;" edge="1" parent="1" source="MnmM2nSsMipLqbGMfpA4-47" target="MnmM2nSsMipLqbGMfpA4-49">
          <mxGeometry relative="1" as="geometry" />
        </mxCell>
        <mxCell id="MnmM2nSsMipLqbGMfpA4-47" value="SeataDataSourceBeanPostProcessor" style="whiteSpace=wrap;html=1;" vertex="1" parent="1">
          <mxGeometry x="-920" y="600" width="220" height="60" as="geometry" />
        </mxCell>
        <mxCell id="MnmM2nSsMipLqbGMfpA4-55" value="" style="edgeStyle=orthogonalEdgeStyle;rounded=0;orthogonalLoop=1;jettySize=auto;html=1;" edge="1" parent="1" source="MnmM2nSsMipLqbGMfpA4-49" target="MnmM2nSsMipLqbGMfpA4-54">
          <mxGeometry relative="1" as="geometry" />
        </mxCell>
        <mxCell id="MnmM2nSsMipLqbGMfpA4-49" value="在Bean生命周期的postProcessAfterInialization" style="whiteSpace=wrap;html=1;rounded=1;" vertex="1" parent="1">
          <mxGeometry x="-935" y="710" width="250" height="60" as="geometry" />
        </mxCell>
        <mxCell id="MnmM2nSsMipLqbGMfpA4-51" value="SeataDataSourceAutoConfiguration" style="whiteSpace=wrap;html=1;" vertex="1" parent="1">
          <mxGeometry x="-660" y="600" width="260" height="60" as="geometry" />
        </mxCell>
        <mxCell id="MnmM2nSsMipLqbGMfpA4-54" value="给出数据库代理对象，存放IOC" style="whiteSpace=wrap;html=1;rounded=1;" vertex="1" parent="1">
          <mxGeometry x="-870" y="850" width="120" height="60" as="geometry" />
        </mxCell>
        <mxCell id="MnmM2nSsMipLqbGMfpA4-59" value="" style="edgeStyle=orthogonalEdgeStyle;rounded=0;orthogonalLoop=1;jettySize=auto;html=1;" edge="1" parent="1" source="MnmM2nSsMipLqbGMfpA4-56" target="MnmM2nSsMipLqbGMfpA4-58">
          <mxGeometry relative="1" as="geometry" />
        </mxCell>
        <mxCell id="MnmM2nSsMipLqbGMfpA4-56" value="SeataPropertiesAutoConfiguration" style="whiteSpace=wrap;html=1;" vertex="1" parent="1">
          <mxGeometry x="-1630" y="410" width="250" height="60" as="geometry" />
        </mxCell>
        <mxCell id="MnmM2nSsMipLqbGMfpA4-58" value="解析application配置文件的配置信息" style="whiteSpace=wrap;html=1;" vertex="1" parent="1">
          <mxGeometry x="-1565" y="550" width="120" height="60" as="geometry" />
        </mxCell>
        <mxCell id="MnmM2nSsMipLqbGMfpA4-63" value="" style="edgeStyle=orthogonalEdgeStyle;rounded=0;orthogonalLoop=1;jettySize=auto;html=1;" edge="1" parent="1" source="MnmM2nSsMipLqbGMfpA4-60" target="MnmM2nSsMipLqbGMfpA4-62">
          <mxGeometry relative="1" as="geometry">
            <Array as="points">
              <mxPoint x="-1090" y="510" />
              <mxPoint x="-1282" y="510" />
            </Array>
          </mxGeometry>
        </mxCell>
        <mxCell id="MnmM2nSsMipLqbGMfpA4-67" value="" style="edgeStyle=orthogonalEdgeStyle;rounded=0;orthogonalLoop=1;jettySize=auto;html=1;" edge="1" parent="1" source="MnmM2nSsMipLqbGMfpA4-60" target="MnmM2nSsMipLqbGMfpA4-66">
          <mxGeometry relative="1" as="geometry" />
        </mxCell>
        <mxCell id="MnmM2nSsMipLqbGMfpA4-60" value="HttpAutoConfiguration" style="whiteSpace=wrap;html=1;" vertex="1" parent="1">
          <mxGeometry x="-1172" y="410" width="165" height="60" as="geometry" />
        </mxCell>
        <mxCell id="MnmM2nSsMipLqbGMfpA4-65" value="" style="edgeStyle=orthogonalEdgeStyle;rounded=0;orthogonalLoop=1;jettySize=auto;html=1;" edge="1" parent="1" source="MnmM2nSsMipLqbGMfpA4-62" target="MnmM2nSsMipLqbGMfpA4-64">
          <mxGeometry relative="1" as="geometry" />
        </mxCell>
        <mxCell id="MnmM2nSsMipLqbGMfpA4-62" value="TransactionPropagationInterceptor" style="whiteSpace=wrap;html=1;" vertex="1" parent="1">
          <mxGeometry x="-1382" y="550" width="200" height="60" as="geometry" />
        </mxCell>
        <mxCell id="MnmM2nSsMipLqbGMfpA4-64" value="&lt;ul&gt;&lt;li&gt;请求前确保事务传播ID有值&lt;/li&gt;&lt;li&gt;请求后清理师傅传播ID&lt;/li&gt;&lt;/ul&gt;" style="whiteSpace=wrap;html=1;" vertex="1" parent="1">
          <mxGeometry x="-1392" y="680" width="220" height="60" as="geometry" />
        </mxCell>
        <mxCell id="MnmM2nSsMipLqbGMfpA4-69" value="" style="edgeStyle=orthogonalEdgeStyle;rounded=0;orthogonalLoop=1;jettySize=auto;html=1;" edge="1" parent="1" source="MnmM2nSsMipLqbGMfpA4-66" target="MnmM2nSsMipLqbGMfpA4-68">
          <mxGeometry relative="1" as="geometry" />
        </mxCell>
        <mxCell id="MnmM2nSsMipLqbGMfpA4-66" value="HttpHandlerExceptionResolver" style="whiteSpace=wrap;html=1;" vertex="1" parent="1">
          <mxGeometry x="-1130" y="550" width="195" height="60" as="geometry" />
        </mxCell>
        <mxCell id="MnmM2nSsMipLqbGMfpA4-68" value="错误信息绑定xid" style="whiteSpace=wrap;html=1;" vertex="1" parent="1">
          <mxGeometry x="-1117.5" y="690" width="170" height="60" as="geometry" />
        </mxCell>
      </root>
    </mxGraphModel>
  </diagram>
</mxfile>
